<?xml version="1.0" encoding="UTF-8" standalone="no"?>
<!DOCTYPE svg PUBLIC "-//W3C//DTD SVG 1.1//EN"
 "http://www.w3.org/Graphics/SVG/1.1/DTD/svg11.dtd">
<!-- Generated by graphviz version 2.43.0 (0)
 -->
<!-- Title: GridMap::getNeighbors Pages: 1 -->
<svg width="294pt" height="101pt"
 viewBox="0.00 0.00 294.00 101.00" xmlns="http://www.w3.org/2000/svg" xmlns:xlink="http://www.w3.org/1999/xlink">
<g id="graph0" class="graph" transform="scale(1 1) rotate(0) translate(4 97)">
<title>GridMap::getNeighbors</title>
<!-- Node1 -->
<g id="Node000001" class="node">
<title>Node1</title>
<g id="a_Node000001"><a xlink:title=" ">
<polygon fill="#999999" stroke="#666666" points="286,-56 157,-56 157,-37 286,-37 286,-56"/>
<text text-anchor="middle" x="221.5" y="-44" font-family="Helvetica,sans-Serif" font-size="10.00">GridMap::getNeighbors</text>
</a>
</g>
</g>
<!-- Node2 -->
<g id="Node000002" class="node">
<title>Node2</title>
<g id="a_Node000002"><a xlink:href="classGridMap.html#ab91b39ab1345f709ef863b316e748917" target="_top" xlink:title=" ">
<polygon fill="white" stroke="#666666" points="111,-93 10,-93 10,-74 111,-74 111,-93"/>
<text text-anchor="middle" x="60.5" y="-81" font-family="Helvetica,sans-Serif" font-size="10.00">GridMap::getPred</text>
</a>
</g>
</g>
<!-- Node1&#45;&gt;Node2 -->
<g id="edge1_Node000001_Node000002" class="edge">
<title>Node1&#45;&gt;Node2</title>
<g id="a_edge1_Node000001_Node000002"><a xlink:title=" ">
<path fill="none" stroke="#63b8ff" d="M169.55,-58.36C147.91,-63.39 123.02,-69.18 102.58,-73.94"/>
<polygon fill="#63b8ff" stroke="#63b8ff" points="170.61,-61.7 179.55,-56.03 169.02,-54.89 170.61,-61.7"/>
</a>
</g>
</g>
<!-- Node3 -->
<g id="Node000003" class="node">
<title>Node3</title>
<g id="a_Node000003"><a xlink:href="classGridMap.html#a68dab99a1413ed3d820d3d191ade415f" target="_top" xlink:title=" ">
<polygon fill="white" stroke="#666666" points="111.5,-56 9.5,-56 9.5,-37 111.5,-37 111.5,-56"/>
<text text-anchor="middle" x="60.5" y="-44" font-family="Helvetica,sans-Serif" font-size="10.00">GridMap::getSucc</text>
</a>
</g>
</g>
<!-- Node1&#45;&gt;Node3 -->
<g id="edge2_Node000001_Node000003" class="edge">
<title>Node1&#45;&gt;Node3</title>
<g id="a_edge2_Node000001_Node000003"><a xlink:title=" ">
<path fill="none" stroke="#63b8ff" d="M146.43,-46.5C134.62,-46.5 122.65,-46.5 111.57,-46.5"/>
<polygon fill="#63b8ff" stroke="#63b8ff" points="146.74,-50 156.74,-46.5 146.74,-43 146.74,-50"/>
</a>
</g>
</g>
<!-- Node4 -->
<g id="Node000004" class="node">
<title>Node4</title>
<g id="a_Node000004"><a xlink:href="classDStarLite.html#a1825e09a2f70a6789fee288367f4bd91" target="_top" xlink:title=" ">
<polygon fill="white" stroke="#666666" points="121,-19 0,-19 0,0 121,0 121,-19"/>
<text text-anchor="middle" x="60.5" y="-7" font-family="Helvetica,sans-Serif" font-size="10.00">DStarLite::setBlocked</text>
</a>
</g>
</g>
<!-- Node1&#45;&gt;Node4 -->
<g id="edge3_Node000001_Node000004" class="edge">
<title>Node1&#45;&gt;Node4</title>
<g id="a_edge3_Node000001_Node000004"><a xlink:title=" ">
<path fill="none" stroke="#63b8ff" d="M169.55,-34.64C147.91,-29.61 123.02,-23.82 102.58,-19.06"/>
<polygon fill="#63b8ff" stroke="#63b8ff" points="169.02,-38.11 179.55,-36.97 170.61,-31.3 169.02,-38.11"/>
</a>
</g>
</g>
</g>
</svg>
