<?xml version="1.0" encoding="UTF-8" standalone="no"?>
<!DOCTYPE svg PUBLIC "-//W3C//DTD SVG 1.1//EN"
 "http://www.w3.org/Graphics/SVG/1.1/DTD/svg11.dtd">
<!-- Generated by graphviz version 2.43.0 (0)
 -->
<!-- Title: GridMap::isValid Pages: 1 -->
<svg width="430pt" height="466pt"
 viewBox="0.00 0.00 430.00 465.95" xmlns="http://www.w3.org/2000/svg" xmlns:xlink="http://www.w3.org/1999/xlink">
<g id="graph0" class="graph" transform="scale(1 1) rotate(0) translate(4 461.95)">
<title>GridMap::isValid</title>
<!-- Node1 -->
<g id="Node000001" class="node">
<title>Node1</title>
<g id="a_Node000001"><a xlink:title=" ">
<polygon fill="#999999" stroke="#666666" points="422,-244 326,-244 326,-225 422,-225 422,-244"/>
<text text-anchor="middle" x="374" y="-232" font-family="Helvetica,sans-Serif" font-size="10.00">GridMap::isValid</text>
</a>
</g>
</g>
<!-- Node2 -->
<g id="Node000002" class="node">
<title>Node2</title>
<g id="a_Node000002"><a xlink:href="classGridMap.html#a117cd0e3e1975701f8187f368819738e" target="_top" xlink:title=" ">
<polygon fill="white" stroke="#666666" points="104.5,-451 20.5,-451 20.5,-432 104.5,-432 104.5,-451"/>
<text text-anchor="middle" x="62.5" y="-439" font-family="Helvetica,sans-Serif" font-size="10.00">GridMap::cost</text>
</a>
</g>
</g>
<!-- Node1&#45;&gt;Node2 -->
<g id="edge1_Node000001_Node000002" class="edge">
<title>Node1&#45;&gt;Node2</title>
<g id="a_edge1_Node000001_Node000002"><a xlink:title=" ">
<path fill="none" stroke="#63b8ff" d="M371.1,-254.49C366.08,-294.99 348.5,-386.34 290,-427.5 235.39,-465.93 153.8,-459.61 104.9,-450.95"/>
<polygon fill="#63b8ff" stroke="#63b8ff" points="374.61,-254.62 372.23,-244.29 367.65,-253.85 374.61,-254.62"/>
</a>
</g>
</g>
<!-- Node3 -->
<g id="Node000003" class="node">
<title>Node3</title>
<g id="a_Node000003"><a xlink:href="classDStarLite.html#ab5829effb52b12916c04258e776de632" target="_top" xlink:title="gets the g cost of a given state.">
<polygon fill="white" stroke="#666666" points="271,-130 180,-130 180,-111 271,-111 271,-130"/>
<text text-anchor="middle" x="225.5" y="-118" font-family="Helvetica,sans-Serif" font-size="10.00">DStarLite::getG</text>
</a>
</g>
</g>
<!-- Node1&#45;&gt;Node3 -->
<g id="edge2_Node000001_Node000003" class="edge">
<title>Node1&#45;&gt;Node3</title>
<g id="a_edge2_Node000001_Node000003"><a xlink:title=" ">
<path fill="none" stroke="#63b8ff" d="M360.65,-216.76C345.9,-196.75 319.49,-164.4 290,-144.5 281.11,-138.5 270.52,-133.73 260.55,-130.08"/>
<polygon fill="#63b8ff" stroke="#63b8ff" points="357.89,-218.93 366.57,-225 363.57,-214.84 357.89,-218.93"/>
</a>
</g>
</g>
<!-- Node5 -->
<g id="Node000005" class="node">
<title>Node5</title>
<g id="a_Node000005"><a xlink:href="classGridMap.html#a59c8f6bbf5751d7d5364293c7a0bf161" target="_top" xlink:title=" ">
<polygon fill="white" stroke="#666666" points="290,-395 161,-395 161,-376 290,-376 290,-395"/>
<text text-anchor="middle" x="225.5" y="-383" font-family="Helvetica,sans-Serif" font-size="10.00">GridMap::getNeighbors</text>
</a>
</g>
</g>
<!-- Node1&#45;&gt;Node5 -->
<g id="edge4_Node000001_Node000005" class="edge">
<title>Node1&#45;&gt;Node5</title>
<g id="a_edge4_Node000001_Node000005"><a xlink:title=" ">
<path fill="none" stroke="#63b8ff" d="M365.17,-253.58C352.98,-281.08 326.97,-331.81 290,-361.5 282.28,-367.7 272.79,-372.41 263.52,-375.95"/>
<polygon fill="#63b8ff" stroke="#63b8ff" points="368.44,-254.84 369.16,-244.27 362.01,-252.09 368.44,-254.84"/>
</a>
</g>
</g>
<!-- Node6 -->
<g id="Node000006" class="node">
<title>Node6</title>
<g id="a_Node000006"><a xlink:href="classGridMap.html#ab91b39ab1345f709ef863b316e748917" target="_top" xlink:title=" ">
<polygon fill="white" stroke="#666666" points="113,-395 12,-395 12,-376 113,-376 113,-395"/>
<text text-anchor="middle" x="62.5" y="-383" font-family="Helvetica,sans-Serif" font-size="10.00">GridMap::getPred</text>
</a>
</g>
</g>
<!-- Node1&#45;&gt;Node6 -->
<g id="edge8_Node000001_Node000006" class="edge">
<title>Node1&#45;&gt;Node6</title>
<g id="a_edge8_Node000001_Node000006"><a xlink:title=" ">
<path fill="none" stroke="#63b8ff" d="M370.17,-254.2C363.64,-291.32 343.77,-370.91 290,-404.5 224.57,-445.37 126.98,-412.74 84.51,-395.03"/>
<polygon fill="#63b8ff" stroke="#63b8ff" points="373.65,-254.57 371.78,-244.14 366.74,-253.46 373.65,-254.57"/>
</a>
</g>
</g>
<!-- Node7 -->
<g id="Node000007" class="node">
<title>Node7</title>
<g id="a_Node000007"><a xlink:href="classGridMap.html#a68dab99a1413ed3d820d3d191ade415f" target="_top" xlink:title=" ">
<polygon fill="white" stroke="#666666" points="113.5,-357 11.5,-357 11.5,-338 113.5,-338 113.5,-357"/>
<text text-anchor="middle" x="62.5" y="-345" font-family="Helvetica,sans-Serif" font-size="10.00">GridMap::getSucc</text>
</a>
</g>
</g>
<!-- Node1&#45;&gt;Node7 -->
<g id="edge10_Node000001_Node000007" class="edge">
<title>Node1&#45;&gt;Node7</title>
<g id="a_edge10_Node000001_Node000007"><a xlink:title=" ">
<path fill="none" stroke="#63b8ff" d="M362.77,-252.94C349.31,-275.2 323.38,-311.73 290,-328.5 234.46,-356.4 161.53,-357.16 113.63,-353.62"/>
<polygon fill="#63b8ff" stroke="#63b8ff" points="365.91,-254.51 367.91,-244.11 359.86,-250.99 365.91,-254.51"/>
</a>
</g>
</g>
<!-- Node8 -->
<g id="Node000008" class="node">
<title>Node8</title>
<g id="a_Node000008"><a xlink:href="classDStarLite.html#a1825e09a2f70a6789fee288367f4bd91" target="_top" xlink:title=" ">
<polygon fill="white" stroke="#666666" points="123,-300 2,-300 2,-281 123,-281 123,-300"/>
<text text-anchor="middle" x="62.5" y="-288" font-family="Helvetica,sans-Serif" font-size="10.00">DStarLite::setBlocked</text>
</a>
</g>
</g>
<!-- Node1&#45;&gt;Node8 -->
<g id="edge19_Node000001_Node000008" class="edge">
<title>Node1&#45;&gt;Node8</title>
<g id="a_edge19_Node000001_Node000008"><a xlink:title=" ">
<path fill="none" stroke="#63b8ff" d="M315.71,-235.89C272.68,-237.9 212.56,-242.76 161,-254.5 133.91,-260.67 104.13,-272.44 84.7,-280.85"/>
<polygon fill="#63b8ff" stroke="#63b8ff" points="315.87,-239.38 325.71,-235.46 315.57,-232.39 315.87,-239.38"/>
</a>
</g>
</g>
<!-- Node9 -->
<g id="Node000009" class="node">
<title>Node9</title>
<g id="a_Node000009"><a xlink:href="classDStarLite.html#ae06dd14ea57598b0c293bc98bec7d55d" target="_top" xlink:title="gets the rhs cost of a given state.">
<polygon fill="white" stroke="#666666" points="276,-93 175,-93 175,-74 276,-74 276,-93"/>
<text text-anchor="middle" x="225.5" y="-81" font-family="Helvetica,sans-Serif" font-size="10.00">DStarLite::getRhs</text>
</a>
</g>
</g>
<!-- Node1&#45;&gt;Node9 -->
<g id="edge9_Node000001_Node000009" class="edge">
<title>Node1&#45;&gt;Node9</title>
<g id="a_edge9_Node000001_Node000009"><a xlink:title=" ">
<path fill="none" stroke="#63b8ff" d="M366.24,-215.32C355,-186.28 329.72,-131.36 290,-101.5 285.42,-98.06 280.21,-95.27 274.78,-93.02"/>
<polygon fill="#63b8ff" stroke="#63b8ff" points="362.98,-216.6 369.74,-224.76 369.54,-214.17 362.98,-216.6"/>
</a>
</g>
</g>
<!-- Node10 -->
<g id="Node000010" class="node">
<title>Node10</title>
<g id="a_Node000010"><a xlink:href="classGridMap.html#a8335a7a2f80765040a94addef8360349" target="_top" xlink:title=" ">
<polygon fill="white" stroke="#666666" points="280.5,-319 170.5,-319 170.5,-300 280.5,-300 280.5,-319"/>
<text text-anchor="middle" x="225.5" y="-307" font-family="Helvetica,sans-Serif" font-size="10.00">GridMap::isBlocked</text>
</a>
</g>
</g>
<!-- Node1&#45;&gt;Node10 -->
<g id="edge11_Node000001_Node000010" class="edge">
<title>Node1&#45;&gt;Node10</title>
<g id="a_edge11_Node000001_Node000010"><a xlink:title=" ">
<path fill="none" stroke="#63b8ff" d="M353.54,-250.59C337.39,-263.25 313.36,-280.53 290,-291.5 282.95,-294.81 275.16,-297.63 267.53,-299.99"/>
<polygon fill="#63b8ff" stroke="#63b8ff" points="356.03,-253.08 361.65,-244.1 351.65,-247.62 356.03,-253.08"/>
</a>
</g>
</g>
<!-- Node11 -->
<g id="Node000011" class="node">
<title>Node11</title>
<g id="a_Node000011"><a xlink:href="classDStarLite.html#ac3432bde7f63e2006d75b7c577c6e906" target="_top" xlink:title="the main planning and replanning loop.">
<polygon fill="white" stroke="#666666" points="107,-234 18,-234 18,-215 107,-215 107,-234"/>
<text text-anchor="middle" x="62.5" y="-222" font-family="Helvetica,sans-Serif" font-size="10.00">DStarLite::plan</text>
</a>
</g>
</g>
<!-- Node1&#45;&gt;Node11 -->
<g id="edge18_Node000001_Node000011" class="edge">
<title>Node1&#45;&gt;Node11</title>
<g id="a_edge18_Node000001_Node000011"><a xlink:title=" ">
<path fill="none" stroke="#63b8ff" d="M315.78,-223.57C307.17,-222.29 298.37,-221.2 290,-220.5 226.51,-215.18 152.67,-218.2 107.01,-221.13"/>
<polygon fill="#63b8ff" stroke="#63b8ff" points="315.35,-227.04 325.77,-225.13 316.43,-220.13 315.35,-227.04"/>
</a>
</g>
</g>
<!-- Node12 -->
<g id="Node000012" class="node">
<title>Node12</title>
<g id="a_Node000012"><a xlink:href="classDStarLite.html#adaf418deeadbe5c78a8c05efd7813791" target="_top" xlink:title=" ">
<polygon fill="white" stroke="#666666" points="125,-168 0,-168 0,-149 125,-149 125,-168"/>
<text text-anchor="middle" x="62.5" y="-156" font-family="Helvetica,sans-Serif" font-size="10.00">DStarLite::updateStart</text>
</a>
</g>
</g>
<!-- Node1&#45;&gt;Node12 -->
<g id="edge24_Node000001_Node000012" class="edge">
<title>Node1&#45;&gt;Node12</title>
<g id="a_edge24_Node000001_Node000012"><a xlink:title=" ">
<path fill="none" stroke="#63b8ff" d="M325.47,-222.39C313.87,-219.46 301.49,-216.35 290,-213.5 224.6,-197.29 148.46,-178.9 103.22,-168.02"/>
<polygon fill="#63b8ff" stroke="#63b8ff" points="324.87,-225.85 335.42,-224.91 326.59,-219.06 324.87,-225.85"/>
</a>
</g>
</g>
<!-- Node13 -->
<g id="Node000013" class="node">
<title>Node13</title>
<g id="a_Node000013"><a xlink:href="classGridMap.html#a61c4a13c99d58a02db5aead64fc8d50b" target="_top" xlink:title=" ">
<polygon fill="white" stroke="#666666" points="284,-282 167,-282 167,-263 284,-263 284,-282"/>
<text text-anchor="middle" x="225.5" y="-270" font-family="Helvetica,sans-Serif" font-size="10.00">GridMap::setBlocked</text>
</a>
</g>
</g>
<!-- Node1&#45;&gt;Node13 -->
<g id="edge20_Node000001_Node000013" class="edge">
<title>Node1&#45;&gt;Node13</title>
<g id="a_edge20_Node000001_Node000013"><a xlink:title=" ">
<path fill="none" stroke="#63b8ff" d="M326.3,-246.61C305.9,-251.9 282.32,-258.02 263.2,-262.98"/>
<polygon fill="#63b8ff" stroke="#63b8ff" points="327.23,-249.99 336.03,-244.09 325.47,-243.21 327.23,-249.99"/>
</a>
</g>
</g>
<!-- Node14 -->
<g id="Node000014" class="node">
<title>Node14</title>
<g id="a_Node000014"><a xlink:href="classDStarLite.html#ac8ed9ade51beda1564d66c6d336bca67" target="_top" xlink:title="set the g cost of a given state.">
<polygon fill="white" stroke="#666666" points="270.5,-56 180.5,-56 180.5,-37 270.5,-37 270.5,-56"/>
<text text-anchor="middle" x="225.5" y="-44" font-family="Helvetica,sans-Serif" font-size="10.00">DStarLite::setG</text>
</a>
</g>
</g>
<!-- Node1&#45;&gt;Node14 -->
<g id="edge22_Node000001_Node000014" class="edge">
<title>Node1&#45;&gt;Node14</title>
<g id="a_edge22_Node000001_Node000014"><a xlink:title=" ">
<path fill="none" stroke="#63b8ff" d="M368.89,-214.63C360.5,-179.09 337.97,-104.61 290,-64.5 284.37,-59.8 277.59,-56.32 270.58,-53.75"/>
<polygon fill="#63b8ff" stroke="#63b8ff" points="365.55,-215.71 371.14,-224.71 372.38,-214.19 365.55,-215.71"/>
</a>
</g>
</g>
<!-- Node15 -->
<g id="Node000015" class="node">
<title>Node15</title>
<g id="a_Node000015"><a xlink:href="classDStarLite.html#abcdfb856f9835ae3ccf1ce871fa43783" target="_top" xlink:title="Set the rhs cost of a given state.">
<polygon fill="white" stroke="#666666" points="276,-19 175,-19 175,0 276,0 276,-19"/>
<text text-anchor="middle" x="225.5" y="-7" font-family="Helvetica,sans-Serif" font-size="10.00">DStarLite::setRhs</text>
</a>
</g>
</g>
<!-- Node1&#45;&gt;Node15 -->
<g id="edge23_Node000001_Node000015" class="edge">
<title>Node1&#45;&gt;Node15</title>
<g id="a_edge23_Node000001_Node000015"><a xlink:title=" ">
<path fill="none" stroke="#63b8ff" d="M370.8,-214.41C365.19,-173.14 346.56,-78.4 290,-27.5 285.91,-23.82 281.12,-20.89 276.04,-18.55"/>
<polygon fill="#63b8ff" stroke="#63b8ff" points="367.35,-215.06 372.06,-224.56 374.3,-214.2 367.35,-215.06"/>
</a>
</g>
</g>
<!-- Node4 -->
<g id="Node000004" class="node">
<title>Node4</title>
<g id="a_Node000004"><a xlink:href="classDStarLite.html#a130291392b0ae83ab59d75cd52404cb2" target="_top" xlink:title=" ">
<polygon fill="white" stroke="#666666" points="111.5,-130 13.5,-130 13.5,-111 111.5,-111 111.5,-130"/>
<text text-anchor="middle" x="62.5" y="-118" font-family="Helvetica,sans-Serif" font-size="10.00">DStarLite::replan</text>
</a>
</g>
</g>
<!-- Node3&#45;&gt;Node4 -->
<g id="edge3_Node000003_Node000004" class="edge">
<title>Node3&#45;&gt;Node4</title>
<g id="a_edge3_Node000003_Node000004"><a xlink:title=" ">
<path fill="none" stroke="#63b8ff" d="M169.48,-120.5C150.74,-120.5 129.94,-120.5 111.77,-120.5"/>
<polygon fill="#63b8ff" stroke="#63b8ff" points="169.65,-124 179.65,-120.5 169.65,-117 169.65,-124"/>
</a>
</g>
</g>
<!-- Node5&#45;&gt;Node6 -->
<g id="edge5_Node000005_Node000006" class="edge">
<title>Node5&#45;&gt;Node6</title>
<g id="a_edge5_Node000005_Node000006"><a xlink:title=" ">
<path fill="none" stroke="#63b8ff" d="M150.7,-385.5C137.94,-385.5 124.94,-385.5 113.02,-385.5"/>
<polygon fill="#63b8ff" stroke="#63b8ff" points="150.87,-389 160.87,-385.5 150.87,-382 150.87,-389"/>
</a>
</g>
</g>
<!-- Node5&#45;&gt;Node7 -->
<g id="edge6_Node000005_Node000007" class="edge">
<title>Node5&#45;&gt;Node7</title>
<g id="a_edge6_Node000005_Node000007"><a xlink:title=" ">
<path fill="none" stroke="#63b8ff" d="M174.1,-373.6C151.47,-368.26 125.13,-362.05 103.83,-357.02"/>
<polygon fill="#63b8ff" stroke="#63b8ff" points="173.34,-377.02 183.87,-375.91 174.94,-370.21 173.34,-377.02"/>
</a>
</g>
</g>
<!-- Node5&#45;&gt;Node8 -->
<g id="edge7_Node000005_Node000008" class="edge">
<title>Node5&#45;&gt;Node8</title>
<g id="a_edge7_Node000005_Node000008"><a xlink:title=" ">
<path fill="none" stroke="#63b8ff" d="M199.48,-370.73C166.14,-351.07 108.1,-316.82 79.87,-300.16"/>
<polygon fill="#63b8ff" stroke="#63b8ff" points="197.79,-373.8 208.18,-375.87 201.34,-367.77 197.79,-373.8"/>
</a>
</g>
</g>
<!-- Node10&#45;&gt;Node2 -->
<g id="edge12_Node000010_Node000002" class="edge">
<title>Node10&#45;&gt;Node2</title>
<g id="a_edge12_Node000010_Node000002"><a xlink:title=" ">
<path fill="none" stroke="#63b8ff" d="M205.84,-326.02C193.05,-337.47 175.78,-353.18 161,-367.5 144.52,-383.47 142.98,-390.25 125,-404.5 111.53,-415.18 94.71,-425.1 82.07,-431.97"/>
<polygon fill="#63b8ff" stroke="#63b8ff" points="208.4,-328.43 213.53,-319.16 203.74,-323.2 208.4,-328.43"/>
</a>
</g>
</g>
<!-- Node10&#45;&gt;Node6 -->
<g id="edge13_Node000010_Node000006" class="edge">
<title>Node10&#45;&gt;Node6</title>
<g id="a_edge13_Node000010_Node000006"><a xlink:title=" ">
<path fill="none" stroke="#63b8ff" d="M201.62,-324.55C181.92,-337.03 152.43,-354.58 125,-366.5 116.8,-370.06 107.72,-373.25 99.11,-375.96"/>
<polygon fill="#63b8ff" stroke="#63b8ff" points="203.67,-327.4 210.19,-319.05 199.89,-321.5 203.67,-327.4"/>
</a>
</g>
</g>
<!-- Node10&#45;&gt;Node7 -->
<g id="edge14_Node000010_Node000007" class="edge">
<title>Node10&#45;&gt;Node7</title>
<g id="a_edge14_Node000010_Node000007"><a xlink:title=" ">
<path fill="none" stroke="#63b8ff" d="M174.1,-321.4C151.47,-326.74 125.13,-332.95 103.83,-337.98"/>
<polygon fill="#63b8ff" stroke="#63b8ff" points="174.94,-324.79 183.87,-319.09 173.34,-317.98 174.94,-324.79"/>
</a>
</g>
</g>
<!-- Node10&#45;&gt;Node8 -->
<g id="edge16_Node000010_Node000008" class="edge">
<title>Node10&#45;&gt;Node8</title>
<g id="a_edge16_Node000010_Node000008"><a xlink:title=" ">
<path fill="none" stroke="#63b8ff" d="M160.31,-301.93C148.08,-300.48 135.32,-298.98 123.23,-297.55"/>
<polygon fill="#63b8ff" stroke="#63b8ff" points="160.1,-305.42 170.44,-303.12 160.92,-298.47 160.1,-305.42"/>
</a>
</g>
</g>
<!-- Node10&#45;&gt;Node11 -->
<g id="edge15_Node000010_Node000011" class="edge">
<title>Node10&#45;&gt;Node11</title>
<g id="a_edge15_Node000010_Node000011"><a xlink:title=" ">
<path fill="none" stroke="#63b8ff" d="M173.8,-296.76C169.4,-295.17 165.08,-293.42 161,-291.5 127.17,-275.61 92.16,-248.45 74.75,-234.07"/>
<polygon fill="#63b8ff" stroke="#63b8ff" points="172.88,-300.14 183.47,-300 175.1,-293.5 172.88,-300.14"/>
</a>
</g>
</g>
<!-- Node10&#45;&gt;Node12 -->
<g id="edge17_Node000010_Node000012" class="edge">
<title>Node10&#45;&gt;Node12</title>
<g id="a_edge17_Node000010_Node000012"><a xlink:title=" ">
<path fill="none" stroke="#63b8ff" d="M165.19,-294.8C163.73,-293.77 162.33,-292.67 161,-291.5 130.24,-264.35 149.97,-239.05 125,-206.5 112.63,-190.38 93.65,-176.67 80.04,-168.08"/>
<polygon fill="#63b8ff" stroke="#63b8ff" points="163.66,-297.96 174.07,-299.93 167.16,-291.9 163.66,-297.96"/>
</a>
</g>
</g>
<!-- Node13&#45;&gt;Node8 -->
<g id="edge21_Node000013_Node000008" class="edge">
<title>Node13&#45;&gt;Node8</title>
<g id="a_edge21_Node000013_Node000008"><a xlink:title=" ">
<path fill="none" stroke="#63b8ff" d="M156.73,-280.08C145.59,-281.32 134.13,-282.6 123.21,-283.82"/>
<polygon fill="#63b8ff" stroke="#63b8ff" points="157.28,-283.54 166.83,-278.95 156.5,-276.58 157.28,-283.54"/>
</a>
</g>
</g>
</g>
</svg>
