<?xml version="1.0" encoding="UTF-8" standalone="no"?>
<!DOCTYPE svg PUBLIC "-//W3C//DTD SVG 1.1//EN"
 "http://www.w3.org/Graphics/SVG/1.1/DTD/svg11.dtd">
<!-- Generated by graphviz version 2.43.0 (0)
 -->
<!-- Title: GridMap::getSucc Pages: 1 -->
<svg width="407pt" height="103pt"
 viewBox="0.00 0.00 407.00 103.00" xmlns="http://www.w3.org/2000/svg" xmlns:xlink="http://www.w3.org/1999/xlink">
<g id="graph0" class="graph" transform="scale(1 1) rotate(0) translate(4 99)">
<title>GridMap::getSucc</title>
<!-- Node1 -->
<g id="Node000001" class="node">
<title>Node1</title>
<g id="a_Node000001"><a xlink:title=" ">
<polygon fill="#999999" stroke="#666666" points="102,-57 0,-57 0,-38 102,-38 102,-57"/>
<text text-anchor="middle" x="51" y="-45" font-family="Helvetica,sans-Serif" font-size="10.00">GridMap::getSucc</text>
</a>
</g>
</g>
<!-- Node2 -->
<g id="Node000002" class="node">
<title>Node2</title>
<g id="a_Node000002"><a xlink:href="classGridMap.html#a59c8f6bbf5751d7d5364293c7a0bf161" target="_top" xlink:title=" ">
<polygon fill="white" stroke="#666666" points="267,-95 138,-95 138,-76 267,-76 267,-95"/>
<text text-anchor="middle" x="202.5" y="-83" font-family="Helvetica,sans-Serif" font-size="10.00">GridMap::getNeighbors</text>
</a>
</g>
</g>
<!-- Node1&#45;&gt;Node2 -->
<g id="edge1_Node000001_Node000002" class="edge">
<title>Node1&#45;&gt;Node2</title>
<g id="a_edge1_Node000001_Node000002"><a xlink:title=" ">
<path fill="none" stroke="#63b8ff" d="M89.73,-57.09C109.28,-62.06 133.35,-68.18 154.14,-73.46"/>
<polygon fill="#63b8ff" stroke="#63b8ff" points="153.49,-76.91 164.05,-75.98 155.22,-70.12 153.49,-76.91"/>
</a>
</g>
</g>
<!-- Node3 -->
<g id="Node000003" class="node">
<title>Node3</title>
<g id="a_Node000003"><a xlink:href="classGridMap.html#a94be64720a59d6f9f318867dd505078f" target="_top" xlink:title=" ">
<polygon fill="white" stroke="#666666" points="399,-57 303,-57 303,-38 399,-38 399,-57"/>
<text text-anchor="middle" x="351" y="-45" font-family="Helvetica,sans-Serif" font-size="10.00">GridMap::isValid</text>
</a>
</g>
</g>
<!-- Node1&#45;&gt;Node3 -->
<g id="edge5_Node000001_Node000003" class="edge">
<title>Node1&#45;&gt;Node3</title>
<g id="a_edge5_Node000001_Node000003"><a xlink:title=" ">
<path fill="none" stroke="#63b8ff" d="M102.21,-47.5C154.73,-47.5 237.04,-47.5 292.22,-47.5"/>
<polygon fill="#63b8ff" stroke="#63b8ff" points="292.54,-51 302.54,-47.5 292.54,-44 292.54,-51"/>
</a>
</g>
</g>
<!-- Node4 -->
<g id="Node000004" class="node">
<title>Node4</title>
<g id="a_Node000004"><a xlink:href="classGridMap.html#a8335a7a2f80765040a94addef8360349" target="_top" xlink:title=" ">
<polygon fill="white" stroke="#666666" points="257.5,-19 147.5,-19 147.5,0 257.5,0 257.5,-19"/>
<text text-anchor="middle" x="202.5" y="-7" font-family="Helvetica,sans-Serif" font-size="10.00">GridMap::isBlocked</text>
</a>
</g>
</g>
<!-- Node1&#45;&gt;Node4 -->
<g id="edge3_Node000001_Node000004" class="edge">
<title>Node1&#45;&gt;Node4</title>
<g id="a_edge3_Node000001_Node000004"><a xlink:title=" ">
<path fill="none" stroke="#63b8ff" d="M89.73,-37.91C109.28,-32.94 133.35,-26.82 154.14,-21.54"/>
<polygon fill="#63b8ff" stroke="#63b8ff" points="155.22,-24.88 164.05,-19.02 153.49,-18.09 155.22,-24.88"/>
</a>
</g>
</g>
<!-- Node2&#45;&gt;Node3 -->
<g id="edge2_Node000002_Node000003" class="edge">
<title>Node2&#45;&gt;Node3</title>
<g id="a_edge2_Node000002_Node000003"><a xlink:title=" ">
<path fill="none" stroke="#63b8ff" d="M240.47,-75.91C259.63,-70.94 283.21,-64.82 303.59,-59.54"/>
<polygon fill="#63b8ff" stroke="#63b8ff" points="304.5,-62.92 313.3,-57.02 302.74,-56.14 304.5,-62.92"/>
</a>
</g>
</g>
<!-- Node4&#45;&gt;Node3 -->
<g id="edge4_Node000004_Node000003" class="edge">
<title>Node4&#45;&gt;Node3</title>
<g id="a_edge4_Node000004_Node000003"><a xlink:title=" ">
<path fill="none" stroke="#63b8ff" d="M240.47,-19.09C259.63,-24.06 283.21,-30.18 303.59,-35.46"/>
<polygon fill="#63b8ff" stroke="#63b8ff" points="302.74,-38.86 313.3,-37.98 304.5,-32.08 302.74,-38.86"/>
</a>
</g>
</g>
</g>
</svg>
