<?xml version="1.0" encoding="UTF-8" standalone="no"?>
<!DOCTYPE svg PUBLIC "-//W3C//DTD SVG 1.1//EN"
 "http://www.w3.org/Graphics/SVG/1.1/DTD/svg11.dtd">
<!-- Generated by graphviz version 2.43.0 (0)
 -->
<!-- Title: GridMap::isBlocked Pages: 1 -->
<svg width="279pt" height="212pt"
 viewBox="0.00 0.00 279.00 212.00" xmlns="http://www.w3.org/2000/svg" xmlns:xlink="http://www.w3.org/1999/xlink">
<g id="graph0" class="graph" transform="scale(1 1) rotate(0) translate(4 208)">
<title>GridMap::isBlocked</title>
<!-- Node1 -->
<g id="Node000001" class="node">
<title>Node1</title>
<g id="a_Node000001"><a xlink:title=" ">
<polygon fill="#999999" stroke="#666666" points="271,-111 161,-111 161,-92 271,-92 271,-111"/>
<text text-anchor="middle" x="216" y="-99" font-family="Helvetica,sans-Serif" font-size="10.00">GridMap::isBlocked</text>
</a>
</g>
</g>
<!-- Node2 -->
<g id="Node000002" class="node">
<title>Node2</title>
<g id="a_Node000002"><a xlink:href="classGridMap.html#a117cd0e3e1975701f8187f368819738e" target="_top" xlink:title=" ">
<polygon fill="white" stroke="#666666" points="104.5,-204 20.5,-204 20.5,-185 104.5,-185 104.5,-204"/>
<text text-anchor="middle" x="62.5" y="-192" font-family="Helvetica,sans-Serif" font-size="10.00">GridMap::cost</text>
</a>
</g>
</g>
<!-- Node1&#45;&gt;Node2 -->
<g id="edge1_Node000001_Node000002" class="edge">
<title>Node1&#45;&gt;Node2</title>
<g id="a_edge1_Node000001_Node000002"><a xlink:title=" ">
<path fill="none" stroke="#63b8ff" d="M198.86,-118.55C181.94,-135.5 153.84,-161.12 125,-176.5 118.72,-179.85 111.73,-182.65 104.79,-184.96"/>
<polygon fill="#63b8ff" stroke="#63b8ff" points="201.74,-120.61 206.22,-111.01 196.73,-115.72 201.74,-120.61"/>
</a>
</g>
</g>
<!-- Node3 -->
<g id="Node000003" class="node">
<title>Node3</title>
<g id="a_Node000003"><a xlink:href="classGridMap.html#ab91b39ab1345f709ef863b316e748917" target="_top" xlink:title=" ">
<polygon fill="white" stroke="#666666" points="113,-167 12,-167 12,-148 113,-148 113,-167"/>
<text text-anchor="middle" x="62.5" y="-155" font-family="Helvetica,sans-Serif" font-size="10.00">GridMap::getPred</text>
</a>
</g>
</g>
<!-- Node1&#45;&gt;Node3 -->
<g id="edge2_Node000001_Node000003" class="edge">
<title>Node1&#45;&gt;Node3</title>
<g id="a_edge2_Node000001_Node000003"><a xlink:title=" ">
<path fill="none" stroke="#63b8ff" d="M184.61,-115.36C167.33,-122.98 145.17,-132.32 125,-139.5 116.62,-142.49 107.47,-145.36 98.85,-147.91"/>
<polygon fill="#63b8ff" stroke="#63b8ff" points="186.46,-118.36 194.17,-111.1 183.62,-111.97 186.46,-118.36"/>
</a>
</g>
</g>
<!-- Node4 -->
<g id="Node000004" class="node">
<title>Node4</title>
<g id="a_Node000004"><a xlink:href="classGridMap.html#a68dab99a1413ed3d820d3d191ade415f" target="_top" xlink:title=" ">
<polygon fill="white" stroke="#666666" points="113.5,-130 11.5,-130 11.5,-111 113.5,-111 113.5,-130"/>
<text text-anchor="middle" x="62.5" y="-118" font-family="Helvetica,sans-Serif" font-size="10.00">GridMap::getSucc</text>
</a>
</g>
</g>
<!-- Node1&#45;&gt;Node4 -->
<g id="edge3_Node000001_Node000004" class="edge">
<title>Node1&#45;&gt;Node4</title>
<g id="a_edge3_Node000001_Node000004"><a xlink:title=" ">
<path fill="none" stroke="#63b8ff" d="M150.49,-109.59C138.15,-111.14 125.41,-112.74 113.6,-114.22"/>
<polygon fill="#63b8ff" stroke="#63b8ff" points="151.25,-113.02 160.73,-108.31 150.38,-106.08 151.25,-113.02"/>
</a>
</g>
</g>
<!-- Node5 -->
<g id="Node000005" class="node">
<title>Node5</title>
<g id="a_Node000005"><a xlink:href="classDStarLite.html#ac3432bde7f63e2006d75b7c577c6e906" target="_top" xlink:title="the main planning and replanning loop.">
<polygon fill="white" stroke="#666666" points="107,-93 18,-93 18,-74 107,-74 107,-93"/>
<text text-anchor="middle" x="62.5" y="-81" font-family="Helvetica,sans-Serif" font-size="10.00">DStarLite::plan</text>
</a>
</g>
</g>
<!-- Node1&#45;&gt;Node5 -->
<g id="edge4_Node000001_Node000005" class="edge">
<title>Node1&#45;&gt;Node5</title>
<g id="a_edge4_Node000001_Node000005"><a xlink:title=" ">
<path fill="none" stroke="#63b8ff" d="M150.75,-93.87C136.15,-92.13 120.96,-90.33 107.44,-88.72"/>
<polygon fill="#63b8ff" stroke="#63b8ff" points="150.39,-97.35 160.73,-95.05 151.22,-90.4 150.39,-97.35"/>
</a>
</g>
</g>
<!-- Node6 -->
<g id="Node000006" class="node">
<title>Node6</title>
<g id="a_Node000006"><a xlink:href="classDStarLite.html#a1825e09a2f70a6789fee288367f4bd91" target="_top" xlink:title=" ">
<polygon fill="white" stroke="#666666" points="123,-56 2,-56 2,-37 123,-37 123,-56"/>
<text text-anchor="middle" x="62.5" y="-44" font-family="Helvetica,sans-Serif" font-size="10.00">DStarLite::setBlocked</text>
</a>
</g>
</g>
<!-- Node1&#45;&gt;Node6 -->
<g id="edge5_Node000001_Node000006" class="edge">
<title>Node1&#45;&gt;Node6</title>
<g id="a_edge5_Node000001_Node000006"><a xlink:title=" ">
<path fill="none" stroke="#63b8ff" d="M183.12,-88.02C166.01,-80.97 144.5,-72.4 125,-65.5 115.73,-62.22 105.56,-58.95 96.22,-56.07"/>
<polygon fill="#63b8ff" stroke="#63b8ff" points="182.05,-91.36 192.63,-91.97 184.74,-84.9 182.05,-91.36"/>
</a>
</g>
</g>
<!-- Node7 -->
<g id="Node000007" class="node">
<title>Node7</title>
<g id="a_Node000007"><a xlink:href="classDStarLite.html#adaf418deeadbe5c78a8c05efd7813791" target="_top" xlink:title=" ">
<polygon fill="white" stroke="#666666" points="125,-19 0,-19 0,0 125,0 125,-19"/>
<text text-anchor="middle" x="62.5" y="-7" font-family="Helvetica,sans-Serif" font-size="10.00">DStarLite::updateStart</text>
</a>
</g>
</g>
<!-- Node1&#45;&gt;Node7 -->
<g id="edge6_Node000001_Node000007" class="edge">
<title>Node1&#45;&gt;Node7</title>
<g id="a_edge6_Node000001_Node000007"><a xlink:title=" ">
<path fill="none" stroke="#63b8ff" d="M197.9,-84.22C180.79,-67.81 153.06,-43.49 125,-28.5 118,-24.76 110.15,-21.64 102.47,-19.07"/>
<polygon fill="#63b8ff" stroke="#63b8ff" points="195.8,-87.07 205.4,-91.56 200.7,-82.07 195.8,-87.07"/>
</a>
</g>
</g>
</g>
</svg>
