<?xml version="1.0" encoding="UTF-8" standalone="no"?>
<!DOCTYPE svg PUBLIC "-//W3C//DTD SVG 1.1//EN"
 "http://www.w3.org/Graphics/SVG/1.1/DTD/svg11.dtd">
<!-- Generated by graphviz version 2.43.0 (0)
 -->
<!-- Title: DStarLite::setBlocked Pages: 1 -->
<svg width="426pt" height="140pt"
 viewBox="0.00 0.00 426.00 140.00" xmlns="http://www.w3.org/2000/svg" xmlns:xlink="http://www.w3.org/1999/xlink">
<g id="graph0" class="graph" transform="scale(1 1) rotate(0) translate(4 136)">
<title>DStarLite::setBlocked</title>
<!-- Node1 -->
<g id="Node000001" class="node">
<title>Node1</title>
<g id="a_Node000001"><a xlink:title=" ">
<polygon fill="#999999" stroke="#666666" points="121,-75 0,-75 0,-56 121,-56 121,-75"/>
<text text-anchor="middle" x="60.5" y="-63" font-family="Helvetica,sans-Serif" font-size="10.00">DStarLite::setBlocked</text>
</a>
</g>
</g>
<!-- Node2 -->
<g id="Node000002" class="node">
<title>Node2</title>
<g id="a_Node000002"><a xlink:href="classGridMap.html#a59c8f6bbf5751d7d5364293c7a0bf161" target="_top" xlink:title=" ">
<polygon fill="white" stroke="#666666" points="286,-132 157,-132 157,-113 286,-113 286,-132"/>
<text text-anchor="middle" x="221.5" y="-120" font-family="Helvetica,sans-Serif" font-size="10.00">GridMap::getNeighbors</text>
</a>
</g>
</g>
<!-- Node1&#45;&gt;Node2 -->
<g id="edge1_Node000001_Node000002" class="edge">
<title>Node1&#45;&gt;Node2</title>
<g id="a_edge1_Node000001_Node000002"><a xlink:title=" ">
<path fill="none" stroke="#63b8ff" d="M88.11,-75.04C114.48,-84.49 155.06,-99.04 184.34,-109.54"/>
<polygon fill="#63b8ff" stroke="#63b8ff" points="183.21,-112.85 193.8,-112.93 185.57,-106.26 183.21,-112.85"/>
</a>
</g>
</g>
<!-- Node3 -->
<g id="Node000003" class="node">
<title>Node3</title>
<g id="a_Node000003"><a xlink:href="classGridMap.html#a94be64720a59d6f9f318867dd505078f" target="_top" xlink:title=" ">
<polygon fill="white" stroke="#666666" points="418,-75 322,-75 322,-56 418,-56 418,-75"/>
<text text-anchor="middle" x="370" y="-63" font-family="Helvetica,sans-Serif" font-size="10.00">GridMap::isValid</text>
</a>
</g>
</g>
<!-- Node1&#45;&gt;Node3 -->
<g id="edge5_Node000001_Node000003" class="edge">
<title>Node1&#45;&gt;Node3</title>
<g id="a_edge5_Node000001_Node000003"><a xlink:title=" ">
<path fill="none" stroke="#63b8ff" d="M121.15,-65.5C176.12,-65.5 257.16,-65.5 311.45,-65.5"/>
<polygon fill="#63b8ff" stroke="#63b8ff" points="311.6,-69 321.6,-65.5 311.6,-62 311.6,-69"/>
</a>
</g>
</g>
<!-- Node4 -->
<g id="Node000004" class="node">
<title>Node4</title>
<g id="a_Node000004"><a xlink:href="classGridMap.html#a8335a7a2f80765040a94addef8360349" target="_top" xlink:title=" ">
<polygon fill="white" stroke="#666666" points="276.5,-56 166.5,-56 166.5,-37 276.5,-37 276.5,-56"/>
<text text-anchor="middle" x="221.5" y="-44" font-family="Helvetica,sans-Serif" font-size="10.00">GridMap::isBlocked</text>
</a>
</g>
</g>
<!-- Node1&#45;&gt;Node4 -->
<g id="edge3_Node000001_Node000004" class="edge">
<title>Node1&#45;&gt;Node4</title>
<g id="a_edge3_Node000001_Node000004"><a xlink:title=" ">
<path fill="none" stroke="#63b8ff" d="M121.16,-58.37C132.61,-57 144.64,-55.56 156.23,-54.18"/>
<polygon fill="#63b8ff" stroke="#63b8ff" points="156.76,-57.64 166.27,-52.98 155.93,-50.69 156.76,-57.64"/>
</a>
</g>
</g>
<!-- Node5 -->
<g id="Node000005" class="node">
<title>Node5</title>
<g id="a_Node000005"><a xlink:href="classGridMap.html#a61c4a13c99d58a02db5aead64fc8d50b" target="_top" xlink:title=" ">
<polygon fill="white" stroke="#666666" points="280,-19 163,-19 163,0 280,0 280,-19"/>
<text text-anchor="middle" x="221.5" y="-7" font-family="Helvetica,sans-Serif" font-size="10.00">GridMap::setBlocked</text>
</a>
</g>
</g>
<!-- Node1&#45;&gt;Node5 -->
<g id="edge6_Node000001_Node000005" class="edge">
<title>Node1&#45;&gt;Node5</title>
<g id="a_edge6_Node000001_Node000005"><a xlink:title=" ">
<path fill="none" stroke="#63b8ff" d="M84.86,-55.86C104.08,-48.07 132.11,-37.03 157,-28.5 163.44,-26.29 170.29,-24.09 177.02,-22.01"/>
<polygon fill="#63b8ff" stroke="#63b8ff" points="178.18,-25.32 186.73,-19.07 176.14,-18.62 178.18,-25.32"/>
</a>
</g>
</g>
<!-- Node2&#45;&gt;Node3 -->
<g id="edge2_Node000002_Node000003" class="edge">
<title>Node2&#45;&gt;Node3</title>
<g id="a_edge2_Node000002_Node000003"><a xlink:title=" ">
<path fill="none" stroke="#63b8ff" d="M248.18,-112.91C259.76,-108.55 273.58,-103.31 286,-98.5 302.37,-92.15 320.49,-84.97 335.61,-78.92"/>
<polygon fill="#63b8ff" stroke="#63b8ff" points="337.09,-82.1 345.07,-75.14 334.49,-75.61 337.09,-82.1"/>
</a>
</g>
</g>
<!-- Node4&#45;&gt;Node3 -->
<g id="edge4_Node000004_Node000003" class="edge">
<title>Node4&#45;&gt;Node3</title>
<g id="a_edge4_Node000004_Node000003"><a xlink:title=" ">
<path fill="none" stroke="#63b8ff" d="M276.63,-53.52C288.11,-55.01 300.25,-56.58 311.84,-58.09"/>
<polygon fill="#63b8ff" stroke="#63b8ff" points="311.47,-61.57 321.84,-59.38 312.37,-54.63 311.47,-61.57"/>
</a>
</g>
</g>
<!-- Node5&#45;&gt;Node3 -->
<g id="edge7_Node000005_Node000003" class="edge">
<title>Node5&#45;&gt;Node3</title>
<g id="a_edge7_Node000005_Node000003"><a xlink:title=" ">
<path fill="none" stroke="#63b8ff" d="M257.37,-19.06C266.75,-21.86 276.83,-25.1 286,-28.5 304.38,-35.31 324.46,-44.23 340.27,-51.6"/>
<polygon fill="#63b8ff" stroke="#63b8ff" points="338.97,-54.85 349.51,-55.95 341.96,-48.52 338.97,-54.85"/>
</a>
</g>
</g>
</g>
</svg>
