<?xml version="1.0" encoding="UTF-8" standalone="no"?>
<!DOCTYPE svg PUBLIC "-//W3C//DTD SVG 1.1//EN"
 "http://www.w3.org/Graphics/SVG/1.1/DTD/svg11.dtd">
<!-- Generated by graphviz version 2.43.0 (0)
 -->
<!-- Title: GridMap::cost Pages: 1 -->
<svg width="370pt" height="46pt"
 viewBox="0.00 0.00 370.00 46.00" xmlns="http://www.w3.org/2000/svg" xmlns:xlink="http://www.w3.org/1999/xlink">
<g id="graph0" class="graph" transform="scale(1 1) rotate(0) translate(4 42)">
<title>GridMap::cost</title>
<!-- Node1 -->
<g id="Node000001" class="node">
<title>Node1</title>
<g id="a_Node000001"><a xlink:title=" ">
<polygon fill="#999999" stroke="#666666" points="84,-19 0,-19 0,0 84,0 84,-19"/>
<text text-anchor="middle" x="42" y="-7" font-family="Helvetica,sans-Serif" font-size="10.00">GridMap::cost</text>
</a>
</g>
</g>
<!-- Node2 -->
<g id="Node000002" class="node">
<title>Node2</title>
<g id="a_Node000002"><a xlink:href="classGridMap.html#a8335a7a2f80765040a94addef8360349" target="_top" xlink:title=" ">
<polygon fill="white" stroke="#666666" points="230,-38 120,-38 120,-19 230,-19 230,-38"/>
<text text-anchor="middle" x="175" y="-26" font-family="Helvetica,sans-Serif" font-size="10.00">GridMap::isBlocked</text>
</a>
</g>
</g>
<!-- Node1&#45;&gt;Node2 -->
<g id="edge1_Node000001_Node000002" class="edge">
<title>Node1&#45;&gt;Node2</title>
<g id="a_edge1_Node000001_Node000002"><a xlink:title=" ">
<path fill="none" stroke="#63b8ff" d="M84.09,-15.46C92.18,-16.63 100.85,-17.89 109.5,-19.14"/>
<polygon fill="#63b8ff" stroke="#63b8ff" points="109.2,-22.64 119.6,-20.61 110.2,-15.71 109.2,-22.64"/>
</a>
</g>
</g>
<!-- Node3 -->
<g id="Node000003" class="node">
<title>Node3</title>
<g id="a_Node000003"><a xlink:href="classGridMap.html#a94be64720a59d6f9f318867dd505078f" target="_top" xlink:title=" ">
<polygon fill="white" stroke="#666666" points="362,-19 266,-19 266,0 362,0 362,-19"/>
<text text-anchor="middle" x="314" y="-7" font-family="Helvetica,sans-Serif" font-size="10.00">GridMap::isValid</text>
</a>
</g>
</g>
<!-- Node1&#45;&gt;Node3 -->
<g id="edge3_Node000001_Node000003" class="edge">
<title>Node1&#45;&gt;Node3</title>
<g id="a_edge3_Node000001_Node000003"><a xlink:title=" ">
<path fill="none" stroke="#63b8ff" d="M84.01,-9.5C129.69,-9.5 203.88,-9.5 255.38,-9.5"/>
<polygon fill="#63b8ff" stroke="#63b8ff" points="255.69,-13 265.69,-9.5 255.69,-6 255.69,-13"/>
</a>
</g>
</g>
<!-- Node2&#45;&gt;Node3 -->
<g id="edge2_Node000002_Node000003" class="edge">
<title>Node2&#45;&gt;Node3</title>
<g id="a_edge2_Node000002_Node000003"><a xlink:title=" ">
<path fill="none" stroke="#63b8ff" d="M230.15,-20.99C238.55,-19.83 247.25,-18.62 255.72,-17.44"/>
<polygon fill="#63b8ff" stroke="#63b8ff" points="256.47,-20.87 265.89,-16.03 255.51,-13.94 256.47,-20.87"/>
</a>
</g>
</g>
</g>
</svg>
