<?xml version="1.0" encoding="UTF-8" standalone="no"?>
<!DOCTYPE svg PUBLIC "-//W3C//DTD SVG 1.1//EN"
 "http://www.w3.org/Graphics/SVG/1.1/DTD/svg11.dtd">
<!-- Generated by graphviz version 2.43.0 (0)
 -->
<!-- Title: include/dstar_lite.h Pages: 1 -->
<svg width="359pt" height="192pt"
 viewBox="0.00 0.00 359.48 192.00" xmlns="http://www.w3.org/2000/svg" xmlns:xlink="http://www.w3.org/1999/xlink">
<g id="graph0" class="graph" transform="scale(1 1) rotate(0) translate(4 188)">
<title>include/dstar_lite.h</title>
<!-- Node1 -->
<g id="Node000001" class="node">
<title>Node1</title>
<g id="a_Node000001"><a xlink:title=" ">
<polygon fill="#999999" stroke="#666666" points="214.98,-184 104.98,-184 104.98,-165 214.98,-165 214.98,-184"/>
<text text-anchor="middle" x="159.98" y="-172" font-family="Helvetica,sans-Serif" font-size="10.00">include/dstar_lite.h</text>
</a>
</g>
</g>
<!-- Node2 -->
<g id="Node000002" class="node">
<title>Node2</title>
<g id="a_Node000002"><a xlink:title=" ">
<polygon fill="#e0e0e0" stroke="#999999" points="62.98,-19 12.98,-19 12.98,0 62.98,0 62.98,-19"/>
<text text-anchor="middle" x="37.98" y="-7" font-family="Helvetica,sans-Serif" font-size="10.00">cstdint</text>
</a>
</g>
</g>
<!-- Node1&#45;&gt;Node2 -->
<g id="edge1_Node000001_Node000002" class="edge">
<title>Node1&#45;&gt;Node2</title>
<g id="a_edge1_Node000001_Node000002"><a xlink:title=" ">
<path fill="none" stroke="#63b8ff" d="M116.05,-164.99C91.09,-158.43 60.44,-147.29 37.98,-129 9.91,-106.14 -7.62,-89.29 3.98,-55 7.54,-44.47 14.7,-34.48 21.53,-26.63"/>
<polygon fill="#63b8ff" stroke="#63b8ff" points="24.11,-29.01 28.37,-19.31 18.99,-24.23 24.11,-29.01"/>
</a>
</g>
</g>
<!-- Node3 -->
<g id="Node000003" class="node">
<title>Node3</title>
<g id="a_Node000003"><a xlink:title=" ">
<polygon fill="#e0e0e0" stroke="#999999" points="168.98,-74 118.98,-74 118.98,-55 168.98,-55 168.98,-74"/>
<text text-anchor="middle" x="143.98" y="-62" font-family="Helvetica,sans-Serif" font-size="10.00">climits</text>
</a>
</g>
</g>
<!-- Node1&#45;&gt;Node3 -->
<g id="edge2_Node000001_Node000003" class="edge">
<title>Node1&#45;&gt;Node3</title>
<g id="a_edge2_Node000001_Node000003"><a xlink:title=" ">
<path fill="none" stroke="#63b8ff" d="M158.67,-164.66C156.08,-147.17 150.25,-107.8 146.76,-84.27"/>
<polygon fill="#63b8ff" stroke="#63b8ff" points="150.19,-83.54 145.26,-74.16 143.26,-84.56 150.19,-83.54"/>
</a>
</g>
</g>
<!-- Node4 -->
<g id="Node000004" class="node">
<title>Node4</title>
<g id="a_Node000004"><a xlink:title=" ">
<polygon fill="#e0e0e0" stroke="#999999" points="285.98,-129 225.98,-129 225.98,-110 285.98,-110 285.98,-129"/>
<text text-anchor="middle" x="255.98" y="-117" font-family="Helvetica,sans-Serif" font-size="10.00">iostream</text>
</a>
</g>
</g>
<!-- Node1&#45;&gt;Node4 -->
<g id="edge3_Node000001_Node000004" class="edge">
<title>Node1&#45;&gt;Node4</title>
<g id="a_edge3_Node000001_Node000004"><a xlink:title=" ">
<path fill="none" stroke="#63b8ff" d="M175.4,-164.98C190.43,-156.69 213.52,-143.94 231.14,-134.22"/>
<polygon fill="#63b8ff" stroke="#63b8ff" points="233.21,-137.07 240.27,-129.17 229.83,-130.94 233.21,-137.07"/>
</a>
</g>
</g>
<!-- Node5 -->
<g id="Node000005" class="node">
<title>Node5</title>
<g id="a_Node000005"><a xlink:title=" ">
<polygon fill="#e0e0e0" stroke="#999999" points="234.48,-74 187.48,-74 187.48,-55 234.48,-55 234.48,-74"/>
<text text-anchor="middle" x="210.98" y="-62" font-family="Helvetica,sans-Serif" font-size="10.00">vector</text>
</a>
</g>
</g>
<!-- Node1&#45;&gt;Node5 -->
<g id="edge4_Node000001_Node000005" class="edge">
<title>Node1&#45;&gt;Node5</title>
<g id="a_edge4_Node000001_Node000005"><a xlink:title=" ">
<path fill="none" stroke="#63b8ff" d="M164.15,-164.66C172.52,-146.93 191.51,-106.73 202.56,-83.32"/>
<polygon fill="#63b8ff" stroke="#63b8ff" points="205.78,-84.7 206.89,-74.16 199.45,-81.71 205.78,-84.7"/>
</a>
</g>
</g>
<!-- Node6 -->
<g id="Node000006" class="node">
<title>Node6</title>
<g id="a_Node000006"><a xlink:title=" ">
<polygon fill="#e0e0e0" stroke="#999999" points="351.48,-129 304.48,-129 304.48,-110 351.48,-110 351.48,-129"/>
<text text-anchor="middle" x="327.98" y="-117" font-family="Helvetica,sans-Serif" font-size="10.00">queue</text>
</a>
</g>
</g>
<!-- Node1&#45;&gt;Node6 -->
<g id="edge5_Node000001_Node000006" class="edge">
<title>Node1&#45;&gt;Node6</title>
<g id="a_edge5_Node000001_Node000006"><a xlink:title=" ">
<path fill="none" stroke="#63b8ff" d="M186.97,-164.98C216.26,-155.74 263.07,-140.98 294.64,-131.02"/>
<polygon fill="#63b8ff" stroke="#63b8ff" points="295.83,-134.31 304.31,-127.97 293.72,-127.64 295.83,-134.31"/>
</a>
</g>
</g>
<!-- Node7 -->
<g id="Node000007" class="node">
<title>Node7</title>
<g id="a_Node000007"><a xlink:href="state_8h.html" target="_top" xlink:title=" ">
<polygon fill="white" stroke="#666666" points="62.98,-74 12.98,-74 12.98,-55 62.98,-55 62.98,-74"/>
<text text-anchor="middle" x="37.98" y="-62" font-family="Helvetica,sans-Serif" font-size="10.00">state.h</text>
</a>
</g>
</g>
<!-- Node1&#45;&gt;Node7 -->
<g id="edge6_Node000001_Node000007" class="edge">
<title>Node1&#45;&gt;Node7</title>
<g id="a_edge6_Node000001_Node000007"><a xlink:title=" ">
<path fill="none" stroke="#63b8ff" d="M113.08,-164.99C91.15,-158.65 66.51,-147.72 50.98,-129 40.76,-116.69 37.88,-98.46 37.34,-84.69"/>
<polygon fill="#63b8ff" stroke="#63b8ff" points="40.84,-84.39 37.33,-74.4 33.84,-84.4 40.84,-84.39"/>
</a>
</g>
</g>
<!-- Node8 -->
<g id="Node000008" class="node">
<title>Node8</title>
<g id="a_Node000008"><a xlink:href="grid__map_8h.html" target="_top" xlink:title=" ">
<polygon fill="white" stroke="#666666" points="131.48,-129 60.48,-129 60.48,-110 131.48,-110 131.48,-129"/>
<text text-anchor="middle" x="95.98" y="-117" font-family="Helvetica,sans-Serif" font-size="10.00">grid_map.h</text>
</a>
</g>
</g>
<!-- Node1&#45;&gt;Node8 -->
<g id="edge8_Node000001_Node000008" class="edge">
<title>Node1&#45;&gt;Node8</title>
<g id="a_edge8_Node000001_Node000008"><a xlink:title=" ">
<path fill="none" stroke="#63b8ff" d="M149.7,-164.98C140.14,-157.07 125.7,-145.11 114.19,-135.58"/>
<polygon fill="#63b8ff" stroke="#63b8ff" points="116.38,-132.85 106.45,-129.17 111.92,-138.24 116.38,-132.85"/>
</a>
</g>
</g>
<!-- Node7&#45;&gt;Node2 -->
<g id="edge7_Node000007_Node000002" class="edge">
<title>Node7&#45;&gt;Node2</title>
<g id="a_edge7_Node000007_Node000002"><a xlink:title=" ">
<path fill="none" stroke="#63b8ff" d="M37.98,-54.75C37.98,-47.8 37.98,-37.85 37.98,-29.13"/>
<polygon fill="#63b8ff" stroke="#63b8ff" points="41.48,-29.09 37.98,-19.09 34.48,-29.09 41.48,-29.09"/>
</a>
</g>
</g>
<!-- Node8&#45;&gt;Node2 -->
<g id="edge9_Node000008_Node000002" class="edge">
<title>Node8&#45;&gt;Node2</title>
<g id="a_edge9_Node000008_Node000002"><a xlink:title=" ">
<path fill="none" stroke="#63b8ff" d="M93.61,-109.94C89.96,-97.41 82.28,-73.55 71.98,-55 66.5,-45.14 59.01,-35.07 52.44,-27.02"/>
<polygon fill="#63b8ff" stroke="#63b8ff" points="54.95,-24.56 45.83,-19.17 49.6,-29.07 54.95,-24.56"/>
</a>
</g>
</g>
<!-- Node8&#45;&gt;Node3 -->
<g id="edge10_Node000008_Node000003" class="edge">
<title>Node8&#45;&gt;Node3</title>
<g id="a_edge10_Node000008_Node000003"><a xlink:title=" ">
<path fill="none" stroke="#63b8ff" d="M103.9,-109.75C110.82,-102.11 121.04,-90.82 129.43,-81.56"/>
<polygon fill="#63b8ff" stroke="#63b8ff" points="132.08,-83.85 136.2,-74.09 126.89,-79.15 132.08,-83.85"/>
</a>
</g>
</g>
<!-- Node8&#45;&gt;Node5 -->
<g id="edge11_Node000008_Node000005" class="edge">
<title>Node8&#45;&gt;Node5</title>
<g id="a_edge11_Node000008_Node000005"><a xlink:title=" ">
<path fill="none" stroke="#63b8ff" d="M114.46,-109.98C132.96,-101.46 161.66,-88.23 182.96,-78.41"/>
<polygon fill="#63b8ff" stroke="#63b8ff" points="184.55,-81.53 192.17,-74.17 181.62,-75.18 184.55,-81.53"/>
</a>
</g>
</g>
<!-- Node8&#45;&gt;Node7 -->
<g id="edge12_Node000008_Node000007" class="edge">
<title>Node8&#45;&gt;Node7</title>
<g id="a_edge12_Node000008_Node000007"><a xlink:title=" ">
<path fill="none" stroke="#63b8ff" d="M86.66,-109.98C78.17,-102.23 65.42,-90.58 55.1,-81.14"/>
<polygon fill="#63b8ff" stroke="#63b8ff" points="57.21,-78.33 47.47,-74.17 52.49,-83.5 57.21,-78.33"/>
</a>
</g>
</g>
</g>
</svg>
