<?xml version="1.0" encoding="UTF-8" standalone="no"?>
<!DOCTYPE svg PUBLIC "-//W3C//DTD SVG 1.1//EN"
 "http://www.w3.org/Graphics/SVG/1.1/DTD/svg11.dtd">
<!-- Generated by graphviz version 2.43.0 (0)
 -->
<!-- Title: include/grid_map.h Pages: 1 -->
<svg width="236pt" height="137pt"
 viewBox="0.00 0.00 236.00 137.00" xmlns="http://www.w3.org/2000/svg" xmlns:xlink="http://www.w3.org/1999/xlink">
<g id="graph0" class="graph" transform="scale(1 1) rotate(0) translate(4 133)">
<title>include/grid_map.h</title>
<!-- Node1 -->
<g id="Node000001" class="node">
<title>Node1</title>
<g id="a_Node000001"><a xlink:title=" ">
<polygon fill="#999999" stroke="#666666" points="171,-129 61,-129 61,-110 171,-110 171,-129"/>
<text text-anchor="middle" x="116" y="-117" font-family="Helvetica,sans-Serif" font-size="10.00">include/grid_map.h</text>
</a>
</g>
</g>
<!-- Node2 -->
<g id="Node000002" class="node">
<title>Node2</title>
<g id="a_Node000002"><a xlink:href="dstar__lite_8h.html" target="_top" xlink:title=" ">
<polygon fill="white" stroke="#666666" points="110,-74 0,-74 0,-55 110,-55 110,-74"/>
<text text-anchor="middle" x="55" y="-62" font-family="Helvetica,sans-Serif" font-size="10.00">include/dstar_lite.h</text>
</a>
</g>
</g>
<!-- Node1&#45;&gt;Node2 -->
<g id="edge1_Node000001_Node000002" class="edge">
<title>Node1&#45;&gt;Node2</title>
<g id="a_edge1_Node000001_Node000002"><a xlink:title=" ">
<path fill="none" stroke="#63b8ff" d="M98.53,-103.32C87.66,-93.87 74.06,-82.06 64.98,-74.17"/>
<polygon fill="#63b8ff" stroke="#63b8ff" points="96.35,-106.07 106.2,-109.98 100.95,-100.78 96.35,-106.07"/>
</a>
</g>
</g>
<!-- Node4 -->
<g id="Node000004" class="node">
<title>Node4</title>
<g id="a_Node000004"><a xlink:href="grid__map_8cpp.html" target="_top" xlink:title=" ">
<polygon fill="white" stroke="#666666" points="228,-74 128,-74 128,-55 228,-55 228,-74"/>
<text text-anchor="middle" x="178" y="-62" font-family="Helvetica,sans-Serif" font-size="10.00">src/grid_map.cpp</text>
</a>
</g>
</g>
<!-- Node1&#45;&gt;Node4 -->
<g id="edge3_Node000001_Node000004" class="edge">
<title>Node1&#45;&gt;Node4</title>
<g id="a_edge3_Node000001_Node000004"><a xlink:title=" ">
<path fill="none" stroke="#63b8ff" d="M133.75,-103.32C144.81,-93.87 158.63,-82.06 167.86,-74.17"/>
<polygon fill="#63b8ff" stroke="#63b8ff" points="131.29,-100.83 125.96,-109.98 135.84,-106.15 131.29,-100.83"/>
</a>
</g>
</g>
<!-- Node3 -->
<g id="Node000003" class="node">
<title>Node3</title>
<g id="a_Node000003"><a xlink:href="dstar__lite_8cpp.html" target="_top" xlink:title=" ">
<polygon fill="white" stroke="#666666" points="105,-19 5,-19 5,0 105,0 105,-19"/>
<text text-anchor="middle" x="55" y="-7" font-family="Helvetica,sans-Serif" font-size="10.00">src/dstar_lite.cpp</text>
</a>
</g>
</g>
<!-- Node2&#45;&gt;Node3 -->
<g id="edge2_Node000002_Node000003" class="edge">
<title>Node2&#45;&gt;Node3</title>
<g id="a_edge2_Node000002_Node000003"><a xlink:title=" ">
<path fill="none" stroke="#63b8ff" d="M55,-44.66C55,-35.93 55,-25.99 55,-19.09"/>
<polygon fill="#63b8ff" stroke="#63b8ff" points="51.5,-44.75 55,-54.75 58.5,-44.75 51.5,-44.75"/>
</a>
</g>
</g>
</g>
</svg>
