<?xml version="1.0" encoding="UTF-8" standalone="no"?>
<!DOCTYPE svg PUBLIC "-//W3C//DTD SVG 1.1//EN"
 "http://www.w3.org/Graphics/SVG/1.1/DTD/svg11.dtd">
<!-- Generated by graphviz version 2.43.0 (0)
 -->
<!-- Title: include/grid_map.h Pages: 1 -->
<svg width="204pt" height="137pt"
 viewBox="0.00 0.00 204.23 137.00" xmlns="http://www.w3.org/2000/svg" xmlns:xlink="http://www.w3.org/1999/xlink">
<g id="graph0" class="graph" transform="scale(1 1) rotate(0) translate(4 133)">
<title>include/grid_map.h</title>
<!-- Node1 -->
<g id="Node000001" class="node">
<title>Node1</title>
<g id="a_Node000001"><a xlink:title=" ">
<polygon fill="#999999" stroke="#666666" points="125.23,-129 15.23,-129 15.23,-110 125.23,-110 125.23,-129"/>
<text text-anchor="middle" x="70.23" y="-117" font-family="Helvetica,sans-Serif" font-size="10.00">include/grid_map.h</text>
</a>
</g>
</g>
<!-- Node2 -->
<g id="Node000002" class="node">
<title>Node2</title>
<g id="a_Node000002"><a xlink:title=" ">
<polygon fill="#e0e0e0" stroke="#999999" points="102.23,-19 52.23,-19 52.23,0 102.23,0 102.23,-19"/>
<text text-anchor="middle" x="77.23" y="-7" font-family="Helvetica,sans-Serif" font-size="10.00">cstdint</text>
</a>
</g>
</g>
<!-- Node1&#45;&gt;Node2 -->
<g id="edge1_Node000001_Node000002" class="edge">
<title>Node1&#45;&gt;Node2</title>
<g id="a_edge1_Node000001_Node000002"><a xlink:title=" ">
<path fill="none" stroke="#63b8ff" d="M48.08,-109.85C23.76,-98.94 -10.18,-78.71 3.23,-55 11.76,-39.91 27.69,-29.37 42.59,-22.35"/>
<polygon fill="#63b8ff" stroke="#63b8ff" points="44.35,-25.4 52.15,-18.23 41.58,-18.98 44.35,-25.4"/>
</a>
</g>
</g>
<!-- Node3 -->
<g id="Node000003" class="node">
<title>Node3</title>
<g id="a_Node000003"><a xlink:title=" ">
<polygon fill="#e0e0e0" stroke="#999999" points="62.23,-74 12.23,-74 12.23,-55 62.23,-55 62.23,-74"/>
<text text-anchor="middle" x="37.23" y="-62" font-family="Helvetica,sans-Serif" font-size="10.00">climits</text>
</a>
</g>
</g>
<!-- Node1&#45;&gt;Node3 -->
<g id="edge2_Node000001_Node000003" class="edge">
<title>Node1&#45;&gt;Node3</title>
<g id="a_edge2_Node000001_Node000003"><a xlink:title=" ">
<path fill="none" stroke="#63b8ff" d="M64.78,-109.75C60.21,-102.42 53.56,-91.73 47.94,-82.7"/>
<polygon fill="#63b8ff" stroke="#63b8ff" points="50.83,-80.73 42.58,-74.09 44.89,-84.43 50.83,-80.73"/>
</a>
</g>
</g>
<!-- Node4 -->
<g id="Node000004" class="node">
<title>Node4</title>
<g id="a_Node000004"><a xlink:title=" ">
<polygon fill="#e0e0e0" stroke="#999999" points="127.73,-74 80.73,-74 80.73,-55 127.73,-55 127.73,-74"/>
<text text-anchor="middle" x="104.23" y="-62" font-family="Helvetica,sans-Serif" font-size="10.00">vector</text>
</a>
</g>
</g>
<!-- Node1&#45;&gt;Node4 -->
<g id="edge3_Node000001_Node000004" class="edge">
<title>Node1&#45;&gt;Node4</title>
<g id="a_edge3_Node000001_Node000004"><a xlink:title=" ">
<path fill="none" stroke="#63b8ff" d="M75.84,-109.75C80.55,-102.42 87.4,-91.73 93.2,-82.7"/>
<polygon fill="#63b8ff" stroke="#63b8ff" points="96.26,-84.4 98.72,-74.09 90.37,-80.62 96.26,-84.4"/>
</a>
</g>
</g>
<!-- Node5 -->
<g id="Node000005" class="node">
<title>Node5</title>
<g id="a_Node000005"><a xlink:href="state_8h.html" target="_top" xlink:title=" ">
<polygon fill="white" stroke="#666666" points="196.23,-74 146.23,-74 146.23,-55 196.23,-55 196.23,-74"/>
<text text-anchor="middle" x="171.23" y="-62" font-family="Helvetica,sans-Serif" font-size="10.00">state.h</text>
</a>
</g>
</g>
<!-- Node1&#45;&gt;Node5 -->
<g id="edge4_Node000001_Node000005" class="edge">
<title>Node1&#45;&gt;Node5</title>
<g id="a_edge4_Node000001_Node000005"><a xlink:title=" ">
<path fill="none" stroke="#63b8ff" d="M86.46,-109.98C102.41,-101.61 127.01,-88.7 145.61,-78.95"/>
<polygon fill="#63b8ff" stroke="#63b8ff" points="147.48,-81.92 154.71,-74.17 144.22,-75.72 147.48,-81.92"/>
</a>
</g>
</g>
<!-- Node5&#45;&gt;Node2 -->
<g id="edge5_Node000005_Node000002" class="edge">
<title>Node5&#45;&gt;Node2</title>
<g id="a_edge5_Node000005_Node000002"><a xlink:title=" ">
<path fill="none" stroke="#63b8ff" d="M156.13,-54.98C141.41,-46.69 118.8,-33.94 101.55,-24.22"/>
<polygon fill="#63b8ff" stroke="#63b8ff" points="103.04,-21.03 92.61,-19.17 99.6,-27.13 103.04,-21.03"/>
</a>
</g>
</g>
</g>
</svg>
