<?xml version="1.0" encoding="UTF-8" standalone="no"?>
<!DOCTYPE svg PUBLIC "-//W3C//DTD SVG 1.1//EN"
 "http://www.w3.org/Graphics/SVG/1.1/DTD/svg11.dtd">
<!-- Generated by graphviz version 2.43.0 (0)
 -->
<!-- Title: src/grid_map.cpp Pages: 1 -->
<svg width="237pt" height="192pt"
 viewBox="0.00 0.00 236.50 192.00" xmlns="http://www.w3.org/2000/svg" xmlns:xlink="http://www.w3.org/1999/xlink">
<g id="graph0" class="graph" transform="scale(1 1) rotate(0) translate(4 188)">
<title>src/grid_map.cpp</title>
<!-- Node1 -->
<g id="Node000001" class="node">
<title>Node1</title>
<g id="a_Node000001"><a xlink:title=" ">
<polygon fill="#999999" stroke="#666666" points="113.5,-184 13.5,-184 13.5,-165 113.5,-165 113.5,-184"/>
<text text-anchor="middle" x="63.5" y="-172" font-family="Helvetica,sans-Serif" font-size="10.00">src/grid_map.cpp</text>
</a>
</g>
</g>
<!-- Node2 -->
<g id="Node000002" class="node">
<title>Node2</title>
<g id="a_Node000002"><a xlink:title=" ">
<polygon fill="#e0e0e0" stroke="#999999" points="49,-129 0,-129 0,-110 49,-110 49,-129"/>
<text text-anchor="middle" x="24.5" y="-117" font-family="Helvetica,sans-Serif" font-size="10.00">cstdlib</text>
</a>
</g>
</g>
<!-- Node1&#45;&gt;Node2 -->
<g id="edge1_Node000001_Node000002" class="edge">
<title>Node1&#45;&gt;Node2</title>
<g id="a_edge1_Node000001_Node000002"><a xlink:title=" ">
<path fill="none" stroke="#63b8ff" d="M57.06,-164.75C51.61,-157.34 43.64,-146.5 36.94,-137.41"/>
<polygon fill="#63b8ff" stroke="#63b8ff" points="39.57,-135.07 30.82,-129.09 33.93,-139.22 39.57,-135.07"/>
</a>
</g>
</g>
<!-- Node3 -->
<g id="Node000003" class="node">
<title>Node3</title>
<g id="a_Node000003"><a xlink:href="grid__map_8h.html" target="_top" xlink:title=" ">
<polygon fill="white" stroke="#666666" points="138,-129 67,-129 67,-110 138,-110 138,-129"/>
<text text-anchor="middle" x="102.5" y="-117" font-family="Helvetica,sans-Serif" font-size="10.00">grid_map.h</text>
</a>
</g>
</g>
<!-- Node1&#45;&gt;Node3 -->
<g id="edge2_Node000001_Node000003" class="edge">
<title>Node1&#45;&gt;Node3</title>
<g id="a_edge2_Node000001_Node000003"><a xlink:title=" ">
<path fill="none" stroke="#63b8ff" d="M69.94,-164.75C75.39,-157.34 83.36,-146.5 90.06,-137.41"/>
<polygon fill="#63b8ff" stroke="#63b8ff" points="93.07,-139.22 96.18,-129.09 87.43,-135.07 93.07,-139.22"/>
</a>
</g>
</g>
<!-- Node4 -->
<g id="Node000004" class="node">
<title>Node4</title>
<g id="a_Node000004"><a xlink:title=" ">
<polygon fill="#e0e0e0" stroke="#999999" points="134.5,-19 84.5,-19 84.5,0 134.5,0 134.5,-19"/>
<text text-anchor="middle" x="109.5" y="-7" font-family="Helvetica,sans-Serif" font-size="10.00">cstdint</text>
</a>
</g>
</g>
<!-- Node3&#45;&gt;Node4 -->
<g id="edge3_Node000003_Node000004" class="edge">
<title>Node3&#45;&gt;Node4</title>
<g id="a_edge3_Node000003_Node000004"><a xlink:title=" ">
<path fill="none" stroke="#63b8ff" d="M80.36,-109.85C56.03,-98.94 22.09,-78.71 35.5,-55 44.04,-39.91 59.96,-29.37 74.86,-22.35"/>
<polygon fill="#63b8ff" stroke="#63b8ff" points="76.62,-25.4 84.42,-18.23 73.85,-18.98 76.62,-25.4"/>
</a>
</g>
</g>
<!-- Node5 -->
<g id="Node000005" class="node">
<title>Node5</title>
<g id="a_Node000005"><a xlink:title=" ">
<polygon fill="#e0e0e0" stroke="#999999" points="94.5,-74 44.5,-74 44.5,-55 94.5,-55 94.5,-74"/>
<text text-anchor="middle" x="69.5" y="-62" font-family="Helvetica,sans-Serif" font-size="10.00">climits</text>
</a>
</g>
</g>
<!-- Node3&#45;&gt;Node5 -->
<g id="edge4_Node000003_Node000005" class="edge">
<title>Node3&#45;&gt;Node5</title>
<g id="a_edge4_Node000003_Node000005"><a xlink:title=" ">
<path fill="none" stroke="#63b8ff" d="M97.05,-109.75C92.49,-102.42 85.83,-91.73 80.21,-82.7"/>
<polygon fill="#63b8ff" stroke="#63b8ff" points="83.1,-80.73 74.85,-74.09 77.16,-84.43 83.1,-80.73"/>
</a>
</g>
</g>
<!-- Node6 -->
<g id="Node000006" class="node">
<title>Node6</title>
<g id="a_Node000006"><a xlink:title=" ">
<polygon fill="#e0e0e0" stroke="#999999" points="160,-74 113,-74 113,-55 160,-55 160,-74"/>
<text text-anchor="middle" x="136.5" y="-62" font-family="Helvetica,sans-Serif" font-size="10.00">vector</text>
</a>
</g>
</g>
<!-- Node3&#45;&gt;Node6 -->
<g id="edge5_Node000003_Node000006" class="edge">
<title>Node3&#45;&gt;Node6</title>
<g id="a_edge5_Node000003_Node000006"><a xlink:title=" ">
<path fill="none" stroke="#63b8ff" d="M108.11,-109.75C112.82,-102.42 119.67,-91.73 125.47,-82.7"/>
<polygon fill="#63b8ff" stroke="#63b8ff" points="128.54,-84.4 130.99,-74.09 122.64,-80.62 128.54,-84.4"/>
</a>
</g>
</g>
<!-- Node7 -->
<g id="Node000007" class="node">
<title>Node7</title>
<g id="a_Node000007"><a xlink:href="state_8h.html" target="_top" xlink:title=" ">
<polygon fill="white" stroke="#666666" points="228.5,-74 178.5,-74 178.5,-55 228.5,-55 228.5,-74"/>
<text text-anchor="middle" x="203.5" y="-62" font-family="Helvetica,sans-Serif" font-size="10.00">state.h</text>
</a>
</g>
</g>
<!-- Node3&#45;&gt;Node7 -->
<g id="edge6_Node000003_Node000007" class="edge">
<title>Node3&#45;&gt;Node7</title>
<g id="a_edge6_Node000003_Node000007"><a xlink:title=" ">
<path fill="none" stroke="#63b8ff" d="M118.73,-109.98C134.68,-101.61 159.28,-88.7 177.88,-78.95"/>
<polygon fill="#63b8ff" stroke="#63b8ff" points="179.75,-81.92 186.98,-74.17 176.5,-75.72 179.75,-81.92"/>
</a>
</g>
</g>
<!-- Node7&#45;&gt;Node4 -->
<g id="edge7_Node000007_Node000004" class="edge">
<title>Node7&#45;&gt;Node4</title>
<g id="a_edge7_Node000007_Node000004"><a xlink:title=" ">
<path fill="none" stroke="#63b8ff" d="M188.4,-54.98C173.68,-46.69 151.08,-33.94 133.83,-24.22"/>
<polygon fill="#63b8ff" stroke="#63b8ff" points="135.31,-21.03 124.88,-19.17 131.87,-27.13 135.31,-21.03"/>
</a>
</g>
</g>
</g>
</svg>
