<?xml version="1.0" encoding="UTF-8" standalone="no"?>
<!DOCTYPE svg PUBLIC "-//W3C//DTD SVG 1.1//EN"
 "http://www.w3.org/Graphics/SVG/1.1/DTD/svg11.dtd">
<!-- Generated by graphviz version 2.43.0 (0)
 -->
<!-- Title: printStatus Pages: 1 -->
<svg width="221pt" height="66pt"
 viewBox="0.00 0.00 221.00 66.00" xmlns="http://www.w3.org/2000/svg" xmlns:xlink="http://www.w3.org/1999/xlink">
<g id="graph0" class="graph" transform="scale(1 1) rotate(0) translate(4 62)">
<title>printStatus</title>
<polygon fill="white" stroke="transparent" points="-4,4 -4,-62 217,-62 217,4 -4,4"/>
<!-- Node1 -->
<g id="node1" class="node">
<title>Node1</title>
<g id="a_node1"><a xlink:title=" ">
<polygon fill="#bfbfbf" stroke="black" points="0,-19.5 0,-38.5 70,-38.5 70,-19.5 0,-19.5"/>
<text text-anchor="middle" x="35" y="-26.5" font-family="Helvetica,sans-Serif" font-size="10.00">printStatus</text>
</a>
</g>
</g>
<!-- Node2 -->
<g id="node2" class="node">
<title>Node2</title>
<g id="a_node2"><a xlink:href="classDStarLite.html#a1ccb2960d999214d970f9e5f633acc02" target="_top" xlink:title="Get the Path of states.">
<polygon fill="white" stroke="black" points="107.5,-38.5 107.5,-57.5 211.5,-57.5 211.5,-38.5 107.5,-38.5"/>
<text text-anchor="middle" x="159.5" y="-45.5" font-family="Helvetica,sans-Serif" font-size="10.00">DStarLite::getPath</text>
</a>
</g>
</g>
<!-- Node1&#45;&gt;Node2 -->
<g id="edge1" class="edge">
<title>Node1&#45;&gt;Node2</title>
<path fill="none" stroke="midnightblue" d="M70.12,-34.29C78.55,-35.6 87.83,-37.04 97.11,-38.48"/>
<polygon fill="midnightblue" stroke="midnightblue" points="96.73,-41.96 107.15,-40.03 97.8,-35.04 96.73,-41.96"/>
</g>
<!-- Node3 -->
<g id="node3" class="node">
<title>Node3</title>
<g id="a_node3"><a xlink:href="classDStarLite.html#a02ab86942aaf38e3ce1dbac2209965be" target="_top" xlink:title="Get the Start object.">
<polygon fill="white" stroke="black" points="106,-0.5 106,-19.5 213,-19.5 213,-0.5 106,-0.5"/>
<text text-anchor="middle" x="159.5" y="-7.5" font-family="Helvetica,sans-Serif" font-size="10.00">DStarLite::getStart</text>
</a>
</g>
</g>
<!-- Node1&#45;&gt;Node3 -->
<g id="edge2" class="edge">
<title>Node1&#45;&gt;Node3</title>
<path fill="none" stroke="midnightblue" d="M70.12,-23.71C78.15,-22.46 86.95,-21.1 95.79,-19.73"/>
<polygon fill="midnightblue" stroke="midnightblue" points="96.41,-23.17 105.75,-18.18 95.34,-16.26 96.41,-23.17"/>
</g>
</g>
</svg>
