<?xml version="1.0" encoding="UTF-8" standalone="no"?>
<!DOCTYPE svg PUBLIC "-//W3C//DTD SVG 1.1//EN"
 "http://www.w3.org/Graphics/SVG/1.1/DTD/svg11.dtd">
<!-- Generated by graphviz version 2.43.0 (0)
 -->
<!-- Title: main Pages: 1 -->
<svg width="507pt" height="334pt"
 viewBox="0.00 0.00 507.00 334.28" xmlns="http://www.w3.org/2000/svg" xmlns:xlink="http://www.w3.org/1999/xlink">
<g id="graph0" class="graph" transform="scale(1 1) rotate(0) translate(4 330.28)">
<title>main</title>
<polygon fill="white" stroke="transparent" points="-4,4 -4,-330.28 503,-330.28 503,4 -4,4"/>
<!-- Node1 -->
<g id="node1" class="node">
<title>Node1</title>
<g id="a_node1"><a xlink:title=" ">
<polygon fill="#bfbfbf" stroke="black" points="0,-171.5 0,-190.5 41,-190.5 41,-171.5 0,-171.5"/>
<text text-anchor="middle" x="20.5" y="-178.5" font-family="Helvetica,sans-Serif" font-size="10.00">main</text>
</a>
</g>
</g>
<!-- Node2 -->
<g id="node2" class="node">
<title>Node2</title>
<g id="a_node2"><a xlink:href="classDStarLite.html#a1ccb2960d999214d970f9e5f633acc02" target="_top" xlink:title="Get the Path of states.">
<polygon fill="white" stroke="black" points="250.5,-304.5 250.5,-323.5 354.5,-323.5 354.5,-304.5 250.5,-304.5"/>
<text text-anchor="middle" x="302.5" y="-311.5" font-family="Helvetica,sans-Serif" font-size="10.00">DStarLite::getPath</text>
</a>
</g>
</g>
<!-- Node1&#45;&gt;Node2 -->
<g id="edge1" class="edge">
<title>Node1&#45;&gt;Node2</title>
<path fill="none" stroke="midnightblue" d="M22.97,-190.72C26.97,-213.41 40.33,-269.85 77,-295 124.58,-327.63 191.87,-328.97 240.35,-324.24"/>
<polygon fill="midnightblue" stroke="midnightblue" points="240.84,-327.7 250.4,-323.14 240.08,-320.75 240.84,-327.7"/>
</g>
<!-- Node3 -->
<g id="node3" class="node">
<title>Node3</title>
<g id="a_node3"><a xlink:href="classDStarLite.html#ac3432bde7f63e2006d75b7c577c6e906" target="_top" xlink:title="the main planning and replanning loop.">
<polygon fill="white" stroke="black" points="95,-152.5 95,-171.5 184,-171.5 184,-152.5 95,-152.5"/>
<text text-anchor="middle" x="139.5" y="-159.5" font-family="Helvetica,sans-Serif" font-size="10.00">DStarLite::plan</text>
</a>
</g>
</g>
<!-- Node1&#45;&gt;Node3 -->
<g id="edge2" class="edge">
<title>Node1&#45;&gt;Node3</title>
<path fill="none" stroke="midnightblue" d="M41.08,-177.82C53.04,-175.88 68.96,-173.29 84.46,-170.78"/>
<polygon fill="midnightblue" stroke="midnightblue" points="85.23,-174.2 94.54,-169.14 84.11,-167.29 85.23,-174.2"/>
</g>
<!-- Node6 -->
<g id="node6" class="node">
<title>Node6</title>
<g id="a_node6"><a xlink:href="stress__test_8cpp.html#adf91b143cf1e082c442956c6feb1c34e" target="_top" xlink:title=" ">
<polygon fill="white" stroke="black" points="104.5,-266.5 104.5,-285.5 174.5,-285.5 174.5,-266.5 104.5,-266.5"/>
<text text-anchor="middle" x="139.5" y="-273.5" font-family="Helvetica,sans-Serif" font-size="10.00">printStatus</text>
</a>
</g>
</g>
<!-- Node1&#45;&gt;Node6 -->
<g id="edge6" class="edge">
<title>Node1&#45;&gt;Node6</title>
<path fill="none" stroke="midnightblue" d="M26,-190.72C33.98,-206.88 52.13,-239.25 77,-257 82.31,-260.79 88.4,-263.84 94.64,-266.29"/>
<polygon fill="midnightblue" stroke="midnightblue" points="93.87,-269.73 104.47,-269.67 96.15,-263.11 93.87,-269.73"/>
</g>
<!-- Node8 -->
<g id="node8" class="node">
<title>Node8</title>
<g id="a_node8"><a xlink:href="classDStarLite.html#a130291392b0ae83ab59d75cd52404cb2" target="_top" xlink:title=" ">
<polygon fill="white" stroke="black" points="90.5,-228.5 90.5,-247.5 188.5,-247.5 188.5,-228.5 90.5,-228.5"/>
<text text-anchor="middle" x="139.5" y="-235.5" font-family="Helvetica,sans-Serif" font-size="10.00">DStarLite::replan</text>
</a>
</g>
</g>
<!-- Node1&#45;&gt;Node8 -->
<g id="edge9" class="edge">
<title>Node1&#45;&gt;Node8</title>
<path fill="none" stroke="midnightblue" d="M33.2,-190.57C44.01,-199.02 60.81,-211.18 77,-219 81.6,-221.22 86.52,-223.26 91.49,-225.1"/>
<polygon fill="midnightblue" stroke="midnightblue" points="90.47,-228.45 101.06,-228.4 92.75,-221.83 90.47,-228.45"/>
</g>
<!-- Node10 -->
<g id="node10" class="node">
<title>Node10</title>
<g id="a_node10"><a xlink:href="classDStarLite.html#a1825e09a2f70a6789fee288367f4bd91" target="_top" xlink:title=" ">
<polygon fill="white" stroke="black" points="79,-114.5 79,-133.5 200,-133.5 200,-114.5 79,-114.5"/>
<text text-anchor="middle" x="139.5" y="-121.5" font-family="Helvetica,sans-Serif" font-size="10.00">DStarLite::setBlocked</text>
</a>
</g>
</g>
<!-- Node1&#45;&gt;Node10 -->
<g id="edge12" class="edge">
<title>Node1&#45;&gt;Node10</title>
<path fill="none" stroke="midnightblue" d="M33.2,-171.43C44.01,-162.98 60.81,-150.82 77,-143 81.6,-140.78 86.52,-138.74 91.49,-136.9"/>
<polygon fill="midnightblue" stroke="midnightblue" points="92.75,-140.17 101.06,-133.6 90.47,-133.55 92.75,-140.17"/>
</g>
<!-- Node13 -->
<g id="node13" class="node">
<title>Node13</title>
<g id="a_node13"><a xlink:href="classDStarLite.html#a22390594fcf1049bd1edbec41970d6a6" target="_top" xlink:title="Set the Goal object.">
<polygon fill="white" stroke="black" points="87,-76.5 87,-95.5 192,-95.5 192,-76.5 87,-76.5"/>
<text text-anchor="middle" x="139.5" y="-83.5" font-family="Helvetica,sans-Serif" font-size="10.00">DStarLite::setGoal</text>
</a>
</g>
</g>
<!-- Node1&#45;&gt;Node13 -->
<g id="edge19" class="edge">
<title>Node1&#45;&gt;Node13</title>
<path fill="none" stroke="midnightblue" d="M26,-171.28C33.98,-155.12 52.13,-122.75 77,-105 79.81,-102.99 82.85,-101.19 86,-99.58"/>
<polygon fill="midnightblue" stroke="midnightblue" points="87.44,-102.77 95.15,-95.51 84.59,-96.38 87.44,-102.77"/>
</g>
<!-- Node14 -->
<g id="node14" class="node">
<title>Node14</title>
<g id="a_node14"><a xlink:href="classDStarLite.html#a9f5447e35fb140cab58cc264317423b2" target="_top" xlink:title="Set the Start object.">
<polygon fill="white" stroke="black" points="86.5,-38.5 86.5,-57.5 192.5,-57.5 192.5,-38.5 86.5,-38.5"/>
<text text-anchor="middle" x="139.5" y="-45.5" font-family="Helvetica,sans-Serif" font-size="10.00">DStarLite::setStart</text>
</a>
</g>
</g>
<!-- Node1&#45;&gt;Node14 -->
<g id="edge20" class="edge">
<title>Node1&#45;&gt;Node14</title>
<path fill="none" stroke="midnightblue" d="M23.43,-171.46C28.35,-149.65 43.41,-95.8 77,-67 78.97,-65.31 81.08,-63.78 83.3,-62.38"/>
<polygon fill="midnightblue" stroke="midnightblue" points="85.09,-65.39 92.3,-57.62 81.82,-59.2 85.09,-65.39"/>
</g>
<!-- Node15 -->
<g id="node15" class="node">
<title>Node15</title>
<g id="a_node15"><a xlink:href="classDStarLite.html#adaf418deeadbe5c78a8c05efd7813791" target="_top" xlink:title=" ">
<polygon fill="white" stroke="black" points="77,-190.5 77,-209.5 202,-209.5 202,-190.5 77,-190.5"/>
<text text-anchor="middle" x="139.5" y="-197.5" font-family="Helvetica,sans-Serif" font-size="10.00">DStarLite::updateStart</text>
</a>
</g>
</g>
<!-- Node1&#45;&gt;Node15 -->
<g id="edge21" class="edge">
<title>Node1&#45;&gt;Node15</title>
<path fill="none" stroke="midnightblue" d="M41.08,-184.18C49.27,-185.51 59.31,-187.14 69.8,-188.84"/>
<polygon fill="midnightblue" stroke="midnightblue" points="69.53,-192.34 79.96,-190.49 70.65,-185.44 69.53,-192.34"/>
</g>
<!-- Node4 -->
<g id="node4" class="node">
<title>Node4</title>
<g id="a_node4"><a xlink:href="classGridMap.html#a8335a7a2f80765040a94addef8360349" target="_top" xlink:title=" ">
<polygon fill="white" stroke="black" points="247.5,-114.5 247.5,-133.5 357.5,-133.5 357.5,-114.5 247.5,-114.5"/>
<text text-anchor="middle" x="302.5" y="-121.5" font-family="Helvetica,sans-Serif" font-size="10.00">GridMap::isBlocked</text>
</a>
</g>
</g>
<!-- Node3&#45;&gt;Node4 -->
<g id="edge3" class="edge">
<title>Node3&#45;&gt;Node4</title>
<path fill="none" stroke="midnightblue" d="M181.13,-152.41C202.47,-147.37 228.81,-141.16 251.41,-135.82"/>
<polygon fill="midnightblue" stroke="midnightblue" points="252.24,-139.22 261.17,-133.52 250.63,-132.41 252.24,-139.22"/>
</g>
<!-- Node5 -->
<g id="node5" class="node">
<title>Node5</title>
<g id="a_node5"><a xlink:href="classGridMap.html#a94be64720a59d6f9f318867dd505078f" target="_top" xlink:title=" ">
<polygon fill="white" stroke="black" points="403,-114.5 403,-133.5 499,-133.5 499,-114.5 403,-114.5"/>
<text text-anchor="middle" x="451" y="-121.5" font-family="Helvetica,sans-Serif" font-size="10.00">GridMap::isValid</text>
</a>
</g>
</g>
<!-- Node3&#45;&gt;Node5 -->
<g id="edge5" class="edge">
<title>Node3&#45;&gt;Node5</title>
<path fill="none" stroke="midnightblue" d="M184.14,-160.17C229.91,-157.83 303.83,-152.83 367,-143 378.86,-141.15 391.55,-138.57 403.35,-135.9"/>
<polygon fill="midnightblue" stroke="midnightblue" points="404.5,-139.22 413.44,-133.54 402.91,-132.4 404.5,-139.22"/>
</g>
<!-- Node4&#45;&gt;Node5 -->
<g id="edge4" class="edge">
<title>Node4&#45;&gt;Node5</title>
<path fill="none" stroke="midnightblue" d="M357.63,-124C369.11,-124 381.25,-124 392.84,-124"/>
<polygon fill="midnightblue" stroke="midnightblue" points="392.84,-127.5 402.84,-124 392.84,-120.5 392.84,-127.5"/>
</g>
<!-- Node6&#45;&gt;Node2 -->
<g id="edge7" class="edge">
<title>Node6&#45;&gt;Node2</title>
<path fill="none" stroke="midnightblue" d="M174.64,-284.06C196.87,-289.31 226.26,-296.24 251.14,-302.11"/>
<polygon fill="midnightblue" stroke="midnightblue" points="250.61,-305.58 261.15,-304.48 252.22,-298.77 250.61,-305.58"/>
</g>
<!-- Node7 -->
<g id="node7" class="node">
<title>Node7</title>
<g id="a_node7"><a xlink:href="classDStarLite.html#a02ab86942aaf38e3ce1dbac2209965be" target="_top" xlink:title="Get the Start object.">
<polygon fill="white" stroke="black" points="249,-266.5 249,-285.5 356,-285.5 356,-266.5 249,-266.5"/>
<text text-anchor="middle" x="302.5" y="-273.5" font-family="Helvetica,sans-Serif" font-size="10.00">DStarLite::getStart</text>
</a>
</g>
</g>
<!-- Node6&#45;&gt;Node7 -->
<g id="edge8" class="edge">
<title>Node6&#45;&gt;Node7</title>
<path fill="none" stroke="midnightblue" d="M174.64,-276C193.21,-276 216.77,-276 238.53,-276"/>
<polygon fill="midnightblue" stroke="midnightblue" points="238.71,-279.5 248.71,-276 238.71,-272.5 238.71,-279.5"/>
</g>
<!-- Node9 -->
<g id="node9" class="node">
<title>Node9</title>
<g id="a_node9"><a xlink:href="classDStarLite.html#ab5829effb52b12916c04258e776de632" target="_top" xlink:title="gets the g cost of a given state.">
<polygon fill="white" stroke="black" points="257,-228.5 257,-247.5 348,-247.5 348,-228.5 257,-228.5"/>
<text text-anchor="middle" x="302.5" y="-235.5" font-family="Helvetica,sans-Serif" font-size="10.00">DStarLite::getG</text>
</a>
</g>
</g>
<!-- Node8&#45;&gt;Node9 -->
<g id="edge10" class="edge">
<title>Node8&#45;&gt;Node9</title>
<path fill="none" stroke="midnightblue" d="M188.81,-238C207.01,-238 227.86,-238 246.62,-238"/>
<polygon fill="midnightblue" stroke="midnightblue" points="246.8,-241.5 256.8,-238 246.8,-234.5 246.8,-241.5"/>
</g>
<!-- Node9&#45;&gt;Node5 -->
<g id="edge11" class="edge">
<title>Node9&#45;&gt;Node5</title>
<path fill="none" stroke="midnightblue" d="M337.55,-228.42C347.52,-224.77 358.11,-220 367,-214 396.49,-194.1 422.9,-161.75 437.65,-141.74"/>
<polygon fill="midnightblue" stroke="midnightblue" points="440.57,-143.66 443.57,-133.5 434.89,-139.57 440.57,-143.66"/>
</g>
<!-- Node10&#45;&gt;Node4 -->
<g id="edge15" class="edge">
<title>Node10&#45;&gt;Node4</title>
<path fill="none" stroke="midnightblue" d="M200.45,-124C212.46,-124 225.13,-124 237.28,-124"/>
<polygon fill="midnightblue" stroke="midnightblue" points="237.34,-127.5 247.34,-124 237.34,-120.5 237.34,-127.5"/>
</g>
<!-- Node10&#45;&gt;Node5 -->
<g id="edge16" class="edge">
<title>Node10&#45;&gt;Node5</title>
<path fill="none" stroke="midnightblue" d="M180.09,-114.49C197.71,-110.72 218.77,-106.86 238,-105 295.07,-99.49 310.03,-98.56 367,-105 379.98,-106.47 393.89,-109.19 406.54,-112.12"/>
<polygon fill="midnightblue" stroke="midnightblue" points="405.83,-115.55 416.38,-114.49 407.48,-108.74 405.83,-115.55"/>
</g>
<!-- Node11 -->
<g id="node11" class="node">
<title>Node11</title>
<g id="a_node11"><a xlink:href="classGridMap.html#a59c8f6bbf5751d7d5364293c7a0bf161" target="_top" xlink:title=" ">
<polygon fill="white" stroke="black" points="238,-38.5 238,-57.5 367,-57.5 367,-38.5 238,-38.5"/>
<text text-anchor="middle" x="302.5" y="-45.5" font-family="Helvetica,sans-Serif" font-size="10.00">GridMap::getNeighbors</text>
</a>
</g>
</g>
<!-- Node10&#45;&gt;Node11 -->
<g id="edge13" class="edge">
<title>Node10&#45;&gt;Node11</title>
<path fill="none" stroke="midnightblue" d="M180.62,-114.43C187.98,-111.89 195.41,-108.78 202,-105 220.83,-94.2 219.51,-83.38 238,-72 244.7,-67.87 252.23,-64.27 259.7,-61.19"/>
<polygon fill="midnightblue" stroke="midnightblue" points="260.99,-64.44 269.06,-57.58 258.47,-57.91 260.99,-64.44"/>
</g>
<!-- Node12 -->
<g id="node12" class="node">
<title>Node12</title>
<g id="a_node12"><a xlink:href="classGridMap.html#a61c4a13c99d58a02db5aead64fc8d50b" target="_top" xlink:title=" ">
<polygon fill="white" stroke="black" points="244,-0.5 244,-19.5 361,-19.5 361,-0.5 244,-0.5"/>
<text text-anchor="middle" x="302.5" y="-7.5" font-family="Helvetica,sans-Serif" font-size="10.00">GridMap::setBlocked</text>
</a>
</g>
</g>
<!-- Node10&#45;&gt;Node12 -->
<g id="edge17" class="edge">
<title>Node10&#45;&gt;Node12</title>
<path fill="none" stroke="midnightblue" d="M186.74,-114.42C192.27,-111.97 197.52,-108.88 202,-105 230.25,-80.52 209.65,-53.35 238,-29 239.99,-27.29 242.12,-25.74 244.36,-24.33"/>
<polygon fill="midnightblue" stroke="midnightblue" points="246.23,-27.3 253.44,-19.54 242.97,-21.11 246.23,-27.3"/>
</g>
<!-- Node11&#45;&gt;Node5 -->
<g id="edge14" class="edge">
<title>Node11&#45;&gt;Node5</title>
<path fill="none" stroke="midnightblue" d="M332.46,-57.57C343.48,-61.57 356.02,-66.55 367,-72 388.72,-82.78 412,-97.68 428.35,-108.77"/>
<polygon fill="midnightblue" stroke="midnightblue" points="426.45,-111.71 436.68,-114.49 430.42,-105.94 426.45,-111.71"/>
</g>
<!-- Node12&#45;&gt;Node5 -->
<g id="edge18" class="edge">
<title>Node12&#45;&gt;Node5</title>
<path fill="none" stroke="midnightblue" d="M347.29,-19.55C354.18,-22.03 361,-25.14 367,-29 398.29,-49.13 424.6,-84.37 438.76,-105.81"/>
<polygon fill="midnightblue" stroke="midnightblue" points="435.88,-107.8 444.23,-114.32 441.77,-104.02 435.88,-107.8"/>
</g>
<!-- Node15&#45;&gt;Node4 -->
<g id="edge22" class="edge">
<title>Node15&#45;&gt;Node4</title>
<path fill="none" stroke="midnightblue" d="M176.11,-190.46C184.72,-187.75 193.8,-184.56 202,-181 229.43,-169.08 258.92,-151.53 278.62,-139.05"/>
<polygon fill="midnightblue" stroke="midnightblue" points="280.67,-141.9 287.19,-133.55 276.89,-136 280.67,-141.9"/>
</g>
<!-- Node15&#45;&gt;Node5 -->
<g id="edge23" class="edge">
<title>Node15&#45;&gt;Node5</title>
<path fill="none" stroke="midnightblue" d="M202.12,-194.6C248.28,-189.44 312.58,-179.87 367,-163 386.77,-156.87 407.87,-146.91 423.85,-138.59"/>
<polygon fill="midnightblue" stroke="midnightblue" points="425.9,-141.46 433.07,-133.67 422.6,-135.28 425.9,-141.46"/>
</g>
</g>
</svg>
