<?xml version="1.0" encoding="UTF-8" standalone="no"?>
<!DOCTYPE svg PUBLIC "-//W3C//DTD SVG 1.1//EN"
 "http://www.w3.org/Graphics/SVG/1.1/DTD/svg11.dtd">
<!-- Generated by graphviz version 2.43.0 (0)
 -->
<!-- Title: PQNode Pages: 1 -->
<svg width="104pt" height="93pt"
 viewBox="0.00 0.00 103.50 93.00" xmlns="http://www.w3.org/2000/svg" xmlns:xlink="http://www.w3.org/1999/xlink">
<g id="graph0" class="graph" transform="scale(1 1) rotate(0) translate(4 89)">
<title>PQNode</title>
<!-- Node1 -->
<g id="Node000001" class="node">
<title>Node1</title>
<g id="a_Node000001"><a xlink:title="Is a node within the priority queue.">
<polygon fill="#999999" stroke="#666666" points="77,-19 21,-19 21,0 77,0 77,-19"/>
<text text-anchor="middle" x="49" y="-7" font-family="Helvetica,sans-Serif" font-size="10.00">PQNode</text>
</a>
</g>
</g>
<!-- Node2 -->
<g id="Node000002" class="node">
<title>Node2</title>
<g id="a_Node000002"><a xlink:href="structState.html" target="_top" xlink:title="State representation of D* Lite vertex, contains the x and y indices.">
<polygon fill="white" stroke="#666666" points="42,-85 0,-85 0,-66 42,-66 42,-85"/>
<text text-anchor="middle" x="21" y="-73" font-family="Helvetica,sans-Serif" font-size="10.00">State</text>
</a>
</g>
</g>
<!-- Node2&#45;&gt;Node1 -->
<g id="edge1_Node000001_Node000002" class="edge">
<title>Node2&#45;&gt;Node1</title>
<g id="a_edge1_Node000001_Node000002"><a xlink:title=" ">
<path fill="none" stroke="#9a32cd" stroke-dasharray="5,2" d="M22.69,-55.69C23.71,-49.54 25.36,-42.8 28,-37 31.02,-30.38 36.04,-23.95 40.41,-19.09"/>
<polygon fill="#9a32cd" stroke="#9a32cd" points="19.19,-55.45 21.44,-65.8 26.14,-56.31 19.19,-55.45"/>
</a>
</g>
<text text-anchor="middle" x="42" y="-40" font-family="Helvetica,sans-Serif" font-size="10.00" fill="grey"> state</text>
</g>
<!-- Node3 -->
<g id="Node000003" class="node">
<title>Node3</title>
<g id="a_Node000003"><a xlink:href="structKey.html" target="_top" xlink:title="Lexicographic key used by D*Lite Priority Queue.">
<polygon fill="white" stroke="#666666" points="95.5,-85 60.5,-85 60.5,-66 95.5,-66 95.5,-85"/>
<text text-anchor="middle" x="78" y="-73" font-family="Helvetica,sans-Serif" font-size="10.00">Key</text>
</a>
</g>
</g>
<!-- Node3&#45;&gt;Node1 -->
<g id="edge2_Node000001_Node000003" class="edge">
<title>Node3&#45;&gt;Node1</title>
<g id="a_edge2_Node000001_Node000003"><a xlink:title=" ">
<path fill="none" stroke="#9a32cd" stroke-dasharray="5,2" d="M69.93,-56.68C64.43,-44.55 57.39,-29.01 53.04,-19.41"/>
<polygon fill="#9a32cd" stroke="#9a32cd" points="66.77,-58.2 74.09,-65.87 73.15,-55.32 66.77,-58.2"/>
</a>
</g>
<text text-anchor="middle" x="75.5" y="-40" font-family="Helvetica,sans-Serif" font-size="10.00" fill="grey"> key</text>
</g>
</g>
</svg>
