<?xml version="1.0" encoding="UTF-8" standalone="no"?>
<!DOCTYPE svg PUBLIC "-//W3C//DTD SVG 1.1//EN"
 "http://www.w3.org/Graphics/SVG/1.1/DTD/svg11.dtd">
<!-- Generated by graphviz version 2.43.0 (0)
 -->
<!-- Title: GridMap::isValid Pages: 1 -->
<svg width="507pt" height="453pt"
 viewBox="0.00 0.00 507.00 453.06" xmlns="http://www.w3.org/2000/svg" xmlns:xlink="http://www.w3.org/1999/xlink">
<g id="graph0" class="graph" transform="scale(1 1) rotate(0) translate(4 449.06)">
<title>GridMap::isValid</title>
<polygon fill="white" stroke="transparent" points="-4,4 -4,-449.06 503,-449.06 503,4 -4,4"/>
<!-- Node1 -->
<g id="node1" class="node">
<title>Node1</title>
<g id="a_node1"><a xlink:title=" ">
<polygon fill="#bfbfbf" stroke="black" points="403,-228.5 403,-247.5 499,-247.5 499,-228.5 403,-228.5"/>
<text text-anchor="middle" x="451" y="-235.5" font-family="Helvetica,sans-Serif" font-size="10.00">GridMap::isValid</text>
</a>
</g>
</g>
<!-- Node2 -->
<g id="node2" class="node">
<title>Node2</title>
<g id="a_node2"><a xlink:href="classGridMap.html#a117cd0e3e1975701f8187f368819738e" target="_top" xlink:title=" ">
<polygon fill="white" stroke="black" points="97.5,-380.5 97.5,-399.5 181.5,-399.5 181.5,-380.5 97.5,-380.5"/>
<text text-anchor="middle" x="139.5" y="-387.5" font-family="Helvetica,sans-Serif" font-size="10.00">GridMap::cost</text>
</a>
</g>
</g>
<!-- Node1&#45;&gt;Node2 -->
<g id="edge1" class="edge">
<title>Node1&#45;&gt;Node2</title>
<path fill="none" stroke="midnightblue" d="M446.07,-257.68C438.04,-291.95 416.21,-361.71 367,-391 305.84,-427.4 217.94,-411.83 171.68,-399.58"/>
<polygon fill="midnightblue" stroke="midnightblue" points="449.49,-258.42 448.21,-247.9 442.65,-256.92 449.49,-258.42"/>
</g>
<!-- Node3 -->
<g id="node3" class="node">
<title>Node3</title>
<g id="a_node3"><a xlink:href="classDStarLite.html#ab5829effb52b12916c04258e776de632" target="_top" xlink:title="gets the g cost of a given state.">
<polygon fill="white" stroke="black" points="257,-76.5 257,-95.5 348,-95.5 348,-76.5 257,-76.5"/>
<text text-anchor="middle" x="302.5" y="-83.5" font-family="Helvetica,sans-Serif" font-size="10.00">DStarLite::getG</text>
</a>
</g>
</g>
<!-- Node1&#45;&gt;Node3 -->
<g id="edge2" class="edge">
<title>Node1&#45;&gt;Node3</title>
<path fill="none" stroke="midnightblue" d="M443.18,-218.89C431.88,-189.94 406.51,-135.15 367,-105 361.42,-100.74 354.89,-97.43 348.19,-94.87"/>
<polygon fill="midnightblue" stroke="midnightblue" points="439.92,-220.16 446.71,-228.3 446.48,-217.71 439.92,-220.16"/>
</g>
<!-- Node6 -->
<g id="node6" class="node">
<title>Node6</title>
<g id="a_node6"><a xlink:href="classGridMap.html#a59c8f6bbf5751d7d5364293c7a0bf161" target="_top" xlink:title=" ">
<polygon fill="white" stroke="black" points="238,-304.5 238,-323.5 367,-323.5 367,-304.5 238,-304.5"/>
<text text-anchor="middle" x="302.5" y="-311.5" font-family="Helvetica,sans-Serif" font-size="10.00">GridMap::getNeighbors</text>
</a>
</g>
</g>
<!-- Node1&#45;&gt;Node6 -->
<g id="edge5" class="edge">
<title>Node1&#45;&gt;Node6</title>
<path fill="none" stroke="midnightblue" d="M428.35,-253.23C412,-264.32 388.72,-279.22 367,-290 356.02,-295.45 343.48,-300.43 332.46,-304.43"/>
<polygon fill="midnightblue" stroke="midnightblue" points="430.42,-256.06 436.68,-247.51 426.45,-250.29 430.42,-256.06"/>
</g>
<!-- Node7 -->
<g id="node7" class="node">
<title>Node7</title>
<g id="a_node7"><a xlink:href="classGridMap.html#ab91b39ab1345f709ef863b316e748917" target="_top" xlink:title=" ">
<polygon fill="white" stroke="black" points="89,-342.5 89,-361.5 190,-361.5 190,-342.5 89,-342.5"/>
<text text-anchor="middle" x="139.5" y="-349.5" font-family="Helvetica,sans-Serif" font-size="10.00">GridMap::getPred</text>
</a>
</g>
</g>
<!-- Node1&#45;&gt;Node7 -->
<g id="edge10" class="edge">
<title>Node1&#45;&gt;Node7</title>
<path fill="none" stroke="midnightblue" d="M444.45,-257.7C434.6,-288.4 410.88,-346.66 367,-371 316.86,-398.81 295.07,-376.51 238,-371 218.77,-369.14 197.71,-365.28 180.09,-361.51"/>
<polygon fill="midnightblue" stroke="midnightblue" points="447.91,-258.33 447.46,-247.75 441.21,-256.31 447.91,-258.33"/>
</g>
<!-- Node8 -->
<g id="node8" class="node">
<title>Node8</title>
<g id="a_node8"><a xlink:href="classGridMap.html#a68dab99a1413ed3d820d3d191ade415f" target="_top" xlink:title=" ">
<polygon fill="white" stroke="black" points="88.5,-304.5 88.5,-323.5 190.5,-323.5 190.5,-304.5 88.5,-304.5"/>
<text text-anchor="middle" x="139.5" y="-311.5" font-family="Helvetica,sans-Serif" font-size="10.00">GridMap::getSucc</text>
</a>
</g>
</g>
<!-- Node1&#45;&gt;Node8 -->
<g id="edge12" class="edge">
<title>Node1&#45;&gt;Node8</title>
<path fill="none" stroke="midnightblue" d="M401.29,-249.96C339.95,-265.02 235.81,-290.6 179.47,-304.43"/>
<polygon fill="midnightblue" stroke="midnightblue" points="402.24,-253.33 411.11,-247.55 400.57,-246.53 402.24,-253.33"/>
</g>
<!-- Node9 -->
<g id="node9" class="node">
<title>Node9</title>
<g id="a_node9"><a xlink:href="classDStarLite.html#a1825e09a2f70a6789fee288367f4bd91" target="_top" xlink:title=" ">
<polygon fill="white" stroke="black" points="79,-200.5 79,-219.5 200,-219.5 200,-200.5 79,-200.5"/>
<text text-anchor="middle" x="139.5" y="-207.5" font-family="Helvetica,sans-Serif" font-size="10.00">DStarLite::setBlocked</text>
</a>
</g>
</g>
<!-- Node1&#45;&gt;Node9 -->
<g id="edge23" class="edge">
<title>Node1&#45;&gt;Node9</title>
<path fill="none" stroke="midnightblue" d="M419.5,-224.58C404.08,-218.51 384.9,-212.04 367,-209 310.98,-199.49 246.04,-201.04 200.09,-204.19"/>
<polygon fill="midnightblue" stroke="midnightblue" points="418.44,-227.93 429.03,-228.46 421.09,-221.44 418.44,-227.93"/>
</g>
<!-- Node10 -->
<g id="node10" class="node">
<title>Node10</title>
<g id="a_node10"><a xlink:href="classDStarLite.html#ae06dd14ea57598b0c293bc98bec7d55d" target="_top" xlink:title="gets the rhs cost of a given state.">
<polygon fill="white" stroke="black" points="252,-228.5 252,-247.5 353,-247.5 353,-228.5 252,-228.5"/>
<text text-anchor="middle" x="302.5" y="-235.5" font-family="Helvetica,sans-Serif" font-size="10.00">DStarLite::getRhs</text>
</a>
</g>
</g>
<!-- Node1&#45;&gt;Node10 -->
<g id="edge11" class="edge">
<title>Node1&#45;&gt;Node10</title>
<path fill="none" stroke="midnightblue" d="M392.57,-238C379.52,-238 365.78,-238 353.1,-238"/>
<polygon fill="midnightblue" stroke="midnightblue" points="392.84,-241.5 402.84,-238 392.84,-234.5 392.84,-241.5"/>
</g>
<!-- Node11 -->
<g id="node11" class="node">
<title>Node11</title>
<g id="a_node11"><a xlink:href="classGridMap.html#a8335a7a2f80765040a94addef8360349" target="_top" xlink:title=" ">
<polygon fill="white" stroke="black" points="247.5,-342.5 247.5,-361.5 357.5,-361.5 357.5,-342.5 247.5,-342.5"/>
<text text-anchor="middle" x="302.5" y="-349.5" font-family="Helvetica,sans-Serif" font-size="10.00">GridMap::isBlocked</text>
</a>
</g>
</g>
<!-- Node1&#45;&gt;Node11 -->
<g id="edge13" class="edge">
<title>Node1&#45;&gt;Node11</title>
<path fill="none" stroke="midnightblue" d="M438.76,-256.19C424.6,-277.63 398.29,-312.87 367,-333 361,-336.86 354.18,-339.97 347.29,-342.45"/>
<polygon fill="midnightblue" stroke="midnightblue" points="441.77,-257.98 444.23,-247.68 435.88,-254.2 441.77,-257.98"/>
</g>
<!-- Node12 -->
<g id="node12" class="node">
<title>Node12</title>
<g id="a_node12"><a xlink:href="classDStarLite.html#ac3432bde7f63e2006d75b7c577c6e906" target="_top" xlink:title="the main planning and replanning loop.">
<polygon fill="white" stroke="black" points="95,-418.5 95,-437.5 184,-437.5 184,-418.5 95,-418.5"/>
<text text-anchor="middle" x="139.5" y="-425.5" font-family="Helvetica,sans-Serif" font-size="10.00">DStarLite::plan</text>
</a>
</g>
</g>
<!-- Node1&#45;&gt;Node12 -->
<g id="edge22" class="edge">
<title>Node1&#45;&gt;Node12</title>
<path fill="none" stroke="midnightblue" d="M447.4,-257.79C441.21,-295.91 421.81,-379.01 367,-416 311.51,-453.45 229.84,-446.45 181.22,-437.53"/>
<polygon fill="midnightblue" stroke="midnightblue" points="450.92,-257.91 448.91,-247.51 443.99,-256.89 450.92,-257.91"/>
</g>
<!-- Node13 -->
<g id="node13" class="node">
<title>Node13</title>
<g id="a_node13"><a xlink:href="classDStarLite.html#adaf418deeadbe5c78a8c05efd7813791" target="_top" xlink:title=" ">
<polygon fill="white" stroke="black" points="77,-238.5 77,-257.5 202,-257.5 202,-238.5 77,-238.5"/>
<text text-anchor="middle" x="139.5" y="-245.5" font-family="Helvetica,sans-Serif" font-size="10.00">DStarLite::updateStart</text>
</a>
</g>
</g>
<!-- Node1&#45;&gt;Node13 -->
<g id="edge28" class="edge">
<title>Node1&#45;&gt;Node13</title>
<path fill="none" stroke="midnightblue" d="M406.54,-226.12C393.89,-223.19 379.98,-220.47 367,-219 310.03,-212.56 294.74,-210.74 238,-219 234.58,-219.5 198.9,-230.22 171.69,-238.49"/>
<polygon fill="midnightblue" stroke="midnightblue" points="405.83,-229.55 416.38,-228.49 407.48,-222.74 405.83,-229.55"/>
</g>
<!-- Node14 -->
<g id="node14" class="node">
<title>Node14</title>
<g id="a_node14"><a xlink:href="classGridMap.html#a61c4a13c99d58a02db5aead64fc8d50b" target="_top" xlink:title=" ">
<polygon fill="white" stroke="black" points="244,-114.5 244,-133.5 361,-133.5 361,-114.5 244,-114.5"/>
<text text-anchor="middle" x="302.5" y="-121.5" font-family="Helvetica,sans-Serif" font-size="10.00">GridMap::setBlocked</text>
</a>
</g>
</g>
<!-- Node1&#45;&gt;Node14 -->
<g id="edge24" class="edge">
<title>Node1&#45;&gt;Node14</title>
<path fill="none" stroke="midnightblue" d="M437.65,-220.26C422.9,-200.25 396.49,-167.9 367,-148 358.11,-142 347.52,-137.23 337.55,-133.58"/>
<polygon fill="midnightblue" stroke="midnightblue" points="434.89,-222.43 443.57,-228.5 440.57,-218.34 434.89,-222.43"/>
</g>
<!-- Node15 -->
<g id="node15" class="node">
<title>Node15</title>
<g id="a_node15"><a xlink:href="classDStarLite.html#ac8ed9ade51beda1564d66c6d336bca67" target="_top" xlink:title="set the g cost of a given state.">
<polygon fill="white" stroke="black" points="257.5,-38.5 257.5,-57.5 347.5,-57.5 347.5,-38.5 257.5,-38.5"/>
<text text-anchor="middle" x="302.5" y="-45.5" font-family="Helvetica,sans-Serif" font-size="10.00">DStarLite::setG</text>
</a>
</g>
</g>
<!-- Node1&#45;&gt;Node15 -->
<g id="edge26" class="edge">
<title>Node1&#45;&gt;Node15</title>
<path fill="none" stroke="midnightblue" d="M445.87,-218.09C437.44,-182.45 414.86,-107.71 367,-67 361.39,-62.23 354.62,-58.66 347.61,-55.98"/>
<polygon fill="midnightblue" stroke="midnightblue" points="442.53,-219.19 448.12,-228.19 449.36,-217.67 442.53,-219.19"/>
</g>
<!-- Node16 -->
<g id="node16" class="node">
<title>Node16</title>
<g id="a_node16"><a xlink:href="classDStarLite.html#abcdfb856f9835ae3ccf1ce871fa43783" target="_top" xlink:title="Set the rhs cost of a given state.">
<polygon fill="white" stroke="black" points="252,-0.5 252,-19.5 353,-19.5 353,-0.5 252,-0.5"/>
<text text-anchor="middle" x="302.5" y="-7.5" font-family="Helvetica,sans-Serif" font-size="10.00">DStarLite::setRhs</text>
</a>
</g>
</g>
<!-- Node1&#45;&gt;Node16 -->
<g id="edge27" class="edge">
<title>Node1&#45;&gt;Node16</title>
<path fill="none" stroke="midnightblue" d="M447.88,-218.37C442.37,-177.14 423.83,-81.08 367,-29 362.76,-25.11 357.75,-22.02 352.44,-19.56"/>
<polygon fill="midnightblue" stroke="midnightblue" points="444.42,-218.96 449.11,-228.46 451.37,-218.11 444.42,-218.96"/>
</g>
<!-- Node4 -->
<g id="node4" class="node">
<title>Node4</title>
<g id="a_node4"><a xlink:href="classDStarLite.html#a130291392b0ae83ab59d75cd52404cb2" target="_top" xlink:title=" ">
<polygon fill="white" stroke="black" points="90.5,-105.5 90.5,-124.5 188.5,-124.5 188.5,-105.5 90.5,-105.5"/>
<text text-anchor="middle" x="139.5" y="-112.5" font-family="Helvetica,sans-Serif" font-size="10.00">DStarLite::replan</text>
</a>
</g>
</g>
<!-- Node3&#45;&gt;Node4 -->
<g id="edge3" class="edge">
<title>Node3&#45;&gt;Node4</title>
<path fill="none" stroke="midnightblue" d="M246.74,-95.86C227.93,-99.25 207.03,-103.02 188.77,-106.31"/>
<polygon fill="midnightblue" stroke="midnightblue" points="247.43,-99.3 256.65,-94.08 246.19,-92.41 247.43,-99.3"/>
</g>
<!-- Node5 -->
<g id="node5" class="node">
<title>Node5</title>
<g id="a_node5"><a xlink:href="main_8cpp.html#ae66f6b31b5ad750f1fe042a706a4e3d4" target="_top" xlink:title=" ">
<polygon fill="white" stroke="black" points="0,-219.5 0,-238.5 41,-238.5 41,-219.5 0,-219.5"/>
<text text-anchor="middle" x="20.5" y="-226.5" font-family="Helvetica,sans-Serif" font-size="10.00">main</text>
</a>
</g>
</g>
<!-- Node4&#45;&gt;Node5 -->
<g id="edge4" class="edge">
<title>Node4&#45;&gt;Node5</title>
<path fill="none" stroke="midnightblue" d="M121.23,-131.83C96.38,-156.04 51.37,-199.89 31.45,-219.31"/>
<polygon fill="midnightblue" stroke="midnightblue" points="123.8,-134.21 128.52,-124.72 118.92,-129.19 123.8,-134.21"/>
</g>
<!-- Node6&#45;&gt;Node7 -->
<g id="edge6" class="edge">
<title>Node6&#45;&gt;Node7</title>
<path fill="none" stroke="midnightblue" d="M251.1,-325.9C228.47,-331.24 202.13,-337.45 180.83,-342.48"/>
<polygon fill="midnightblue" stroke="midnightblue" points="251.94,-329.29 260.87,-323.59 250.34,-322.48 251.94,-329.29"/>
</g>
<!-- Node6&#45;&gt;Node8 -->
<g id="edge7" class="edge">
<title>Node6&#45;&gt;Node8</title>
<path fill="none" stroke="midnightblue" d="M227.82,-314C215.19,-314 202.34,-314 190.52,-314"/>
<polygon fill="midnightblue" stroke="midnightblue" points="227.87,-317.5 237.87,-314 227.87,-310.5 227.87,-317.5"/>
</g>
<!-- Node6&#45;&gt;Node9 -->
<g id="edge8" class="edge">
<title>Node6&#45;&gt;Node9</title>
<path fill="none" stroke="midnightblue" d="M282.97,-297.46C256.75,-274.16 210.98,-233.94 202,-229 195.15,-225.23 187.44,-222.1 179.87,-219.54"/>
<polygon fill="midnightblue" stroke="midnightblue" points="280.93,-300.33 290.73,-304.36 285.59,-295.1 280.93,-300.33"/>
</g>
<!-- Node9&#45;&gt;Node5 -->
<g id="edge9" class="edge">
<title>Node9&#45;&gt;Node5</title>
<path fill="none" stroke="midnightblue" d="M69.62,-221.19C59.24,-222.87 49.32,-224.48 41.21,-225.8"/>
<polygon fill="midnightblue" stroke="midnightblue" points="70.35,-224.61 79.66,-219.56 69.23,-217.7 70.35,-224.61"/>
</g>
<!-- Node11&#45;&gt;Node2 -->
<g id="edge14" class="edge">
<title>Node11&#45;&gt;Node2</title>
<path fill="none" stroke="midnightblue" d="M251.1,-363.9C228.47,-369.24 202.13,-375.45 180.83,-380.48"/>
<polygon fill="midnightblue" stroke="midnightblue" points="251.94,-367.29 260.87,-361.59 250.34,-360.48 251.94,-367.29"/>
</g>
<!-- Node11&#45;&gt;Node7 -->
<g id="edge15" class="edge">
<title>Node11&#45;&gt;Node7</title>
<path fill="none" stroke="midnightblue" d="M237.27,-352C221.56,-352 204.98,-352 190.08,-352"/>
<polygon fill="midnightblue" stroke="midnightblue" points="237.44,-355.5 247.44,-352 237.44,-348.5 237.44,-355.5"/>
</g>
<!-- Node11&#45;&gt;Node8 -->
<g id="edge16" class="edge">
<title>Node11&#45;&gt;Node8</title>
<path fill="none" stroke="midnightblue" d="M251.1,-340.1C228.47,-334.76 202.13,-328.55 180.83,-323.52"/>
<polygon fill="midnightblue" stroke="midnightblue" points="250.34,-343.52 260.87,-342.41 251.94,-336.71 250.34,-343.52"/>
</g>
<!-- Node11&#45;&gt;Node9 -->
<g id="edge19" class="edge">
<title>Node11&#45;&gt;Node9</title>
<path fill="none" stroke="midnightblue" d="M243.31,-337.37C241.43,-336.04 239.65,-334.58 238,-333 202.69,-299.16 237.16,-263 202,-229 197.98,-225.12 193.19,-222.02 188.08,-219.56"/>
<polygon fill="midnightblue" stroke="midnightblue" points="241.67,-340.47 252.07,-342.47 245.19,-334.42 241.67,-340.47"/>
</g>
<!-- Node11&#45;&gt;Node12 -->
<g id="edge17" class="edge">
<title>Node11&#45;&gt;Node12</title>
<path fill="none" stroke="midnightblue" d="M278.62,-367.05C258.92,-379.53 229.43,-397.08 202,-409 193.8,-412.56 184.72,-415.75 176.11,-418.46"/>
<polygon fill="midnightblue" stroke="midnightblue" points="280.67,-369.9 287.19,-361.55 276.89,-364 280.67,-369.9"/>
</g>
<!-- Node11&#45;&gt;Node13 -->
<g id="edge20" class="edge">
<title>Node11&#45;&gt;Node13</title>
<path fill="none" stroke="midnightblue" d="M248.91,-338.69C245.11,-337 241.43,-335.11 238,-333 218.19,-320.81 219.3,-310.56 202,-295 186.61,-281.16 167.48,-266.96 154.68,-257.85"/>
<polygon fill="midnightblue" stroke="midnightblue" points="247.92,-342.06 258.51,-342.48 250.49,-335.55 247.92,-342.06"/>
</g>
<!-- Node12&#45;&gt;Node5 -->
<g id="edge18" class="edge">
<title>Node12&#45;&gt;Node5</title>
<path fill="none" stroke="midnightblue" d="M85.87,-415.89C82.65,-413.92 79.64,-411.65 77,-409 27.99,-359.96 22.09,-268.7 21.51,-238.78"/>
<polygon fill="midnightblue" stroke="midnightblue" points="84.32,-419.02 94.83,-420.38 87.46,-412.77 84.32,-419.02"/>
</g>
<!-- Node13&#45;&gt;Node5 -->
<g id="edge21" class="edge">
<title>Node13&#45;&gt;Node5</title>
<path fill="none" stroke="midnightblue" d="M69.62,-236.81C59.24,-235.13 49.32,-233.52 41.21,-232.2"/>
<polygon fill="midnightblue" stroke="midnightblue" points="69.23,-240.3 79.66,-238.44 70.35,-233.39 69.23,-240.3"/>
</g>
<!-- Node14&#45;&gt;Node9 -->
<g id="edge25" class="edge">
<title>Node14&#45;&gt;Node9</title>
<path fill="none" stroke="midnightblue" d="M262.93,-137.13C254.57,-140.37 245.88,-144.06 238,-148 206.25,-163.89 171.79,-187.44 153.55,-200.47"/>
<polygon fill="midnightblue" stroke="midnightblue" points="264.38,-140.32 272.52,-133.54 261.93,-133.77 264.38,-140.32"/>
</g>
</g>
</svg>
