<?xml version="1.0" encoding="UTF-8" standalone="no"?>
<!DOCTYPE svg PUBLIC "-//W3C//DTD SVG 1.1//EN"
 "http://www.w3.org/Graphics/SVG/1.1/DTD/svg11.dtd">
<!-- Generated by graphviz version 2.43.0 (0)
 -->
<!-- Title: GridMap::getPred Pages: 1 -->
<svg width="406pt" height="104pt"
 viewBox="0.00 0.00 406.00 104.00" xmlns="http://www.w3.org/2000/svg" xmlns:xlink="http://www.w3.org/1999/xlink">
<g id="graph0" class="graph" transform="scale(1 1) rotate(0) translate(4 100)">
<title>GridMap::getPred</title>
<polygon fill="white" stroke="transparent" points="-4,4 -4,-100 402,-100 402,4 -4,4"/>
<!-- Node1 -->
<g id="node1" class="node">
<title>Node1</title>
<g id="a_node1"><a xlink:title=" ">
<polygon fill="#bfbfbf" stroke="black" points="0,-38.5 0,-57.5 101,-57.5 101,-38.5 0,-38.5"/>
<text text-anchor="middle" x="50.5" y="-45.5" font-family="Helvetica,sans-Serif" font-size="10.00">GridMap::getPred</text>
</a>
</g>
</g>
<!-- Node2 -->
<g id="node2" class="node">
<title>Node2</title>
<g id="a_node2"><a xlink:href="classGridMap.html#a59c8f6bbf5751d7d5364293c7a0bf161" target="_top" xlink:title=" ">
<polygon fill="white" stroke="black" points="137,-76.5 137,-95.5 266,-95.5 266,-76.5 137,-76.5"/>
<text text-anchor="middle" x="201.5" y="-83.5" font-family="Helvetica,sans-Serif" font-size="10.00">GridMap::getNeighbors</text>
</a>
</g>
</g>
<!-- Node1&#45;&gt;Node2 -->
<g id="edge1" class="edge">
<title>Node1&#45;&gt;Node2</title>
<path fill="none" stroke="midnightblue" d="M89.1,-57.59C108.58,-62.56 132.57,-68.68 153.3,-73.96"/>
<polygon fill="midnightblue" stroke="midnightblue" points="152.62,-77.4 163.17,-76.48 154.35,-70.62 152.62,-77.4"/>
</g>
<!-- Node3 -->
<g id="node3" class="node">
<title>Node3</title>
<g id="a_node3"><a xlink:href="classGridMap.html#a94be64720a59d6f9f318867dd505078f" target="_top" xlink:title=" ">
<polygon fill="white" stroke="black" points="302,-38.5 302,-57.5 398,-57.5 398,-38.5 302,-38.5"/>
<text text-anchor="middle" x="350" y="-45.5" font-family="Helvetica,sans-Serif" font-size="10.00">GridMap::isValid</text>
</a>
</g>
</g>
<!-- Node1&#45;&gt;Node3 -->
<g id="edge5" class="edge">
<title>Node1&#45;&gt;Node3</title>
<path fill="none" stroke="midnightblue" d="M101.29,-48C153.82,-48 236.47,-48 291.67,-48"/>
<polygon fill="midnightblue" stroke="midnightblue" points="291.99,-51.5 301.99,-48 291.99,-44.5 291.99,-51.5"/>
</g>
<!-- Node4 -->
<g id="node4" class="node">
<title>Node4</title>
<g id="a_node4"><a xlink:href="classGridMap.html#a8335a7a2f80765040a94addef8360349" target="_top" xlink:title=" ">
<polygon fill="white" stroke="black" points="146.5,-0.5 146.5,-19.5 256.5,-19.5 256.5,-0.5 146.5,-0.5"/>
<text text-anchor="middle" x="201.5" y="-7.5" font-family="Helvetica,sans-Serif" font-size="10.00">GridMap::isBlocked</text>
</a>
</g>
</g>
<!-- Node1&#45;&gt;Node4 -->
<g id="edge3" class="edge">
<title>Node1&#45;&gt;Node4</title>
<path fill="none" stroke="midnightblue" d="M89.1,-38.41C108.58,-33.44 132.57,-27.32 153.3,-22.04"/>
<polygon fill="midnightblue" stroke="midnightblue" points="154.35,-25.38 163.17,-19.52 152.62,-18.6 154.35,-25.38"/>
</g>
<!-- Node2&#45;&gt;Node3 -->
<g id="edge2" class="edge">
<title>Node2&#45;&gt;Node3</title>
<path fill="none" stroke="midnightblue" d="M239.47,-76.41C258.63,-71.44 282.21,-65.32 302.59,-60.04"/>
<polygon fill="midnightblue" stroke="midnightblue" points="303.5,-63.42 312.3,-57.52 301.74,-56.64 303.5,-63.42"/>
</g>
<!-- Node4&#45;&gt;Node3 -->
<g id="edge4" class="edge">
<title>Node4&#45;&gt;Node3</title>
<path fill="none" stroke="midnightblue" d="M239.47,-19.59C258.63,-24.56 282.21,-30.68 302.59,-35.96"/>
<polygon fill="midnightblue" stroke="midnightblue" points="301.74,-39.36 312.3,-38.48 303.5,-32.58 301.74,-39.36"/>
</g>
</g>
</svg>
