<?xml version="1.0" encoding="UTF-8" standalone="no"?>
<!DOCTYPE svg PUBLIC "-//W3C//DTD SVG 1.1//EN"
 "http://www.w3.org/Graphics/SVG/1.1/DTD/svg11.dtd">
<!-- Generated by graphviz version 2.43.0 (0)
 -->
<!-- Title: DStarLite::setBlocked Pages: 1 -->
<svg width="426pt" height="142pt"
 viewBox="0.00 0.00 426.00 142.00" xmlns="http://www.w3.org/2000/svg" xmlns:xlink="http://www.w3.org/1999/xlink">
<g id="graph0" class="graph" transform="scale(1 1) rotate(0) translate(4 138)">
<title>DStarLite::setBlocked</title>
<polygon fill="white" stroke="transparent" points="-4,4 -4,-138 422,-138 422,4 -4,4"/>
<!-- Node1 -->
<g id="node1" class="node">
<title>Node1</title>
<g id="a_node1"><a xlink:title=" ">
<polygon fill="#bfbfbf" stroke="black" points="0,-57.5 0,-76.5 121,-76.5 121,-57.5 0,-57.5"/>
<text text-anchor="middle" x="60.5" y="-64.5" font-family="Helvetica,sans-Serif" font-size="10.00">DStarLite::setBlocked</text>
</a>
</g>
</g>
<!-- Node2 -->
<g id="node2" class="node">
<title>Node2</title>
<g id="a_node2"><a xlink:href="classGridMap.html#a59c8f6bbf5751d7d5364293c7a0bf161" target="_top" xlink:title=" ">
<polygon fill="white" stroke="black" points="157,-114.5 157,-133.5 286,-133.5 286,-114.5 157,-114.5"/>
<text text-anchor="middle" x="221.5" y="-121.5" font-family="Helvetica,sans-Serif" font-size="10.00">GridMap::getNeighbors</text>
</a>
</g>
</g>
<!-- Node1&#45;&gt;Node2 -->
<g id="edge1" class="edge">
<title>Node1&#45;&gt;Node2</title>
<path fill="none" stroke="midnightblue" d="M88.11,-76.54C114.48,-85.99 155.06,-100.54 184.34,-111.04"/>
<polygon fill="midnightblue" stroke="midnightblue" points="183.21,-114.35 193.8,-114.43 185.57,-107.76 183.21,-114.35"/>
</g>
<!-- Node3 -->
<g id="node3" class="node">
<title>Node3</title>
<g id="a_node3"><a xlink:href="classGridMap.html#a94be64720a59d6f9f318867dd505078f" target="_top" xlink:title=" ">
<polygon fill="white" stroke="black" points="322,-57.5 322,-76.5 418,-76.5 418,-57.5 322,-57.5"/>
<text text-anchor="middle" x="370" y="-64.5" font-family="Helvetica,sans-Serif" font-size="10.00">GridMap::isValid</text>
</a>
</g>
</g>
<!-- Node1&#45;&gt;Node3 -->
<g id="edge5" class="edge">
<title>Node1&#45;&gt;Node3</title>
<path fill="none" stroke="midnightblue" d="M121.15,-67C176.12,-67 257.16,-67 311.45,-67"/>
<polygon fill="midnightblue" stroke="midnightblue" points="311.6,-70.5 321.6,-67 311.6,-63.5 311.6,-70.5"/>
</g>
<!-- Node4 -->
<g id="node4" class="node">
<title>Node4</title>
<g id="a_node4"><a xlink:href="classGridMap.html#a8335a7a2f80765040a94addef8360349" target="_top" xlink:title=" ">
<polygon fill="white" stroke="black" points="166.5,-38.5 166.5,-57.5 276.5,-57.5 276.5,-38.5 166.5,-38.5"/>
<text text-anchor="middle" x="221.5" y="-45.5" font-family="Helvetica,sans-Serif" font-size="10.00">GridMap::isBlocked</text>
</a>
</g>
</g>
<!-- Node1&#45;&gt;Node4 -->
<g id="edge3" class="edge">
<title>Node1&#45;&gt;Node4</title>
<path fill="none" stroke="midnightblue" d="M121.16,-59.87C132.61,-58.5 144.64,-57.06 156.23,-55.68"/>
<polygon fill="midnightblue" stroke="midnightblue" points="156.76,-59.14 166.27,-54.48 155.93,-52.19 156.76,-59.14"/>
</g>
<!-- Node5 -->
<g id="node5" class="node">
<title>Node5</title>
<g id="a_node5"><a xlink:href="classGridMap.html#a61c4a13c99d58a02db5aead64fc8d50b" target="_top" xlink:title=" ">
<polygon fill="white" stroke="black" points="163,-0.5 163,-19.5 280,-19.5 280,-0.5 163,-0.5"/>
<text text-anchor="middle" x="221.5" y="-7.5" font-family="Helvetica,sans-Serif" font-size="10.00">GridMap::setBlocked</text>
</a>
</g>
</g>
<!-- Node1&#45;&gt;Node5 -->
<g id="edge6" class="edge">
<title>Node1&#45;&gt;Node5</title>
<path fill="none" stroke="midnightblue" d="M84.06,-57.37C103.28,-49.33 131.72,-37.79 157,-29 163.43,-26.76 170.27,-24.55 177,-22.46"/>
<polygon fill="midnightblue" stroke="midnightblue" points="178.16,-25.77 186.71,-19.51 176.12,-19.07 178.16,-25.77"/>
</g>
<!-- Node2&#45;&gt;Node3 -->
<g id="edge2" class="edge">
<title>Node2&#45;&gt;Node3</title>
<path fill="none" stroke="midnightblue" d="M248.18,-114.41C259.76,-110.05 273.58,-104.81 286,-100 302.37,-93.65 320.49,-86.47 335.61,-80.42"/>
<polygon fill="midnightblue" stroke="midnightblue" points="337.09,-83.6 345.07,-76.64 334.49,-77.11 337.09,-83.6"/>
</g>
<!-- Node4&#45;&gt;Node3 -->
<g id="edge4" class="edge">
<title>Node4&#45;&gt;Node3</title>
<path fill="none" stroke="midnightblue" d="M276.63,-55.02C288.11,-56.51 300.25,-58.08 311.84,-59.59"/>
<polygon fill="midnightblue" stroke="midnightblue" points="311.47,-63.07 321.84,-60.88 312.37,-56.13 311.47,-63.07"/>
</g>
<!-- Node5&#45;&gt;Node3 -->
<g id="edge7" class="edge">
<title>Node5&#45;&gt;Node3</title>
<path fill="none" stroke="midnightblue" d="M257.73,-19.59C267.01,-22.38 276.95,-25.59 286,-29 304.67,-36.03 325.05,-45.33 340.94,-52.97"/>
<polygon fill="midnightblue" stroke="midnightblue" points="339.67,-56.25 350.2,-57.48 342.74,-49.96 339.67,-56.25"/>
</g>
</g>
</svg>
