<?xml version="1.0" encoding="UTF-8" standalone="no"?>
<!DOCTYPE svg PUBLIC "-//W3C//DTD SVG 1.1//EN"
 "http://www.w3.org/Graphics/SVG/1.1/DTD/svg11.dtd">
<!-- Generated by graphviz version 2.43.0 (0)
 -->
<!-- Title: DStarLite::DStarLite Pages: 1 -->
<svg width="269pt" height="66pt"
 viewBox="0.00 0.00 269.00 66.00" xmlns="http://www.w3.org/2000/svg" xmlns:xlink="http://www.w3.org/1999/xlink">
<g id="graph0" class="graph" transform="scale(1 1) rotate(0) translate(4 62)">
<title>DStarLite::DStarLite</title>
<polygon fill="white" stroke="transparent" points="-4,4 -4,-62 265,-62 265,4 -4,4"/>
<!-- Node1 -->
<g id="node1" class="node">
<title>Node1</title>
<g id="a_node1"><a xlink:title="Construct a new DStarLite object.">
<polygon fill="#bfbfbf" stroke="black" points="0,-19.5 0,-38.5 113,-38.5 113,-19.5 0,-19.5"/>
<text text-anchor="middle" x="56.5" y="-26.5" font-family="Helvetica,sans-Serif" font-size="10.00">DStarLite::DStarLite</text>
</a>
</g>
</g>
<!-- Node2 -->
<g id="node2" class="node">
<title>Node2</title>
<g id="a_node2"><a xlink:href="classGridMap.html#a6873f1f94a3d4572dd884f14ff548a5d" target="_top" xlink:title=" ">
<polygon fill="white" stroke="black" points="149,-38.5 149,-57.5 261,-57.5 261,-38.5 149,-38.5"/>
<text text-anchor="middle" x="205" y="-45.5" font-family="Helvetica,sans-Serif" font-size="10.00">GridMap::getHeight</text>
</a>
</g>
</g>
<!-- Node1&#45;&gt;Node2 -->
<g id="edge1" class="edge">
<title>Node1&#45;&gt;Node2</title>
<path fill="none" stroke="midnightblue" d="M113.3,-36.24C121.67,-37.32 130.36,-38.45 138.91,-39.56"/>
<polygon fill="midnightblue" stroke="midnightblue" points="138.47,-43.03 148.84,-40.85 139.37,-36.09 138.47,-43.03"/>
</g>
<!-- Node3 -->
<g id="node3" class="node">
<title>Node3</title>
<g id="a_node3"><a xlink:href="classGridMap.html#a2437ed6927ef635788433ccf245381e3" target="_top" xlink:title=" ">
<polygon fill="white" stroke="black" points="151,-0.5 151,-19.5 259,-19.5 259,-0.5 151,-0.5"/>
<text text-anchor="middle" x="205" y="-7.5" font-family="Helvetica,sans-Serif" font-size="10.00">GridMap::getWidth</text>
</a>
</g>
</g>
<!-- Node1&#45;&gt;Node3 -->
<g id="edge2" class="edge">
<title>Node1&#45;&gt;Node3</title>
<path fill="none" stroke="midnightblue" d="M113.3,-21.76C122.23,-20.6 131.53,-19.4 140.62,-18.22"/>
<polygon fill="midnightblue" stroke="midnightblue" points="141.3,-21.66 150.77,-16.9 140.4,-14.72 141.3,-21.66"/>
</g>
</g>
</svg>
