<?xml version="1.0" encoding="UTF-8" standalone="no"?>
<!DOCTYPE svg PUBLIC "-//W3C//DTD SVG 1.1//EN"
 "http://www.w3.org/Graphics/SVG/1.1/DTD/svg11.dtd">
<!-- Generated by graphviz version 2.43.0 (0)
 -->
<!-- Title: DStarLite::updateStart Pages: 1 -->
<svg width="411pt" height="47pt"
 viewBox="0.00 0.00 411.00 47.00" xmlns="http://www.w3.org/2000/svg" xmlns:xlink="http://www.w3.org/1999/xlink">
<g id="graph0" class="graph" transform="scale(1 1) rotate(0) translate(4 43)">
<title>DStarLite::updateStart</title>
<polygon fill="white" stroke="transparent" points="-4,4 -4,-43 407,-43 407,4 -4,4"/>
<!-- Node1 -->
<g id="node1" class="node">
<title>Node1</title>
<g id="a_node1"><a xlink:title=" ">
<polygon fill="#bfbfbf" stroke="black" points="0,-0.5 0,-19.5 125,-19.5 125,-0.5 0,-0.5"/>
<text text-anchor="middle" x="62.5" y="-7.5" font-family="Helvetica,sans-Serif" font-size="10.00">DStarLite::updateStart</text>
</a>
</g>
</g>
<!-- Node2 -->
<g id="node2" class="node">
<title>Node2</title>
<g id="a_node2"><a xlink:href="classGridMap.html#a8335a7a2f80765040a94addef8360349" target="_top" xlink:title=" ">
<polygon fill="white" stroke="black" points="161,-19.5 161,-38.5 271,-38.5 271,-19.5 161,-19.5"/>
<text text-anchor="middle" x="216" y="-26.5" font-family="Helvetica,sans-Serif" font-size="10.00">GridMap::isBlocked</text>
</a>
</g>
</g>
<!-- Node1&#45;&gt;Node2 -->
<g id="edge1" class="edge">
<title>Node1&#45;&gt;Node2</title>
<path fill="none" stroke="midnightblue" d="M125.12,-17.73C133.51,-18.78 142.13,-19.86 150.57,-20.92"/>
<polygon fill="midnightblue" stroke="midnightblue" points="150.38,-24.42 160.73,-22.19 151.25,-17.48 150.38,-24.42"/>
</g>
<!-- Node3 -->
<g id="node3" class="node">
<title>Node3</title>
<g id="a_node3"><a xlink:href="classGridMap.html#a94be64720a59d6f9f318867dd505078f" target="_top" xlink:title=" ">
<polygon fill="white" stroke="black" points="307,-0.5 307,-19.5 403,-19.5 403,-0.5 307,-0.5"/>
<text text-anchor="middle" x="355" y="-7.5" font-family="Helvetica,sans-Serif" font-size="10.00">GridMap::isValid</text>
</a>
</g>
</g>
<!-- Node1&#45;&gt;Node3 -->
<g id="edge3" class="edge">
<title>Node1&#45;&gt;Node3</title>
<path fill="none" stroke="midnightblue" d="M125.11,-10C175.8,-10 247.1,-10 296.6,-10"/>
<polygon fill="midnightblue" stroke="midnightblue" points="296.82,-13.5 306.82,-10 296.82,-6.5 296.82,-13.5"/>
</g>
<!-- Node2&#45;&gt;Node3 -->
<g id="edge2" class="edge">
<title>Node2&#45;&gt;Node3</title>
<path fill="none" stroke="midnightblue" d="M271.15,-21.49C279.55,-20.33 288.25,-19.12 296.72,-17.94"/>
<polygon fill="midnightblue" stroke="midnightblue" points="297.47,-21.37 306.89,-16.53 296.51,-14.44 297.47,-21.37"/>
</g>
</g>
</svg>
