<?xml version="1.0" encoding="UTF-8" standalone="no"?>
<!DOCTYPE svg PUBLIC "-//W3C//DTD SVG 1.1//EN"
 "http://www.w3.org/Graphics/SVG/1.1/DTD/svg11.dtd">
<!-- Generated by graphviz version 2.43.0 (0)
 -->
<!-- Title: GridMap::isBlocked Pages: 1 -->
<svg width="356pt" height="218pt"
 viewBox="0.00 0.00 356.00 218.00" xmlns="http://www.w3.org/2000/svg" xmlns:xlink="http://www.w3.org/1999/xlink">
<g id="graph0" class="graph" transform="scale(1 1) rotate(0) translate(4 214)">
<title>GridMap::isBlocked</title>
<polygon fill="white" stroke="transparent" points="-4,4 -4,-214 352,-214 352,4 -4,4"/>
<!-- Node1 -->
<g id="node1" class="node">
<title>Node1</title>
<g id="a_node1"><a xlink:title=" ">
<polygon fill="#bfbfbf" stroke="black" points="238,-95.5 238,-114.5 348,-114.5 348,-95.5 238,-95.5"/>
<text text-anchor="middle" x="293" y="-102.5" font-family="Helvetica,sans-Serif" font-size="10.00">GridMap::isBlocked</text>
</a>
</g>
</g>
<!-- Node2 -->
<g id="node2" class="node">
<title>Node2</title>
<g id="a_node2"><a xlink:href="classGridMap.html#a117cd0e3e1975701f8187f368819738e" target="_top" xlink:title=" ">
<polygon fill="white" stroke="black" points="97.5,-190.5 97.5,-209.5 181.5,-209.5 181.5,-190.5 97.5,-190.5"/>
<text text-anchor="middle" x="139.5" y="-197.5" font-family="Helvetica,sans-Serif" font-size="10.00">GridMap::cost</text>
</a>
</g>
</g>
<!-- Node1&#45;&gt;Node2 -->
<g id="edge1" class="edge">
<title>Node1&#45;&gt;Node2</title>
<path fill="none" stroke="midnightblue" d="M275.86,-122.2C258.93,-139.31 230.83,-165.23 202,-181 195.14,-184.75 187.43,-187.87 179.85,-190.43"/>
<polygon fill="midnightblue" stroke="midnightblue" points="278.78,-124.21 283.22,-114.59 273.75,-119.34 278.78,-124.21"/>
</g>
<!-- Node3 -->
<g id="node3" class="node">
<title>Node3</title>
<g id="a_node3"><a xlink:href="classGridMap.html#ab91b39ab1345f709ef863b316e748917" target="_top" xlink:title=" ">
<polygon fill="white" stroke="black" points="89,-152.5 89,-171.5 190,-171.5 190,-152.5 89,-152.5"/>
<text text-anchor="middle" x="139.5" y="-159.5" font-family="Helvetica,sans-Serif" font-size="10.00">GridMap::getPred</text>
</a>
</g>
</g>
<!-- Node1&#45;&gt;Node3 -->
<g id="edge2" class="edge">
<title>Node1&#45;&gt;Node3</title>
<path fill="none" stroke="midnightblue" d="M261.57,-118.74C244.27,-126.33 222.11,-135.67 202,-143 192.87,-146.33 182.84,-149.59 173.58,-152.45"/>
<polygon fill="midnightblue" stroke="midnightblue" points="263.41,-121.75 271.14,-114.51 260.58,-115.35 263.41,-121.75"/>
</g>
<!-- Node4 -->
<g id="node4" class="node">
<title>Node4</title>
<g id="a_node4"><a xlink:href="classGridMap.html#a68dab99a1413ed3d820d3d191ade415f" target="_top" xlink:title=" ">
<polygon fill="white" stroke="black" points="88.5,-114.5 88.5,-133.5 190.5,-133.5 190.5,-114.5 88.5,-114.5"/>
<text text-anchor="middle" x="139.5" y="-121.5" font-family="Helvetica,sans-Serif" font-size="10.00">GridMap::getSucc</text>
</a>
</g>
</g>
<!-- Node1&#45;&gt;Node4 -->
<g id="edge3" class="edge">
<title>Node1&#45;&gt;Node4</title>
<path fill="none" stroke="midnightblue" d="M227.49,-113.09C215.15,-114.64 202.41,-116.24 190.6,-117.72"/>
<polygon fill="midnightblue" stroke="midnightblue" points="228.25,-116.52 237.73,-111.81 227.38,-109.58 228.25,-116.52"/>
</g>
<!-- Node5 -->
<g id="node5" class="node">
<title>Node5</title>
<g id="a_node5"><a xlink:href="classDStarLite.html#ac3432bde7f63e2006d75b7c577c6e906" target="_top" xlink:title="the main planning and replanning loop.">
<polygon fill="white" stroke="black" points="95,-76.5 95,-95.5 184,-95.5 184,-76.5 95,-76.5"/>
<text text-anchor="middle" x="139.5" y="-83.5" font-family="Helvetica,sans-Serif" font-size="10.00">DStarLite::plan</text>
</a>
</g>
</g>
<!-- Node1&#45;&gt;Node5 -->
<g id="edge4" class="edge">
<title>Node1&#45;&gt;Node5</title>
<path fill="none" stroke="midnightblue" d="M227.75,-96.94C213.15,-95.11 197.96,-93.21 184.44,-91.51"/>
<polygon fill="midnightblue" stroke="midnightblue" points="227.38,-100.42 237.73,-98.19 228.25,-93.48 227.38,-100.42"/>
</g>
<!-- Node7 -->
<g id="node7" class="node">
<title>Node7</title>
<g id="a_node7"><a xlink:href="classDStarLite.html#a1825e09a2f70a6789fee288367f4bd91" target="_top" xlink:title=" ">
<polygon fill="white" stroke="black" points="79,-38.5 79,-57.5 200,-57.5 200,-38.5 79,-38.5"/>
<text text-anchor="middle" x="139.5" y="-45.5" font-family="Helvetica,sans-Serif" font-size="10.00">DStarLite::setBlocked</text>
</a>
</g>
</g>
<!-- Node1&#45;&gt;Node7 -->
<g id="edge6" class="edge">
<title>Node1&#45;&gt;Node7</title>
<path fill="none" stroke="midnightblue" d="M261.57,-91.26C244.27,-83.67 222.11,-74.33 202,-67 192.87,-63.67 182.84,-60.41 173.58,-57.55"/>
<polygon fill="midnightblue" stroke="midnightblue" points="260.58,-94.65 271.14,-95.49 263.41,-88.25 260.58,-94.65"/>
</g>
<!-- Node8 -->
<g id="node8" class="node">
<title>Node8</title>
<g id="a_node8"><a xlink:href="classDStarLite.html#adaf418deeadbe5c78a8c05efd7813791" target="_top" xlink:title=" ">
<polygon fill="white" stroke="black" points="77,-0.5 77,-19.5 202,-19.5 202,-0.5 77,-0.5"/>
<text text-anchor="middle" x="139.5" y="-7.5" font-family="Helvetica,sans-Serif" font-size="10.00">DStarLite::updateStart</text>
</a>
</g>
</g>
<!-- Node1&#45;&gt;Node8 -->
<g id="edge8" class="edge">
<title>Node1&#45;&gt;Node8</title>
<path fill="none" stroke="midnightblue" d="M275.86,-87.8C258.93,-70.69 230.83,-44.77 202,-29 195.14,-25.25 187.43,-22.13 179.85,-19.57"/>
<polygon fill="midnightblue" stroke="midnightblue" points="273.75,-90.66 283.22,-95.41 278.78,-85.79 273.75,-90.66"/>
</g>
<!-- Node6 -->
<g id="node6" class="node">
<title>Node6</title>
<g id="a_node6"><a xlink:href="main_8cpp.html#ae66f6b31b5ad750f1fe042a706a4e3d4" target="_top" xlink:title=" ">
<polygon fill="white" stroke="black" points="0,-38.5 0,-57.5 41,-57.5 41,-38.5 0,-38.5"/>
<text text-anchor="middle" x="20.5" y="-45.5" font-family="Helvetica,sans-Serif" font-size="10.00">main</text>
</a>
</g>
</g>
<!-- Node5&#45;&gt;Node6 -->
<g id="edge5" class="edge">
<title>Node5&#45;&gt;Node6</title>
<path fill="none" stroke="midnightblue" d="M97.14,-73.41C90.4,-71.3 83.5,-69.12 77,-67 65.09,-63.12 51.81,-58.58 41.23,-54.92"/>
<polygon fill="midnightblue" stroke="midnightblue" points="96.25,-76.8 106.84,-76.42 98.33,-70.11 96.25,-76.8"/>
</g>
<!-- Node7&#45;&gt;Node6 -->
<g id="edge7" class="edge">
<title>Node7&#45;&gt;Node6</title>
<path fill="none" stroke="midnightblue" d="M68.79,-48C58.71,-48 49.09,-48 41.19,-48"/>
<polygon fill="midnightblue" stroke="midnightblue" points="68.97,-51.5 78.97,-48 68.97,-44.5 68.97,-51.5"/>
</g>
<!-- Node8&#45;&gt;Node6 -->
<g id="edge9" class="edge">
<title>Node8&#45;&gt;Node6</title>
<path fill="none" stroke="midnightblue" d="M97.14,-22.59C90.4,-24.7 83.5,-26.88 77,-29 65.09,-32.88 51.81,-37.42 41.23,-41.08"/>
<polygon fill="midnightblue" stroke="midnightblue" points="98.33,-25.89 106.84,-19.58 96.25,-19.2 98.33,-25.89"/>
</g>
</g>
</svg>
