<?xml version="1.0" encoding="UTF-8" standalone="no"?>
<!DOCTYPE svg PUBLIC "-//W3C//DTD SVG 1.1//EN"
 "http://www.w3.org/Graphics/SVG/1.1/DTD/svg11.dtd">
<!-- Generated by graphviz version 2.43.0 (0)
 -->
<!-- Title: include/dstar_lite.h Pages: 1 -->
<svg width="360pt" height="196pt"
 viewBox="0.00 0.00 359.57 196.00" xmlns="http://www.w3.org/2000/svg" xmlns:xlink="http://www.w3.org/1999/xlink">
<g id="graph0" class="graph" transform="scale(1 1) rotate(0) translate(4 192)">
<title>include/dstar_lite.h</title>
<polygon fill="white" stroke="transparent" points="-4,4 -4,-192 355.57,-192 355.57,4 -4,4"/>
<!-- Node1 -->
<g id="node1" class="node">
<title>Node1</title>
<g id="a_node1"><a xlink:title=" ">
<polygon fill="#bfbfbf" stroke="black" points="105.07,-168.5 105.07,-187.5 215.07,-187.5 215.07,-168.5 105.07,-168.5"/>
<text text-anchor="middle" x="160.07" y="-175.5" font-family="Helvetica,sans-Serif" font-size="10.00">include/dstar_lite.h</text>
</a>
</g>
</g>
<!-- Node2 -->
<g id="node2" class="node">
<title>Node2</title>
<g id="a_node2"><a xlink:title=" ">
<polygon fill="white" stroke="#bfbfbf" points="13.07,-0.5 13.07,-19.5 63.07,-19.5 63.07,-0.5 13.07,-0.5"/>
<text text-anchor="middle" x="38.07" y="-7.5" font-family="Helvetica,sans-Serif" font-size="10.00">cstdint</text>
</a>
</g>
</g>
<!-- Node1&#45;&gt;Node2 -->
<g id="edge1" class="edge">
<title>Node1&#45;&gt;Node2</title>
<path fill="none" stroke="midnightblue" d="M116.38,-168.44C91.35,-161.8 60.55,-150.52 38.07,-132 9.51,-108.47 -7.69,-91.08 4.07,-56 7.68,-45.25 14.97,-35.02 21.89,-27.04"/>
<polygon fill="midnightblue" stroke="midnightblue" points="24.55,-29.32 28.78,-19.61 19.42,-24.56 24.55,-29.32"/>
</g>
<!-- Node3 -->
<g id="node3" class="node">
<title>Node3</title>
<g id="a_node3"><a xlink:title=" ">
<polygon fill="white" stroke="#bfbfbf" points="119.07,-56.5 119.07,-75.5 169.07,-75.5 169.07,-56.5 119.07,-56.5"/>
<text text-anchor="middle" x="144.07" y="-63.5" font-family="Helvetica,sans-Serif" font-size="10.00">climits</text>
</a>
</g>
</g>
<!-- Node1&#45;&gt;Node3 -->
<g id="edge2" class="edge">
<title>Node1&#45;&gt;Node3</title>
<path fill="none" stroke="midnightblue" d="M158.82,-168.37C156.23,-150.62 150.28,-109.67 146.78,-85.6"/>
<polygon fill="midnightblue" stroke="midnightblue" points="150.22,-84.98 145.32,-75.59 143.3,-85.99 150.22,-84.98"/>
</g>
<!-- Node4 -->
<g id="node4" class="node">
<title>Node4</title>
<g id="a_node4"><a xlink:title=" ">
<polygon fill="white" stroke="#bfbfbf" points="226.07,-112.5 226.07,-131.5 286.07,-131.5 286.07,-112.5 226.07,-112.5"/>
<text text-anchor="middle" x="256.07" y="-119.5" font-family="Helvetica,sans-Serif" font-size="10.00">iostream</text>
</a>
</g>
</g>
<!-- Node1&#45;&gt;Node4 -->
<g id="edge3" class="edge">
<title>Node1&#45;&gt;Node4</title>
<path fill="none" stroke="midnightblue" d="M175.5,-168.32C190.61,-159.82 213.89,-146.73 231.54,-136.8"/>
<polygon fill="midnightblue" stroke="midnightblue" points="233.69,-139.61 240.69,-131.65 230.25,-133.51 233.69,-139.61"/>
</g>
<!-- Node5 -->
<g id="node5" class="node">
<title>Node5</title>
<g id="a_node5"><a xlink:title=" ">
<polygon fill="white" stroke="#bfbfbf" points="187.57,-56.5 187.57,-75.5 234.57,-75.5 234.57,-56.5 187.57,-56.5"/>
<text text-anchor="middle" x="211.07" y="-63.5" font-family="Helvetica,sans-Serif" font-size="10.00">vector</text>
</a>
</g>
</g>
<!-- Node1&#45;&gt;Node5 -->
<g id="edge4" class="edge">
<title>Node1&#45;&gt;Node5</title>
<path fill="none" stroke="midnightblue" d="M164.07,-168.37C172.38,-150.46 191.63,-108.92 202.75,-84.95"/>
<polygon fill="midnightblue" stroke="midnightblue" points="206.06,-86.14 207.09,-75.59 199.71,-83.19 206.06,-86.14"/>
</g>
<!-- Node6 -->
<g id="node6" class="node">
<title>Node6</title>
<g id="a_node6"><a xlink:title=" ">
<polygon fill="white" stroke="#bfbfbf" points="304.57,-112.5 304.57,-131.5 351.57,-131.5 351.57,-112.5 304.57,-112.5"/>
<text text-anchor="middle" x="328.07" y="-119.5" font-family="Helvetica,sans-Serif" font-size="10.00">queue</text>
</a>
</g>
</g>
<!-- Node1&#45;&gt;Node6 -->
<g id="edge5" class="edge">
<title>Node1&#45;&gt;Node6</title>
<path fill="none" stroke="midnightblue" d="M186.69,-168.44C216,-159.02 263.15,-143.87 294.85,-133.68"/>
<polygon fill="midnightblue" stroke="midnightblue" points="296.11,-136.95 304.56,-130.56 293.97,-130.29 296.11,-136.95"/>
</g>
<!-- Node7 -->
<g id="node7" class="node">
<title>Node7</title>
<g id="a_node7"><a xlink:href="state_8h.html" target="_top" xlink:title=" ">
<polygon fill="white" stroke="black" points="13.07,-56.5 13.07,-75.5 63.07,-75.5 63.07,-56.5 13.07,-56.5"/>
<text text-anchor="middle" x="38.07" y="-63.5" font-family="Helvetica,sans-Serif" font-size="10.00">state.h</text>
</a>
</g>
</g>
<!-- Node1&#45;&gt;Node7 -->
<g id="edge6" class="edge">
<title>Node1&#45;&gt;Node7</title>
<path fill="none" stroke="midnightblue" d="M113.68,-168.46C91.6,-162.05 66.68,-150.97 51.07,-132 40.46,-119.1 37.7,-99.92 37.3,-85.74"/>
<polygon fill="midnightblue" stroke="midnightblue" points="40.8,-85.68 37.39,-75.65 33.8,-85.62 40.8,-85.68"/>
</g>
<!-- Node8 -->
<g id="node8" class="node">
<title>Node8</title>
<g id="a_node8"><a xlink:href="grid__map_8h.html" target="_top" xlink:title=" ">
<polygon fill="white" stroke="black" points="60.57,-112.5 60.57,-131.5 131.57,-131.5 131.57,-112.5 60.57,-112.5"/>
<text text-anchor="middle" x="96.07" y="-119.5" font-family="Helvetica,sans-Serif" font-size="10.00">grid_map.h</text>
</a>
</g>
</g>
<!-- Node1&#45;&gt;Node8 -->
<g id="edge8" class="edge">
<title>Node1&#45;&gt;Node8</title>
<path fill="none" stroke="midnightblue" d="M149.79,-168.32C140.23,-160.26 125.79,-148.08 114.29,-138.37"/>
<polygon fill="midnightblue" stroke="midnightblue" points="116.44,-135.61 106.54,-131.83 111.93,-140.96 116.44,-135.61"/>
</g>
<!-- Node7&#45;&gt;Node2 -->
<g id="edge7" class="edge">
<title>Node7&#45;&gt;Node2</title>
<path fill="none" stroke="midnightblue" d="M38.07,-56.08C38.07,-49.01 38.07,-38.86 38.07,-29.99"/>
<polygon fill="midnightblue" stroke="midnightblue" points="41.57,-29.75 38.07,-19.75 34.57,-29.75 41.57,-29.75"/>
</g>
<!-- Node8&#45;&gt;Node2 -->
<g id="edge9" class="edge">
<title>Node8&#45;&gt;Node2</title>
<path fill="none" stroke="midnightblue" d="M93.73,-112.24C90.1,-99.42 82.46,-75 72.07,-56 66.56,-45.93 58.97,-35.64 52.35,-27.45"/>
<polygon fill="midnightblue" stroke="midnightblue" points="55.04,-25.2 45.94,-19.77 49.66,-29.69 55.04,-25.2"/>
</g>
<!-- Node8&#45;&gt;Node3 -->
<g id="edge10" class="edge">
<title>Node8&#45;&gt;Node3</title>
<path fill="none" stroke="midnightblue" d="M104,-112.08C110.92,-104.3 121.14,-92.8 129.52,-83.37"/>
<polygon fill="midnightblue" stroke="midnightblue" points="132.26,-85.55 136.29,-75.75 127.03,-80.9 132.26,-85.55"/>
</g>
<!-- Node8&#45;&gt;Node5 -->
<g id="edge11" class="edge">
<title>Node8&#45;&gt;Node5</title>
<path fill="none" stroke="midnightblue" d="M114.29,-112.44C132.97,-103.68 162.23,-89.94 183.69,-79.86"/>
<polygon fill="midnightblue" stroke="midnightblue" points="185.37,-82.93 192.93,-75.52 182.39,-76.6 185.37,-82.93"/>
</g>
<!-- Node8&#45;&gt;Node7 -->
<g id="edge12" class="edge">
<title>Node8&#45;&gt;Node7</title>
<path fill="none" stroke="midnightblue" d="M86.75,-112.32C78.18,-104.34 65.26,-92.31 54.88,-82.65"/>
<polygon fill="midnightblue" stroke="midnightblue" points="57.26,-80.09 47.56,-75.83 52.49,-85.21 57.26,-80.09"/>
</g>
</g>
</svg>
