<?xml version="1.0" encoding="UTF-8" standalone="no"?>
<!DOCTYPE svg PUBLIC "-//W3C//DTD SVG 1.1//EN"
 "http://www.w3.org/Graphics/SVG/1.1/DTD/svg11.dtd">
<!-- Generated by graphviz version 2.43.0 (0)
 -->
<!-- Title: include/grid_map.h Pages: 1 -->
<svg width="367pt" height="140pt"
 viewBox="0.00 0.00 366.50 140.00" xmlns="http://www.w3.org/2000/svg" xmlns:xlink="http://www.w3.org/1999/xlink">
<g id="graph0" class="graph" transform="scale(1 1) rotate(0) translate(4 136)">
<title>include/grid_map.h</title>
<polygon fill="white" stroke="transparent" points="-4,4 -4,-136 362.5,-136 362.5,4 -4,4"/>
<!-- Node1 -->
<g id="node1" class="node">
<title>Node1</title>
<g id="a_node1"><a xlink:title=" ">
<polygon fill="#bfbfbf" stroke="black" points="133.5,-112.5 133.5,-131.5 243.5,-131.5 243.5,-112.5 133.5,-112.5"/>
<text text-anchor="middle" x="188.5" y="-119.5" font-family="Helvetica,sans-Serif" font-size="10.00">include/grid_map.h</text>
</a>
</g>
</g>
<!-- Node2 -->
<g id="node2" class="node">
<title>Node2</title>
<g id="a_node2"><a xlink:href="dstar__lite_8h.html" target="_top" xlink:title=" ">
<polygon fill="white" stroke="black" points="92.5,-56.5 92.5,-75.5 202.5,-75.5 202.5,-56.5 92.5,-56.5"/>
<text text-anchor="middle" x="147.5" y="-63.5" font-family="Helvetica,sans-Serif" font-size="10.00">include/dstar_lite.h</text>
</a>
</g>
</g>
<!-- Node1&#45;&gt;Node2 -->
<g id="edge1" class="edge">
<title>Node1&#45;&gt;Node2</title>
<path fill="none" stroke="midnightblue" d="M175.48,-103.86C168.38,-94.5 159.9,-83.33 154.14,-75.75"/>
<polygon fill="midnightblue" stroke="midnightblue" points="172.89,-106.24 181.73,-112.08 178.47,-102 172.89,-106.24"/>
</g>
<!-- Node4 -->
<g id="node4" class="node">
<title>Node4</title>
<g id="a_node4"><a xlink:href="main_8cpp.html" target="_top" xlink:title=" ">
<polygon fill="white" stroke="black" points="0,-0.5 0,-19.5 79,-19.5 79,-0.5 0,-0.5"/>
<text text-anchor="middle" x="39.5" y="-7.5" font-family="Helvetica,sans-Serif" font-size="10.00">src/main.cpp</text>
</a>
</g>
</g>
<!-- Node1&#45;&gt;Node4 -->
<g id="edge6" class="edge">
<title>Node1&#45;&gt;Node4</title>
<path fill="none" stroke="midnightblue" d="M146.34,-109.13C125.85,-101.89 101.77,-91.09 83.5,-76 64.17,-60.03 49.89,-33.44 43.4,-19.74"/>
<polygon fill="midnightblue" stroke="midnightblue" points="145.48,-112.53 156.07,-112.39 147.71,-105.89 145.48,-112.53"/>
</g>
<!-- Node5 -->
<g id="node5" class="node">
<title>Node5</title>
<g id="a_node5"><a xlink:href="stress__test_8cpp.html" target="_top" xlink:title=" ">
<polygon fill="white" stroke="black" points="216,-0.5 216,-19.5 323,-19.5 323,-0.5 216,-0.5"/>
<text text-anchor="middle" x="269.5" y="-7.5" font-family="Helvetica,sans-Serif" font-size="10.00">src/stress_test.cpp</text>
</a>
</g>
</g>
<!-- Node1&#45;&gt;Node5 -->
<g id="edge7" class="edge">
<title>Node1&#45;&gt;Node5</title>
<path fill="none" stroke="midnightblue" d="M200.82,-104.27C218.33,-80.49 249.77,-37.79 263.17,-19.59"/>
<polygon fill="midnightblue" stroke="midnightblue" points="197.97,-102.24 194.86,-112.37 203.6,-106.39 197.97,-102.24"/>
</g>
<!-- Node6 -->
<g id="node6" class="node">
<title>Node6</title>
<g id="a_node6"><a xlink:href="grid__map_8cpp.html" target="_top" xlink:title=" ">
<polygon fill="white" stroke="black" points="258.5,-56.5 258.5,-75.5 358.5,-75.5 358.5,-56.5 258.5,-56.5"/>
<text text-anchor="middle" x="308.5" y="-63.5" font-family="Helvetica,sans-Serif" font-size="10.00">src/grid_map.cpp</text>
</a>
</g>
</g>
<!-- Node1&#45;&gt;Node6 -->
<g id="edge5" class="edge">
<title>Node1&#45;&gt;Node6</title>
<path fill="none" stroke="midnightblue" d="M216.87,-108.23C239.32,-98.13 270.04,-84.31 289.57,-75.52"/>
<polygon fill="midnightblue" stroke="midnightblue" points="215.2,-105.15 207.51,-112.44 218.07,-111.53 215.2,-105.15"/>
</g>
<!-- Node3 -->
<g id="node3" class="node">
<title>Node3</title>
<g id="a_node3"><a xlink:href="dstar__lite_8cpp.html" target="_top" xlink:title=" ">
<polygon fill="white" stroke="black" points="97.5,-0.5 97.5,-19.5 197.5,-19.5 197.5,-0.5 97.5,-0.5"/>
<text text-anchor="middle" x="147.5" y="-7.5" font-family="Helvetica,sans-Serif" font-size="10.00">src/dstar_lite.cpp</text>
</a>
</g>
</g>
<!-- Node2&#45;&gt;Node3 -->
<g id="edge2" class="edge">
<title>Node2&#45;&gt;Node3</title>
<path fill="none" stroke="midnightblue" d="M147.5,-45.8C147.5,-36.91 147.5,-26.78 147.5,-19.75"/>
<polygon fill="midnightblue" stroke="midnightblue" points="144,-46.08 147.5,-56.08 151,-46.08 144,-46.08"/>
</g>
<!-- Node2&#45;&gt;Node4 -->
<g id="edge3" class="edge">
<title>Node2&#45;&gt;Node4</title>
<path fill="none" stroke="midnightblue" d="M120.95,-51.73C100.95,-41.73 74.11,-28.31 56.81,-19.65"/>
<polygon fill="midnightblue" stroke="midnightblue" points="119.64,-54.98 130.15,-56.32 122.77,-48.72 119.64,-54.98"/>
</g>
<!-- Node2&#45;&gt;Node5 -->
<g id="edge4" class="edge">
<title>Node2&#45;&gt;Node5</title>
<path fill="none" stroke="midnightblue" d="M176.04,-52.37C198.89,-42.26 230.31,-28.35 250.26,-19.52"/>
<polygon fill="midnightblue" stroke="midnightblue" points="174.56,-49.2 166.83,-56.44 177.39,-55.6 174.56,-49.2"/>
</g>
</g>
</svg>
