<?xml version="1.0" encoding="UTF-8" standalone="no"?>
<!DOCTYPE svg PUBLIC "-//W3C//DTD SVG 1.1//EN"
 "http://www.w3.org/Graphics/SVG/1.1/DTD/svg11.dtd">
<!-- Generated by graphviz version 2.43.0 (0)
 -->
<!-- Title: src/grid_map.cpp Pages: 1 -->
<svg width="237pt" height="196pt"
 viewBox="0.00 0.00 236.50 196.00" xmlns="http://www.w3.org/2000/svg" xmlns:xlink="http://www.w3.org/1999/xlink">
<g id="graph0" class="graph" transform="scale(1 1) rotate(0) translate(4 192)">
<title>src/grid_map.cpp</title>
<polygon fill="white" stroke="transparent" points="-4,4 -4,-192 232.5,-192 232.5,4 -4,4"/>
<!-- Node1 -->
<g id="node1" class="node">
<title>Node1</title>
<g id="a_node1"><a xlink:title=" ">
<polygon fill="#bfbfbf" stroke="black" points="13.5,-168.5 13.5,-187.5 113.5,-187.5 113.5,-168.5 13.5,-168.5"/>
<text text-anchor="middle" x="63.5" y="-175.5" font-family="Helvetica,sans-Serif" font-size="10.00">src/grid_map.cpp</text>
</a>
</g>
</g>
<!-- Node2 -->
<g id="node2" class="node">
<title>Node2</title>
<g id="a_node2"><a xlink:title=" ">
<polygon fill="white" stroke="#bfbfbf" points="0,-112.5 0,-131.5 49,-131.5 49,-112.5 0,-112.5"/>
<text text-anchor="middle" x="24.5" y="-119.5" font-family="Helvetica,sans-Serif" font-size="10.00">cstdlib</text>
</a>
</g>
</g>
<!-- Node1&#45;&gt;Node2 -->
<g id="edge1" class="edge">
<title>Node1&#45;&gt;Node2</title>
<path fill="none" stroke="midnightblue" d="M57.06,-168.08C51.55,-160.46 43.47,-149.26 36.74,-139.94"/>
<polygon fill="midnightblue" stroke="midnightblue" points="39.51,-137.81 30.82,-131.75 33.84,-141.91 39.51,-137.81"/>
</g>
<!-- Node3 -->
<g id="node3" class="node">
<title>Node3</title>
<g id="a_node3"><a xlink:href="grid__map_8h.html" target="_top" xlink:title=" ">
<polygon fill="white" stroke="black" points="67,-112.5 67,-131.5 138,-131.5 138,-112.5 67,-112.5"/>
<text text-anchor="middle" x="102.5" y="-119.5" font-family="Helvetica,sans-Serif" font-size="10.00">grid_map.h</text>
</a>
</g>
</g>
<!-- Node1&#45;&gt;Node3 -->
<g id="edge2" class="edge">
<title>Node1&#45;&gt;Node3</title>
<path fill="none" stroke="midnightblue" d="M69.94,-168.08C75.45,-160.46 83.53,-149.26 90.26,-139.94"/>
<polygon fill="midnightblue" stroke="midnightblue" points="93.16,-141.91 96.18,-131.75 87.49,-137.81 93.16,-141.91"/>
</g>
<!-- Node4 -->
<g id="node4" class="node">
<title>Node4</title>
<g id="a_node4"><a xlink:title=" ">
<polygon fill="white" stroke="#bfbfbf" points="84.5,-0.5 84.5,-19.5 134.5,-19.5 134.5,-0.5 84.5,-0.5"/>
<text text-anchor="middle" x="109.5" y="-7.5" font-family="Helvetica,sans-Serif" font-size="10.00">cstdint</text>
</a>
</g>
</g>
<!-- Node3&#45;&gt;Node4 -->
<g id="edge3" class="edge">
<title>Node3&#45;&gt;Node4</title>
<path fill="none" stroke="midnightblue" d="M81.18,-112.45C56.78,-101.29 21.84,-80.3 35.5,-56 44.02,-40.84 59.95,-30.19 74.85,-23.08"/>
<polygon fill="midnightblue" stroke="midnightblue" points="76.65,-26.11 84.41,-18.9 73.84,-19.7 76.65,-26.11"/>
</g>
<!-- Node5 -->
<g id="node5" class="node">
<title>Node5</title>
<g id="a_node5"><a xlink:title=" ">
<polygon fill="white" stroke="#bfbfbf" points="44.5,-56.5 44.5,-75.5 94.5,-75.5 94.5,-56.5 44.5,-56.5"/>
<text text-anchor="middle" x="69.5" y="-63.5" font-family="Helvetica,sans-Serif" font-size="10.00">climits</text>
</a>
</g>
</g>
<!-- Node3&#45;&gt;Node5 -->
<g id="edge4" class="edge">
<title>Node3&#45;&gt;Node5</title>
<path fill="none" stroke="midnightblue" d="M97.05,-112.08C92.49,-104.61 85.83,-93.72 80.21,-84.52"/>
<polygon fill="midnightblue" stroke="midnightblue" points="83.05,-82.46 74.85,-75.75 77.08,-86.11 83.05,-82.46"/>
</g>
<!-- Node6 -->
<g id="node6" class="node">
<title>Node6</title>
<g id="a_node6"><a xlink:title=" ">
<polygon fill="white" stroke="#bfbfbf" points="113,-56.5 113,-75.5 160,-75.5 160,-56.5 113,-56.5"/>
<text text-anchor="middle" x="136.5" y="-63.5" font-family="Helvetica,sans-Serif" font-size="10.00">vector</text>
</a>
</g>
</g>
<!-- Node3&#45;&gt;Node6 -->
<g id="edge5" class="edge">
<title>Node3&#45;&gt;Node6</title>
<path fill="none" stroke="midnightblue" d="M108.11,-112.08C112.87,-104.53 119.82,-93.49 125.65,-84.23"/>
<polygon fill="midnightblue" stroke="midnightblue" points="128.62,-86.08 130.99,-75.75 122.7,-82.35 128.62,-86.08"/>
</g>
<!-- Node7 -->
<g id="node7" class="node">
<title>Node7</title>
<g id="a_node7"><a xlink:href="state_8h.html" target="_top" xlink:title=" ">
<polygon fill="white" stroke="black" points="178.5,-56.5 178.5,-75.5 228.5,-75.5 228.5,-56.5 178.5,-56.5"/>
<text text-anchor="middle" x="203.5" y="-63.5" font-family="Helvetica,sans-Serif" font-size="10.00">state.h</text>
</a>
</g>
</g>
<!-- Node3&#45;&gt;Node7 -->
<g id="edge6" class="edge">
<title>Node3&#45;&gt;Node7</title>
<path fill="none" stroke="midnightblue" d="M118.73,-112.32C134.85,-103.7 159.8,-90.36 178.46,-80.39"/>
<polygon fill="midnightblue" stroke="midnightblue" points="180.14,-83.46 187.31,-75.65 176.84,-77.28 180.14,-83.46"/>
</g>
<!-- Node7&#45;&gt;Node4 -->
<g id="edge7" class="edge">
<title>Node7&#45;&gt;Node4</title>
<path fill="none" stroke="midnightblue" d="M188.4,-56.32C173.6,-47.82 150.81,-34.73 133.52,-24.8"/>
<polygon fill="midnightblue" stroke="midnightblue" points="134.98,-21.6 124.57,-19.65 131.49,-27.67 134.98,-21.6"/>
</g>
</g>
</svg>
