<?xml version="1.0" encoding="UTF-8" standalone="no"?>
<!DOCTYPE svg PUBLIC "-//W3C//DTD SVG 1.1//EN"
 "http://www.w3.org/Graphics/SVG/1.1/DTD/svg11.dtd">
<!-- Generated by graphviz version 2.43.0 (0)
 -->
<!-- Title: include/grid_map.h Pages: 1 -->
<svg width="204pt" height="140pt"
 viewBox="0.00 0.00 204.26 140.00" xmlns="http://www.w3.org/2000/svg" xmlns:xlink="http://www.w3.org/1999/xlink">
<g id="graph0" class="graph" transform="scale(1 1) rotate(0) translate(4 136)">
<title>include/grid_map.h</title>
<polygon fill="white" stroke="transparent" points="-4,4 -4,-136 200.26,-136 200.26,4 -4,4"/>
<!-- Node1 -->
<g id="node1" class="node">
<title>Node1</title>
<g id="a_node1"><a xlink:title=" ">
<polygon fill="#bfbfbf" stroke="black" points="15.26,-112.5 15.26,-131.5 125.26,-131.5 125.26,-112.5 15.26,-112.5"/>
<text text-anchor="middle" x="70.26" y="-119.5" font-family="Helvetica,sans-Serif" font-size="10.00">include/grid_map.h</text>
</a>
</g>
</g>
<!-- Node2 -->
<g id="node2" class="node">
<title>Node2</title>
<g id="a_node2"><a xlink:title=" ">
<polygon fill="white" stroke="#bfbfbf" points="52.26,-0.5 52.26,-19.5 102.26,-19.5 102.26,-0.5 52.26,-0.5"/>
<text text-anchor="middle" x="77.26" y="-7.5" font-family="Helvetica,sans-Serif" font-size="10.00">cstdint</text>
</a>
</g>
</g>
<!-- Node1&#45;&gt;Node2 -->
<g id="edge1" class="edge">
<title>Node1&#45;&gt;Node2</title>
<path fill="none" stroke="midnightblue" d="M48.95,-112.45C24.54,-101.29 -10.4,-80.3 3.26,-56 11.79,-40.84 27.72,-30.19 42.62,-23.08"/>
<polygon fill="midnightblue" stroke="midnightblue" points="44.41,-26.11 52.17,-18.9 41.61,-19.7 44.41,-26.11"/>
</g>
<!-- Node3 -->
<g id="node3" class="node">
<title>Node3</title>
<g id="a_node3"><a xlink:title=" ">
<polygon fill="white" stroke="#bfbfbf" points="12.26,-56.5 12.26,-75.5 62.26,-75.5 62.26,-56.5 12.26,-56.5"/>
<text text-anchor="middle" x="37.26" y="-63.5" font-family="Helvetica,sans-Serif" font-size="10.00">climits</text>
</a>
</g>
</g>
<!-- Node1&#45;&gt;Node3 -->
<g id="edge2" class="edge">
<title>Node1&#45;&gt;Node3</title>
<path fill="none" stroke="midnightblue" d="M64.82,-112.08C60.25,-104.61 53.6,-93.72 47.97,-84.52"/>
<polygon fill="midnightblue" stroke="midnightblue" points="50.81,-82.46 42.61,-75.75 44.84,-86.11 50.81,-82.46"/>
</g>
<!-- Node4 -->
<g id="node4" class="node">
<title>Node4</title>
<g id="a_node4"><a xlink:title=" ">
<polygon fill="white" stroke="#bfbfbf" points="80.76,-56.5 80.76,-75.5 127.76,-75.5 127.76,-56.5 80.76,-56.5"/>
<text text-anchor="middle" x="104.26" y="-63.5" font-family="Helvetica,sans-Serif" font-size="10.00">vector</text>
</a>
</g>
</g>
<!-- Node1&#45;&gt;Node4 -->
<g id="edge3" class="edge">
<title>Node1&#45;&gt;Node4</title>
<path fill="none" stroke="midnightblue" d="M75.88,-112.08C80.63,-104.53 87.58,-93.49 93.42,-84.23"/>
<polygon fill="midnightblue" stroke="midnightblue" points="96.39,-86.08 98.75,-75.75 90.46,-82.35 96.39,-86.08"/>
</g>
<!-- Node5 -->
<g id="node5" class="node">
<title>Node5</title>
<g id="a_node5"><a xlink:href="state_8h.html" target="_top" xlink:title=" ">
<polygon fill="white" stroke="black" points="146.26,-56.5 146.26,-75.5 196.26,-75.5 196.26,-56.5 146.26,-56.5"/>
<text text-anchor="middle" x="171.26" y="-63.5" font-family="Helvetica,sans-Serif" font-size="10.00">state.h</text>
</a>
</g>
</g>
<!-- Node1&#45;&gt;Node5 -->
<g id="edge4" class="edge">
<title>Node1&#45;&gt;Node5</title>
<path fill="none" stroke="midnightblue" d="M86.49,-112.32C102.62,-103.7 127.57,-90.36 146.23,-80.39"/>
<polygon fill="midnightblue" stroke="midnightblue" points="147.91,-83.46 155.08,-75.65 144.61,-77.28 147.91,-83.46"/>
</g>
<!-- Node5&#45;&gt;Node2 -->
<g id="edge5" class="edge">
<title>Node5&#45;&gt;Node2</title>
<path fill="none" stroke="midnightblue" d="M156.16,-56.32C141.36,-47.82 118.57,-34.73 101.28,-24.8"/>
<polygon fill="midnightblue" stroke="midnightblue" points="102.74,-21.6 92.33,-19.65 99.26,-27.67 102.74,-21.6"/>
</g>
</g>
</svg>
