<?xml version="1.0" encoding="UTF-8" standalone="no"?>
<!DOCTYPE svg PUBLIC "-//W3C//DTD SVG 1.1//EN"
 "http://www.w3.org/Graphics/SVG/1.1/DTD/svg11.dtd">
<!-- Generated by graphviz version 2.43.0 (0)
 -->
<!-- Title: main Pages: 1 -->
<svg width="507pt" height="320pt"
 viewBox="0.00 0.00 507.00 320.45" xmlns="http://www.w3.org/2000/svg" xmlns:xlink="http://www.w3.org/1999/xlink">
<g id="graph0" class="graph" transform="scale(1 1) rotate(0) translate(4 316.45)">
<title>main</title>
<polygon fill="white" stroke="transparent" points="-4,4 -4,-316.45 503,-316.45 503,4 -4,4"/>
<!-- Node1 -->
<g id="node1" class="node">
<title>Node1</title>
<g id="a_node1"><a xlink:title=" ">
<polygon fill="#bfbfbf" stroke="black" points="0,-133.5 0,-152.5 41,-152.5 41,-133.5 0,-133.5"/>
<text text-anchor="middle" x="20.5" y="-140.5" font-family="Helvetica,sans-Serif" font-size="10.00">main</text>
</a>
</g>
</g>
<!-- Node2 -->
<g id="node2" class="node">
<title>Node2</title>
<g id="a_node2"><a xlink:href="classDStarLite.html#a1ccb2960d999214d970f9e5f633acc02" target="_top" xlink:title="Get the Path of states.">
<polygon fill="white" stroke="black" points="87.5,-266.5 87.5,-285.5 191.5,-285.5 191.5,-266.5 87.5,-266.5"/>
<text text-anchor="middle" x="139.5" y="-273.5" font-family="Helvetica,sans-Serif" font-size="10.00">DStarLite::getPath</text>
</a>
</g>
</g>
<!-- Node1&#45;&gt;Node2 -->
<g id="edge1" class="edge">
<title>Node1&#45;&gt;Node2</title>
<path fill="none" stroke="midnightblue" d="M23.43,-152.54C28.35,-174.35 43.41,-228.2 77,-257 78.97,-258.69 81.08,-260.22 83.3,-261.62"/>
<polygon fill="midnightblue" stroke="midnightblue" points="81.82,-264.8 92.3,-266.38 85.09,-258.61 81.82,-264.8"/>
</g>
<!-- Node3 -->
<g id="node3" class="node">
<title>Node3</title>
<g id="a_node3"><a xlink:href="classDStarLite.html#ac3432bde7f63e2006d75b7c577c6e906" target="_top" xlink:title="the main planning and replanning loop.">
<polygon fill="white" stroke="black" points="95,-228.5 95,-247.5 184,-247.5 184,-228.5 95,-228.5"/>
<text text-anchor="middle" x="139.5" y="-235.5" font-family="Helvetica,sans-Serif" font-size="10.00">DStarLite::plan</text>
</a>
</g>
</g>
<!-- Node1&#45;&gt;Node3 -->
<g id="edge2" class="edge">
<title>Node1&#45;&gt;Node3</title>
<path fill="none" stroke="midnightblue" d="M26,-152.72C33.98,-168.88 52.13,-201.25 77,-219 79.81,-221.01 82.85,-222.81 86,-224.42"/>
<polygon fill="midnightblue" stroke="midnightblue" points="84.59,-227.62 95.15,-228.49 87.44,-221.23 84.59,-227.62"/>
</g>
<!-- Node6 -->
<g id="node6" class="node">
<title>Node6</title>
<g id="a_node6"><a xlink:href="main_8cpp.html#a958ef2b94e23cb62fc753d5ea2b8cef9" target="_top" xlink:title=" ">
<polygon fill="white" stroke="black" points="109.5,-76.5 109.5,-95.5 169.5,-95.5 169.5,-76.5 109.5,-76.5"/>
<text text-anchor="middle" x="139.5" y="-83.5" font-family="Helvetica,sans-Serif" font-size="10.00">printPath</text>
</a>
</g>
</g>
<!-- Node1&#45;&gt;Node6 -->
<g id="edge6" class="edge">
<title>Node1&#45;&gt;Node6</title>
<path fill="none" stroke="midnightblue" d="M33.2,-133.43C44.01,-124.98 60.81,-112.82 77,-105 84.15,-101.55 92.06,-98.55 99.77,-96.02"/>
<polygon fill="midnightblue" stroke="midnightblue" points="100.82,-99.36 109.34,-93.06 98.75,-92.67 100.82,-99.36"/>
</g>
<!-- Node7 -->
<g id="node7" class="node">
<title>Node7</title>
<g id="a_node7"><a xlink:href="classDStarLite.html#a130291392b0ae83ab59d75cd52404cb2" target="_top" xlink:title=" ">
<polygon fill="white" stroke="black" points="90.5,-114.5 90.5,-133.5 188.5,-133.5 188.5,-114.5 90.5,-114.5"/>
<text text-anchor="middle" x="139.5" y="-121.5" font-family="Helvetica,sans-Serif" font-size="10.00">DStarLite::replan</text>
</a>
</g>
</g>
<!-- Node1&#45;&gt;Node7 -->
<g id="edge7" class="edge">
<title>Node1&#45;&gt;Node7</title>
<path fill="none" stroke="midnightblue" d="M41.08,-139.82C51.92,-138.06 66.02,-135.77 80.1,-133.48"/>
<polygon fill="midnightblue" stroke="midnightblue" points="81,-136.88 90.31,-131.83 79.88,-129.97 81,-136.88"/>
</g>
<!-- Node9 -->
<g id="node9" class="node">
<title>Node9</title>
<g id="a_node9"><a xlink:href="classDStarLite.html#a1825e09a2f70a6789fee288367f4bd91" target="_top" xlink:title=" ">
<polygon fill="white" stroke="black" points="79,-190.5 79,-209.5 200,-209.5 200,-190.5 79,-190.5"/>
<text text-anchor="middle" x="139.5" y="-197.5" font-family="Helvetica,sans-Serif" font-size="10.00">DStarLite::setBlocked</text>
</a>
</g>
</g>
<!-- Node1&#45;&gt;Node9 -->
<g id="edge10" class="edge">
<title>Node1&#45;&gt;Node9</title>
<path fill="none" stroke="midnightblue" d="M33.2,-152.57C44.01,-161.02 60.81,-173.18 77,-181 81.6,-183.22 86.52,-185.26 91.49,-187.1"/>
<polygon fill="midnightblue" stroke="midnightblue" points="90.47,-190.45 101.06,-190.4 92.75,-183.83 90.47,-190.45"/>
</g>
<!-- Node12 -->
<g id="node12" class="node">
<title>Node12</title>
<g id="a_node12"><a xlink:href="classDStarLite.html#a22390594fcf1049bd1edbec41970d6a6" target="_top" xlink:title="Set the Goal object.">
<polygon fill="white" stroke="black" points="87,-38.5 87,-57.5 192,-57.5 192,-38.5 87,-38.5"/>
<text text-anchor="middle" x="139.5" y="-45.5" font-family="Helvetica,sans-Serif" font-size="10.00">DStarLite::setGoal</text>
</a>
</g>
</g>
<!-- Node1&#45;&gt;Node12 -->
<g id="edge17" class="edge">
<title>Node1&#45;&gt;Node12</title>
<path fill="none" stroke="midnightblue" d="M26,-133.28C33.98,-117.12 52.13,-84.75 77,-67 79.81,-64.99 82.85,-63.19 86,-61.58"/>
<polygon fill="midnightblue" stroke="midnightblue" points="87.44,-64.77 95.15,-57.51 84.59,-58.38 87.44,-64.77"/>
</g>
<!-- Node13 -->
<g id="node13" class="node">
<title>Node13</title>
<g id="a_node13"><a xlink:href="classDStarLite.html#a9f5447e35fb140cab58cc264317423b2" target="_top" xlink:title="Set the Start object.">
<polygon fill="white" stroke="black" points="86.5,-0.5 86.5,-19.5 192.5,-19.5 192.5,-0.5 86.5,-0.5"/>
<text text-anchor="middle" x="139.5" y="-7.5" font-family="Helvetica,sans-Serif" font-size="10.00">DStarLite::setStart</text>
</a>
</g>
</g>
<!-- Node1&#45;&gt;Node13 -->
<g id="edge18" class="edge">
<title>Node1&#45;&gt;Node13</title>
<path fill="none" stroke="midnightblue" d="M23.43,-133.46C28.35,-111.65 43.41,-57.8 77,-29 78.97,-27.31 81.08,-25.78 83.3,-24.38"/>
<polygon fill="midnightblue" stroke="midnightblue" points="85.09,-27.39 92.3,-19.62 81.82,-21.2 85.09,-27.39"/>
</g>
<!-- Node14 -->
<g id="node14" class="node">
<title>Node14</title>
<g id="a_node14"><a xlink:href="classDStarLite.html#adaf418deeadbe5c78a8c05efd7813791" target="_top" xlink:title=" ">
<polygon fill="white" stroke="black" points="77,-152.5 77,-171.5 202,-171.5 202,-152.5 77,-152.5"/>
<text text-anchor="middle" x="139.5" y="-159.5" font-family="Helvetica,sans-Serif" font-size="10.00">DStarLite::updateStart</text>
</a>
</g>
</g>
<!-- Node1&#45;&gt;Node14 -->
<g id="edge19" class="edge">
<title>Node1&#45;&gt;Node14</title>
<path fill="none" stroke="midnightblue" d="M41.08,-146.18C49.27,-147.51 59.31,-149.14 69.8,-150.84"/>
<polygon fill="midnightblue" stroke="midnightblue" points="69.53,-154.34 79.96,-152.49 70.65,-147.44 69.53,-154.34"/>
</g>
<!-- Node4 -->
<g id="node4" class="node">
<title>Node4</title>
<g id="a_node4"><a xlink:href="classGridMap.html#a8335a7a2f80765040a94addef8360349" target="_top" xlink:title=" ">
<polygon fill="white" stroke="black" points="247.5,-152.5 247.5,-171.5 357.5,-171.5 357.5,-152.5 247.5,-152.5"/>
<text text-anchor="middle" x="302.5" y="-159.5" font-family="Helvetica,sans-Serif" font-size="10.00">GridMap::isBlocked</text>
</a>
</g>
</g>
<!-- Node3&#45;&gt;Node4 -->
<g id="edge3" class="edge">
<title>Node3&#45;&gt;Node4</title>
<path fill="none" stroke="midnightblue" d="M181.82,-228.46C188.83,-225.95 195.83,-222.83 202,-219 221.76,-206.72 218.19,-193.19 238,-181 241.43,-178.89 245.11,-177 248.91,-175.31"/>
<polygon fill="midnightblue" stroke="midnightblue" points="250.49,-178.45 258.51,-171.52 247.92,-171.94 250.49,-178.45"/>
</g>
<!-- Node5 -->
<g id="node5" class="node">
<title>Node5</title>
<g id="a_node5"><a xlink:href="classGridMap.html#a94be64720a59d6f9f318867dd505078f" target="_top" xlink:title=" ">
<polygon fill="white" stroke="black" points="403,-190.5 403,-209.5 499,-209.5 499,-190.5 403,-190.5"/>
<text text-anchor="middle" x="451" y="-197.5" font-family="Helvetica,sans-Serif" font-size="10.00">GridMap::isValid</text>
</a>
</g>
</g>
<!-- Node3&#45;&gt;Node5 -->
<g id="edge5" class="edge">
<title>Node3&#45;&gt;Node5</title>
<path fill="none" stroke="midnightblue" d="M181.82,-247.54C188.83,-250.05 195.83,-253.17 202,-257 221.76,-269.28 216.63,-285.81 238,-295 290.67,-317.65 314.8,-318.71 367,-295 401.55,-279.31 427.35,-241.35 440.42,-218.44"/>
<polygon fill="midnightblue" stroke="midnightblue" points="443.5,-220.11 445.23,-209.66 437.36,-216.75 443.5,-220.11"/>
</g>
<!-- Node4&#45;&gt;Node5 -->
<g id="edge4" class="edge">
<title>Node4&#45;&gt;Node5</title>
<path fill="none" stroke="midnightblue" d="M340.47,-171.59C359.63,-176.56 383.21,-182.68 403.59,-187.96"/>
<polygon fill="midnightblue" stroke="midnightblue" points="402.74,-191.36 413.3,-190.48 404.5,-184.58 402.74,-191.36"/>
</g>
<!-- Node8 -->
<g id="node8" class="node">
<title>Node8</title>
<g id="a_node8"><a xlink:href="classDStarLite.html#ab5829effb52b12916c04258e776de632" target="_top" xlink:title="gets the g cost of a given state.">
<polygon fill="white" stroke="black" points="257,-76.5 257,-95.5 348,-95.5 348,-76.5 257,-76.5"/>
<text text-anchor="middle" x="302.5" y="-83.5" font-family="Helvetica,sans-Serif" font-size="10.00">DStarLite::getG</text>
</a>
</g>
</g>
<!-- Node7&#45;&gt;Node8 -->
<g id="edge8" class="edge">
<title>Node7&#45;&gt;Node8</title>
<path fill="none" stroke="midnightblue" d="M181.13,-114.41C202.47,-109.37 228.81,-103.16 251.41,-97.82"/>
<polygon fill="midnightblue" stroke="midnightblue" points="252.24,-101.22 261.17,-95.52 250.63,-94.41 252.24,-101.22"/>
</g>
<!-- Node8&#45;&gt;Node5 -->
<g id="edge9" class="edge">
<title>Node8&#45;&gt;Node5</title>
<path fill="none" stroke="midnightblue" d="M337.55,-95.58C347.52,-99.23 358.11,-104 367,-110 396.49,-129.9 422.9,-162.25 437.65,-182.26"/>
<polygon fill="midnightblue" stroke="midnightblue" points="434.89,-184.43 443.57,-190.5 440.57,-180.34 434.89,-184.43"/>
</g>
<!-- Node9&#45;&gt;Node4 -->
<g id="edge13" class="edge">
<title>Node9&#45;&gt;Node4</title>
<path fill="none" stroke="midnightblue" d="M181.13,-190.41C202.47,-185.37 228.81,-179.16 251.41,-173.82"/>
<polygon fill="midnightblue" stroke="midnightblue" points="252.24,-177.22 261.17,-171.52 250.63,-170.41 252.24,-177.22"/>
</g>
<!-- Node9&#45;&gt;Node5 -->
<g id="edge14" class="edge">
<title>Node9&#45;&gt;Node5</title>
<path fill="none" stroke="midnightblue" d="M180.09,-209.51C197.71,-213.28 218.77,-217.14 238,-219 295.07,-224.51 310.03,-225.44 367,-219 379.98,-217.53 393.89,-214.81 406.54,-211.88"/>
<polygon fill="midnightblue" stroke="midnightblue" points="407.48,-215.26 416.38,-209.51 405.83,-208.45 407.48,-215.26"/>
</g>
<!-- Node10 -->
<g id="node10" class="node">
<title>Node10</title>
<g id="a_node10"><a xlink:href="classGridMap.html#a59c8f6bbf5751d7d5364293c7a0bf161" target="_top" xlink:title=" ">
<polygon fill="white" stroke="black" points="238,-190.5 238,-209.5 367,-209.5 367,-190.5 238,-190.5"/>
<text text-anchor="middle" x="302.5" y="-197.5" font-family="Helvetica,sans-Serif" font-size="10.00">GridMap::getNeighbors</text>
</a>
</g>
</g>
<!-- Node9&#45;&gt;Node10 -->
<g id="edge11" class="edge">
<title>Node9&#45;&gt;Node10</title>
<path fill="none" stroke="midnightblue" d="M200.45,-200C209.35,-200 218.61,-200 227.75,-200"/>
<polygon fill="midnightblue" stroke="midnightblue" points="227.99,-203.5 237.99,-200 227.99,-196.5 227.99,-203.5"/>
</g>
<!-- Node11 -->
<g id="node11" class="node">
<title>Node11</title>
<g id="a_node11"><a xlink:href="classGridMap.html#a61c4a13c99d58a02db5aead64fc8d50b" target="_top" xlink:title=" ">
<polygon fill="white" stroke="black" points="244,-266.5 244,-285.5 361,-285.5 361,-266.5 244,-266.5"/>
<text text-anchor="middle" x="302.5" y="-273.5" font-family="Helvetica,sans-Serif" font-size="10.00">GridMap::setBlocked</text>
</a>
</g>
</g>
<!-- Node9&#45;&gt;Node11 -->
<g id="edge15" class="edge">
<title>Node9&#45;&gt;Node11</title>
<path fill="none" stroke="midnightblue" d="M180.62,-209.57C187.98,-212.11 195.41,-215.22 202,-219 220.83,-229.8 219.51,-240.62 238,-252 244.7,-256.13 252.23,-259.73 259.7,-262.81"/>
<polygon fill="midnightblue" stroke="midnightblue" points="258.47,-266.09 269.06,-266.42 260.99,-259.56 258.47,-266.09"/>
</g>
<!-- Node10&#45;&gt;Node5 -->
<g id="edge12" class="edge">
<title>Node10&#45;&gt;Node5</title>
<path fill="none" stroke="midnightblue" d="M367.33,-200C375.68,-200 384.2,-200 392.43,-200"/>
<polygon fill="midnightblue" stroke="midnightblue" points="392.69,-203.5 402.69,-200 392.69,-196.5 392.69,-203.5"/>
</g>
<!-- Node11&#45;&gt;Node5 -->
<g id="edge16" class="edge">
<title>Node11&#45;&gt;Node5</title>
<path fill="none" stroke="midnightblue" d="M332.46,-266.43C343.48,-262.43 356.02,-257.45 367,-252 388.72,-241.22 412,-226.32 428.35,-215.23"/>
<polygon fill="midnightblue" stroke="midnightblue" points="430.42,-218.06 436.68,-209.51 426.45,-212.29 430.42,-218.06"/>
</g>
<!-- Node14&#45;&gt;Node4 -->
<g id="edge20" class="edge">
<title>Node14&#45;&gt;Node4</title>
<path fill="none" stroke="midnightblue" d="M202.29,-162C213.81,-162 225.87,-162 237.46,-162"/>
<polygon fill="midnightblue" stroke="midnightblue" points="237.5,-165.5 247.5,-162 237.5,-158.5 237.5,-165.5"/>
</g>
<!-- Node14&#45;&gt;Node5 -->
<g id="edge21" class="edge">
<title>Node14&#45;&gt;Node5</title>
<path fill="none" stroke="midnightblue" d="M170.6,-152.4C214.74,-139.89 299.16,-121.95 367,-143 392.36,-150.87 416.84,-169.46 432.56,-183.29"/>
<polygon fill="midnightblue" stroke="midnightblue" points="430.59,-186.23 440.34,-190.38 435.31,-181.06 430.59,-186.23"/>
</g>
</g>
</svg>
