<?xml version="1.0" encoding="UTF-8" standalone="no"?>
<!DOCTYPE svg PUBLIC "-//W3C//DTD SVG 1.1//EN"
 "http://www.w3.org/Graphics/SVG/1.1/DTD/svg11.dtd">
<!-- Generated by graphviz version 2.43.0 (0)
 -->
<!-- Title: src/main.cpp Pages: 1 -->
<svg width="377pt" height="252pt"
 viewBox="0.00 0.00 377.00 252.00" xmlns="http://www.w3.org/2000/svg" xmlns:xlink="http://www.w3.org/1999/xlink">
<g id="graph0" class="graph" transform="scale(1 1) rotate(0) translate(4 248)">
<title>src/main.cpp</title>
<polygon fill="white" stroke="transparent" points="-4,4 -4,-248 373,-248 373,4 -4,4"/>
<!-- Node1 -->
<g id="node1" class="node">
<title>Node1</title>
<g id="a_node1"><a xlink:title=" ">
<polygon fill="#bfbfbf" stroke="black" points="97.5,-224.5 97.5,-243.5 176.5,-243.5 176.5,-224.5 97.5,-224.5"/>
<text text-anchor="middle" x="137" y="-231.5" font-family="Helvetica,sans-Serif" font-size="10.00">src/main.cpp</text>
</a>
</g>
</g>
<!-- Node2 -->
<g id="node2" class="node">
<title>Node2</title>
<g id="a_node2"><a xlink:title=" ">
<polygon fill="white" stroke="#bfbfbf" points="0,-112.5 0,-131.5 60,-131.5 60,-112.5 0,-112.5"/>
<text text-anchor="middle" x="30" y="-119.5" font-family="Helvetica,sans-Serif" font-size="10.00">iostream</text>
</a>
</g>
</g>
<!-- Node1&#45;&gt;Node2 -->
<g id="edge1" class="edge">
<title>Node1&#45;&gt;Node2</title>
<path fill="none" stroke="midnightblue" d="M114.28,-224.45C97.19,-217.04 74.18,-204.84 59,-188 46.99,-174.67 39.27,-155.56 34.85,-141.5"/>
<polygon fill="midnightblue" stroke="midnightblue" points="38.1,-140.17 31.98,-131.52 31.38,-142.1 38.1,-140.17"/>
</g>
<!-- Node3 -->
<g id="node3" class="node">
<title>Node3</title>
<g id="a_node3"><a xlink:title=" ">
<polygon fill="white" stroke="#bfbfbf" points="68,-168.5 68,-187.5 124,-187.5 124,-168.5 68,-168.5"/>
<text text-anchor="middle" x="96" y="-175.5" font-family="Helvetica,sans-Serif" font-size="10.00">iomanip</text>
</a>
</g>
</g>
<!-- Node1&#45;&gt;Node3 -->
<g id="edge2" class="edge">
<title>Node1&#45;&gt;Node3</title>
<path fill="none" stroke="midnightblue" d="M130.23,-224.08C124.44,-216.46 115.94,-205.26 108.86,-195.94"/>
<polygon fill="midnightblue" stroke="midnightblue" points="111.48,-193.6 102.64,-187.75 105.9,-197.83 111.48,-193.6"/>
</g>
<!-- Node4 -->
<g id="node4" class="node">
<title>Node4</title>
<g id="a_node4"><a xlink:href="dstar__lite_8h.html" target="_top" xlink:title=" ">
<polygon fill="white" stroke="black" points="142.5,-168.5 142.5,-187.5 213.5,-187.5 213.5,-168.5 142.5,-168.5"/>
<text text-anchor="middle" x="178" y="-175.5" font-family="Helvetica,sans-Serif" font-size="10.00">dstar_lite.h</text>
</a>
</g>
</g>
<!-- Node1&#45;&gt;Node4 -->
<g id="edge3" class="edge">
<title>Node1&#45;&gt;Node4</title>
<path fill="none" stroke="midnightblue" d="M143.77,-224.08C149.56,-216.46 158.06,-205.26 165.14,-195.94"/>
<polygon fill="midnightblue" stroke="midnightblue" points="168.1,-197.83 171.36,-187.75 162.52,-193.6 168.1,-197.83"/>
</g>
<!-- Node10 -->
<g id="node10" class="node">
<title>Node10</title>
<g id="a_node10"><a xlink:href="grid__map_8h.html" target="_top" xlink:title=" ">
<polygon fill="white" stroke="black" points="258.5,-112.5 258.5,-131.5 329.5,-131.5 329.5,-112.5 258.5,-112.5"/>
<text text-anchor="middle" x="294" y="-119.5" font-family="Helvetica,sans-Serif" font-size="10.00">grid_map.h</text>
</a>
</g>
</g>
<!-- Node1&#45;&gt;Node10 -->
<g id="edge16" class="edge">
<title>Node1&#45;&gt;Node10</title>
<path fill="none" stroke="midnightblue" d="M156.96,-224.36C174.95,-216.16 201.75,-202.9 223,-188 243.82,-173.4 264.97,-153.2 278.7,-139.21"/>
<polygon fill="midnightblue" stroke="midnightblue" points="281.45,-141.4 285.87,-131.78 276.41,-136.54 281.45,-141.4"/>
</g>
<!-- Node4&#45;&gt;Node2 -->
<g id="edge6" class="edge">
<title>Node4&#45;&gt;Node2</title>
<path fill="none" stroke="midnightblue" d="M154.55,-168.44C129.87,-159.44 90.81,-145.19 63.02,-135.05"/>
<polygon fill="midnightblue" stroke="midnightblue" points="63.94,-131.66 53.34,-131.52 61.54,-138.23 63.94,-131.66"/>
</g>
<!-- Node5 -->
<g id="node5" class="node">
<title>Node5</title>
<g id="a_node5"><a xlink:title=" ">
<polygon fill="white" stroke="#bfbfbf" points="266,-0.5 266,-19.5 316,-19.5 316,-0.5 266,-0.5"/>
<text text-anchor="middle" x="291" y="-7.5" font-family="Helvetica,sans-Serif" font-size="10.00">cstdint</text>
</a>
</g>
</g>
<!-- Node4&#45;&gt;Node5 -->
<g id="edge4" class="edge">
<title>Node4&#45;&gt;Node5</title>
<path fill="none" stroke="midnightblue" d="M168.11,-168.38C145.36,-147.51 93.37,-93.26 122,-56 138.19,-34.94 211.2,-21.65 255.79,-15.34"/>
<polygon fill="midnightblue" stroke="midnightblue" points="256.49,-18.78 265.92,-13.96 255.54,-11.84 256.49,-18.78"/>
</g>
<!-- Node6 -->
<g id="node6" class="node">
<title>Node6</title>
<g id="a_node6"><a xlink:title=" ">
<polygon fill="white" stroke="#bfbfbf" points="208,-56.5 208,-75.5 258,-75.5 258,-56.5 208,-56.5"/>
<text text-anchor="middle" x="233" y="-63.5" font-family="Helvetica,sans-Serif" font-size="10.00">climits</text>
</a>
</g>
</g>
<!-- Node4&#45;&gt;Node6 -->
<g id="edge5" class="edge">
<title>Node4&#45;&gt;Node6</title>
<path fill="none" stroke="midnightblue" d="M185.7,-168.24C193.02,-159.54 203.94,-145.58 211,-132 218.73,-117.14 224.61,-98.99 228.33,-85.65"/>
<polygon fill="midnightblue" stroke="midnightblue" points="231.78,-86.32 230.95,-75.75 225.01,-84.53 231.78,-86.32"/>
</g>
<!-- Node7 -->
<g id="node7" class="node">
<title>Node7</title>
<g id="a_node7"><a xlink:title=" ">
<polygon fill="white" stroke="#bfbfbf" points="131.5,-56.5 131.5,-75.5 178.5,-75.5 178.5,-56.5 131.5,-56.5"/>
<text text-anchor="middle" x="155" y="-63.5" font-family="Helvetica,sans-Serif" font-size="10.00">vector</text>
</a>
</g>
</g>
<!-- Node4&#45;&gt;Node7 -->
<g id="edge7" class="edge">
<title>Node4&#45;&gt;Node7</title>
<path fill="none" stroke="midnightblue" d="M168.98,-168.34C160.93,-159.93 149.7,-146.36 145,-132 140,-116.74 143.51,-98.63 147.69,-85.41"/>
<polygon fill="midnightblue" stroke="midnightblue" points="151.12,-86.22 151.19,-75.62 144.53,-83.86 151.12,-86.22"/>
</g>
<!-- Node8 -->
<g id="node8" class="node">
<title>Node8</title>
<g id="a_node8"><a xlink:title=" ">
<polygon fill="white" stroke="#bfbfbf" points="154.5,-112.5 154.5,-131.5 201.5,-131.5 201.5,-112.5 154.5,-112.5"/>
<text text-anchor="middle" x="178" y="-119.5" font-family="Helvetica,sans-Serif" font-size="10.00">queue</text>
</a>
</g>
</g>
<!-- Node4&#45;&gt;Node8 -->
<g id="edge8" class="edge">
<title>Node4&#45;&gt;Node8</title>
<path fill="none" stroke="midnightblue" d="M178,-168.08C178,-161.01 178,-150.86 178,-141.99"/>
<polygon fill="midnightblue" stroke="midnightblue" points="181.5,-141.75 178,-131.75 174.5,-141.75 181.5,-141.75"/>
</g>
<!-- Node9 -->
<g id="node9" class="node">
<title>Node9</title>
<g id="a_node9"><a xlink:href="state_8h.html" target="_top" xlink:title=" ">
<polygon fill="white" stroke="black" points="319,-56.5 319,-75.5 369,-75.5 369,-56.5 319,-56.5"/>
<text text-anchor="middle" x="344" y="-63.5" font-family="Helvetica,sans-Serif" font-size="10.00">state.h</text>
</a>
</g>
</g>
<!-- Node4&#45;&gt;Node9 -->
<g id="edge9" class="edge">
<title>Node4&#45;&gt;Node9</title>
<path fill="none" stroke="midnightblue" d="M213.51,-171.88C255.93,-164.97 323.16,-151.29 339,-132 349.43,-119.3 349.64,-100.1 347.86,-85.85"/>
<polygon fill="midnightblue" stroke="midnightblue" points="351.27,-85 346.17,-75.71 344.36,-86.15 351.27,-85"/>
</g>
<!-- Node4&#45;&gt;Node10 -->
<g id="edge11" class="edge">
<title>Node4&#45;&gt;Node10</title>
<path fill="none" stroke="midnightblue" d="M196.38,-168.44C215.22,-159.68 244.73,-145.94 266.38,-135.86"/>
<polygon fill="midnightblue" stroke="midnightblue" points="268.12,-138.91 275.71,-131.52 265.16,-132.56 268.12,-138.91"/>
</g>
<!-- Node9&#45;&gt;Node5 -->
<g id="edge10" class="edge">
<title>Node9&#45;&gt;Node5</title>
<path fill="none" stroke="midnightblue" d="M335.25,-56.08C327.53,-48.22 316.1,-36.57 306.78,-27.08"/>
<polygon fill="midnightblue" stroke="midnightblue" points="309.09,-24.44 299.59,-19.75 304.1,-29.34 309.09,-24.44"/>
</g>
<!-- Node10&#45;&gt;Node5 -->
<g id="edge12" class="edge">
<title>Node10&#45;&gt;Node5</title>
<path fill="none" stroke="midnightblue" d="M293.76,-112.37C293.28,-94.62 292.16,-53.67 291.51,-29.6"/>
<polygon fill="midnightblue" stroke="midnightblue" points="295.01,-29.49 291.23,-19.59 288.01,-29.68 295.01,-29.49"/>
</g>
<!-- Node10&#45;&gt;Node6 -->
<g id="edge13" class="edge">
<title>Node10&#45;&gt;Node6</title>
<path fill="none" stroke="midnightblue" d="M284.2,-112.32C275.18,-104.34 261.59,-92.31 250.68,-82.65"/>
<polygon fill="midnightblue" stroke="midnightblue" points="252.79,-79.84 242.98,-75.83 248.15,-85.08 252.79,-79.84"/>
</g>
<!-- Node10&#45;&gt;Node7 -->
<g id="edge14" class="edge">
<title>Node10&#45;&gt;Node7</title>
<path fill="none" stroke="midnightblue" d="M271.98,-112.44C248.9,-103.48 212.44,-89.31 186.36,-79.18"/>
<polygon fill="midnightblue" stroke="midnightblue" points="187.51,-75.88 176.92,-75.52 184.98,-82.4 187.51,-75.88"/>
</g>
<!-- Node10&#45;&gt;Node9 -->
<g id="edge15" class="edge">
<title>Node10&#45;&gt;Node9</title>
<path fill="none" stroke="midnightblue" d="M302.26,-112.08C309.46,-104.3 320.11,-92.8 328.85,-83.37"/>
<polygon fill="midnightblue" stroke="midnightblue" points="331.67,-85.47 335.9,-75.75 326.53,-80.71 331.67,-85.47"/>
</g>
</g>
</svg>
