<?xml version="1.0" encoding="UTF-8" standalone="no"?>
<!DOCTYPE svg PUBLIC "-//W3C//DTD SVG 1.1//EN"
 "http://www.w3.org/Graphics/SVG/1.1/DTD/svg11.dtd">
<!-- Generated by graphviz version 2.43.0 (0)
 -->
<!-- Title: include/state.h Pages: 1 -->
<svg width="405pt" height="196pt"
 viewBox="0.00 0.00 405.00 196.00" xmlns="http://www.w3.org/2000/svg" xmlns:xlink="http://www.w3.org/1999/xlink">
<g id="graph0" class="graph" transform="scale(1 1) rotate(0) translate(4 192)">
<title>include/state.h</title>
<polygon fill="white" stroke="transparent" points="-4,4 -4,-192 401,-192 401,4 -4,4"/>
<!-- Node1 -->
<g id="node1" class="node">
<title>Node1</title>
<g id="a_node1"><a xlink:title=" ">
<polygon fill="#bfbfbf" stroke="black" points="144.5,-168.5 144.5,-187.5 233.5,-187.5 233.5,-168.5 144.5,-168.5"/>
<text text-anchor="middle" x="189" y="-175.5" font-family="Helvetica,sans-Serif" font-size="10.00">include/state.h</text>
</a>
</g>
</g>
<!-- Node2 -->
<g id="node2" class="node">
<title>Node2</title>
<g id="a_node2"><a xlink:href="dstar__lite_8h.html" target="_top" xlink:title=" ">
<polygon fill="white" stroke="black" points="93,-56.5 93,-75.5 203,-75.5 203,-56.5 93,-56.5"/>
<text text-anchor="middle" x="148" y="-63.5" font-family="Helvetica,sans-Serif" font-size="10.00">include/dstar_lite.h</text>
</a>
</g>
</g>
<!-- Node1&#45;&gt;Node2 -->
<g id="edge1" class="edge">
<title>Node1&#45;&gt;Node2</title>
<path fill="none" stroke="midnightblue" d="M179.48,-159.3C175.31,-151.14 170.57,-141.22 167,-132 159.36,-112.27 153.07,-88.15 150.01,-75.57"/>
<polygon fill="midnightblue" stroke="midnightblue" points="176.42,-161 184.16,-168.24 182.62,-157.75 176.42,-161"/>
</g>
<!-- Node6 -->
<g id="node6" class="node">
<title>Node6</title>
<g id="a_node6"><a xlink:href="grid__map_8h.html" target="_top" xlink:title=" ">
<polygon fill="white" stroke="black" points="176,-112.5 176,-131.5 286,-131.5 286,-112.5 176,-112.5"/>
<text text-anchor="middle" x="231" y="-119.5" font-family="Helvetica,sans-Serif" font-size="10.00">include/grid_map.h</text>
</a>
</g>
</g>
<!-- Node1&#45;&gt;Node6 -->
<g id="edge5" class="edge">
<title>Node1&#45;&gt;Node6</title>
<path fill="none" stroke="midnightblue" d="M202.11,-160.14C209.43,-150.74 218.24,-139.4 224.19,-131.75"/>
<polygon fill="midnightblue" stroke="midnightblue" points="199.31,-158.04 195.94,-168.08 204.84,-162.34 199.31,-158.04"/>
</g>
<!-- Node3 -->
<g id="node3" class="node">
<title>Node3</title>
<g id="a_node3"><a xlink:href="dstar__lite_8cpp.html" target="_top" xlink:title=" ">
<polygon fill="white" stroke="black" points="0,-0.5 0,-19.5 100,-19.5 100,-0.5 0,-0.5"/>
<text text-anchor="middle" x="50" y="-7.5" font-family="Helvetica,sans-Serif" font-size="10.00">src/dstar_lite.cpp</text>
</a>
</g>
</g>
<!-- Node2&#45;&gt;Node3 -->
<g id="edge2" class="edge">
<title>Node2&#45;&gt;Node3</title>
<path fill="none" stroke="midnightblue" d="M123.41,-51.45C105.32,-41.48 81.27,-28.23 65.71,-19.65"/>
<polygon fill="midnightblue" stroke="midnightblue" points="121.81,-54.56 132.25,-56.32 125.19,-48.43 121.81,-54.56"/>
</g>
<!-- Node4 -->
<g id="node4" class="node">
<title>Node4</title>
<g id="a_node4"><a xlink:href="main_8cpp.html" target="_top" xlink:title=" ">
<polygon fill="white" stroke="black" points="118.5,-0.5 118.5,-19.5 197.5,-19.5 197.5,-0.5 118.5,-0.5"/>
<text text-anchor="middle" x="158" y="-7.5" font-family="Helvetica,sans-Serif" font-size="10.00">src/main.cpp</text>
</a>
</g>
</g>
<!-- Node2&#45;&gt;Node4 -->
<g id="edge3" class="edge">
<title>Node2&#45;&gt;Node4</title>
<path fill="none" stroke="midnightblue" d="M151.5,-46.1C153.16,-37.14 155.06,-26.86 156.38,-19.75"/>
<polygon fill="midnightblue" stroke="midnightblue" points="148.03,-45.61 149.65,-56.08 154.91,-46.89 148.03,-45.61"/>
</g>
<!-- Node5 -->
<g id="node5" class="node">
<title>Node5</title>
<g id="a_node5"><a xlink:href="stress__test_8cpp.html" target="_top" xlink:title=" ">
<polygon fill="white" stroke="black" points="215.5,-0.5 215.5,-19.5 322.5,-19.5 322.5,-0.5 215.5,-0.5"/>
<text text-anchor="middle" x="269" y="-7.5" font-family="Helvetica,sans-Serif" font-size="10.00">src/stress_test.cpp</text>
</a>
</g>
</g>
<!-- Node2&#45;&gt;Node5 -->
<g id="edge4" class="edge">
<title>Node2&#45;&gt;Node5</title>
<path fill="none" stroke="midnightblue" d="M176.31,-52.37C198.97,-42.26 230.13,-28.35 249.92,-19.52"/>
<polygon fill="midnightblue" stroke="midnightblue" points="174.88,-49.17 167.17,-56.44 177.73,-55.56 174.88,-49.17"/>
</g>
<!-- Node6&#45;&gt;Node2 -->
<g id="edge6" class="edge">
<title>Node6&#45;&gt;Node2</title>
<path fill="none" stroke="midnightblue" d="M208.9,-106.62C193.74,-96.76 174.12,-83.99 161.3,-75.65"/>
<polygon fill="midnightblue" stroke="midnightblue" points="207.37,-109.8 217.66,-112.32 211.19,-103.94 207.37,-109.8"/>
</g>
<!-- Node6&#45;&gt;Node4 -->
<g id="edge8" class="edge">
<title>Node6&#45;&gt;Node4</title>
<path fill="none" stroke="midnightblue" d="M228.51,-102.17C226.01,-88.48 221.16,-69.98 212,-56 201.83,-40.49 184.7,-27.53 172.46,-19.56"/>
<polygon fill="midnightblue" stroke="midnightblue" points="225.09,-102.99 230.1,-112.33 232.01,-101.91 225.09,-102.99"/>
</g>
<!-- Node6&#45;&gt;Node5 -->
<g id="edge9" class="edge">
<title>Node6&#45;&gt;Node5</title>
<path fill="none" stroke="midnightblue" d="M237.33,-102.67C245.64,-78.62 259.88,-37.39 266.03,-19.59"/>
<polygon fill="midnightblue" stroke="midnightblue" points="233.94,-101.77 233.98,-112.37 240.56,-104.06 233.94,-101.77"/>
</g>
<!-- Node7 -->
<g id="node7" class="node">
<title>Node7</title>
<g id="a_node7"><a xlink:href="grid__map_8cpp.html" target="_top" xlink:title=" ">
<polygon fill="white" stroke="black" points="297,-56.5 297,-75.5 397,-75.5 397,-56.5 297,-56.5"/>
<text text-anchor="middle" x="347" y="-63.5" font-family="Helvetica,sans-Serif" font-size="10.00">src/grid_map.cpp</text>
</a>
</g>
</g>
<!-- Node6&#45;&gt;Node7 -->
<g id="edge7" class="edge">
<title>Node6&#45;&gt;Node7</title>
<path fill="none" stroke="midnightblue" d="M258.72,-108.1C280.39,-98.01 309.9,-84.27 328.71,-75.52"/>
<polygon fill="midnightblue" stroke="midnightblue" points="256.97,-105.05 249.38,-112.44 259.92,-111.4 256.97,-105.05"/>
</g>
</g>
</svg>
