<?xml version="1.0" encoding="UTF-8" standalone="no"?>
<!DOCTYPE svg PUBLIC "-//W3C//DTD SVG 1.1//EN"
 "http://www.w3.org/Graphics/SVG/1.1/DTD/svg11.dtd">
<!-- Generated by graphviz version 2.43.0 (0)
 -->
<!-- Title: src/stress_test.cpp Pages: 1 -->
<svg width="401pt" height="252pt"
 viewBox="0.00 0.00 401.47 252.00" xmlns="http://www.w3.org/2000/svg" xmlns:xlink="http://www.w3.org/1999/xlink">
<g id="graph0" class="graph" transform="scale(1 1) rotate(0) translate(4 248)">
<title>src/stress_test.cpp</title>
<polygon fill="white" stroke="transparent" points="-4,4 -4,-248 397.47,-248 397.47,4 -4,4"/>
<!-- Node1 -->
<g id="node1" class="node">
<title>Node1</title>
<g id="a_node1"><a xlink:title=" ">
<polygon fill="#bfbfbf" stroke="black" points="85.97,-224.5 85.97,-243.5 192.97,-243.5 192.97,-224.5 85.97,-224.5"/>
<text text-anchor="middle" x="139.47" y="-231.5" font-family="Helvetica,sans-Serif" font-size="10.00">src/stress_test.cpp</text>
</a>
</g>
</g>
<!-- Node2 -->
<g id="node2" class="node">
<title>Node2</title>
<g id="a_node2"><a xlink:title=" ">
<polygon fill="white" stroke="#bfbfbf" points="17.47,-112.5 17.47,-131.5 77.47,-131.5 77.47,-112.5 17.47,-112.5"/>
<text text-anchor="middle" x="47.47" y="-119.5" font-family="Helvetica,sans-Serif" font-size="10.00">iostream</text>
</a>
</g>
</g>
<!-- Node1&#45;&gt;Node2 -->
<g id="edge1" class="edge">
<title>Node1&#45;&gt;Node2</title>
<path fill="none" stroke="midnightblue" d="M132.25,-224.37C116.93,-206.05 80.96,-163.05 61.15,-139.36"/>
<polygon fill="midnightblue" stroke="midnightblue" points="63.75,-137.02 54.65,-131.59 58.38,-141.51 63.75,-137.02"/>
</g>
<!-- Node3 -->
<g id="node3" class="node">
<title>Node3</title>
<g id="a_node3"><a xlink:title=" ">
<polygon fill="white" stroke="#bfbfbf" points="133.97,-56.5 133.97,-75.5 180.97,-75.5 180.97,-56.5 133.97,-56.5"/>
<text text-anchor="middle" x="157.47" y="-63.5" font-family="Helvetica,sans-Serif" font-size="10.00">vector</text>
</a>
</g>
</g>
<!-- Node1&#45;&gt;Node3 -->
<g id="edge2" class="edge">
<title>Node1&#45;&gt;Node3</title>
<path fill="none" stroke="midnightblue" d="M116.01,-224.48C69.28,-206.22 -27.9,-160.97 8.47,-112 34.82,-76.51 88.33,-68 123.53,-66.48"/>
<polygon fill="midnightblue" stroke="midnightblue" points="123.91,-69.98 133.82,-66.22 123.73,-62.98 123.91,-69.98"/>
</g>
<!-- Node4 -->
<g id="node4" class="node">
<title>Node4</title>
<g id="a_node4"><a xlink:href="dstar__lite_8h.html" target="_top" xlink:title=" ">
<polygon fill="white" stroke="black" points="154.97,-168.5 154.97,-187.5 225.97,-187.5 225.97,-168.5 154.97,-168.5"/>
<text text-anchor="middle" x="190.47" y="-175.5" font-family="Helvetica,sans-Serif" font-size="10.00">dstar_lite.h</text>
</a>
</g>
</g>
<!-- Node1&#45;&gt;Node4 -->
<g id="edge3" class="edge">
<title>Node1&#45;&gt;Node4</title>
<path fill="none" stroke="midnightblue" d="M147.89,-224.08C155.32,-216.22 166.32,-204.57 175.28,-195.08"/>
<polygon fill="midnightblue" stroke="midnightblue" points="177.88,-197.42 182.2,-187.75 172.79,-192.62 177.88,-197.42"/>
</g>
<!-- Node9 -->
<g id="node9" class="node">
<title>Node9</title>
<g id="a_node9"><a xlink:href="grid__map_8h.html" target="_top" xlink:title=" ">
<polygon fill="white" stroke="black" points="275.97,-112.5 275.97,-131.5 346.97,-131.5 346.97,-112.5 275.97,-112.5"/>
<text text-anchor="middle" x="311.47" y="-119.5" font-family="Helvetica,sans-Serif" font-size="10.00">grid_map.h</text>
</a>
</g>
</g>
<!-- Node1&#45;&gt;Node9 -->
<g id="edge16" class="edge">
<title>Node1&#45;&gt;Node9</title>
<path fill="none" stroke="midnightblue" d="M162.09,-224.42C182.13,-216.36 211.8,-203.27 235.47,-188 257.87,-173.55 280.74,-153.04 295.46,-138.95"/>
<polygon fill="midnightblue" stroke="midnightblue" points="298.02,-141.34 302.74,-131.86 293.14,-136.33 298.02,-141.34"/>
</g>
<!-- Node4&#45;&gt;Node2 -->
<g id="edge6" class="edge">
<title>Node4&#45;&gt;Node2</title>
<path fill="none" stroke="midnightblue" d="M167.81,-168.44C144.07,-159.48 106.56,-145.31 79.73,-135.18"/>
<polygon fill="midnightblue" stroke="midnightblue" points="80.61,-131.77 70.02,-131.52 78.14,-138.32 80.61,-131.77"/>
</g>
<!-- Node4&#45;&gt;Node3 -->
<g id="edge7" class="edge">
<title>Node4&#45;&gt;Node3</title>
<path fill="none" stroke="midnightblue" d="M187.88,-168.37C182.53,-150.54 170.16,-109.3 162.95,-85.27"/>
<polygon fill="midnightblue" stroke="midnightblue" points="166.27,-84.16 160.04,-75.59 159.57,-86.18 166.27,-84.16"/>
</g>
<!-- Node5 -->
<g id="node5" class="node">
<title>Node5</title>
<g id="a_node5"><a xlink:title=" ">
<polygon fill="white" stroke="#bfbfbf" points="290.47,-0.5 290.47,-19.5 340.47,-19.5 340.47,-0.5 290.47,-0.5"/>
<text text-anchor="middle" x="315.47" y="-7.5" font-family="Helvetica,sans-Serif" font-size="10.00">cstdint</text>
</a>
</g>
</g>
<!-- Node4&#45;&gt;Node5 -->
<g id="edge4" class="edge">
<title>Node4&#45;&gt;Node5</title>
<path fill="none" stroke="midnightblue" d="M190.96,-168.31C192.6,-146.81 199.57,-90.39 228.47,-56 242.04,-39.85 262.88,-28.79 280.76,-21.67"/>
<polygon fill="midnightblue" stroke="midnightblue" points="282.17,-24.88 290.33,-18.12 279.74,-18.32 282.17,-24.88"/>
</g>
<!-- Node6 -->
<g id="node6" class="node">
<title>Node6</title>
<g id="a_node6"><a xlink:title=" ">
<polygon fill="white" stroke="#bfbfbf" points="237.47,-56.5 237.47,-75.5 287.47,-75.5 287.47,-56.5 237.47,-56.5"/>
<text text-anchor="middle" x="262.47" y="-63.5" font-family="Helvetica,sans-Serif" font-size="10.00">climits</text>
</a>
</g>
</g>
<!-- Node4&#45;&gt;Node6 -->
<g id="edge5" class="edge">
<title>Node4&#45;&gt;Node6</title>
<path fill="none" stroke="midnightblue" d="M197.29,-168.21C204.14,-159.26 214.89,-144.91 223.47,-132 233.92,-116.28 244.9,-97.77 252.54,-84.53"/>
<polygon fill="midnightblue" stroke="midnightblue" points="255.74,-85.99 257.66,-75.57 249.66,-82.51 255.74,-85.99"/>
</g>
<!-- Node7 -->
<g id="node7" class="node">
<title>Node7</title>
<g id="a_node7"><a xlink:title=" ">
<polygon fill="white" stroke="#bfbfbf" points="95.97,-112.5 95.97,-131.5 142.97,-131.5 142.97,-112.5 95.97,-112.5"/>
<text text-anchor="middle" x="119.47" y="-119.5" font-family="Helvetica,sans-Serif" font-size="10.00">queue</text>
</a>
</g>
</g>
<!-- Node4&#45;&gt;Node7 -->
<g id="edge8" class="edge">
<title>Node4&#45;&gt;Node7</title>
<path fill="none" stroke="midnightblue" d="M179.06,-168.32C168.36,-160.18 152.13,-147.84 139.3,-138.09"/>
<polygon fill="midnightblue" stroke="midnightblue" points="141.16,-135.1 131.08,-131.83 136.92,-140.67 141.16,-135.1"/>
</g>
<!-- Node8 -->
<g id="node8" class="node">
<title>Node8</title>
<g id="a_node8"><a xlink:href="state_8h.html" target="_top" xlink:title=" ">
<polygon fill="white" stroke="black" points="343.47,-56.5 343.47,-75.5 393.47,-75.5 393.47,-56.5 343.47,-56.5"/>
<text text-anchor="middle" x="368.47" y="-63.5" font-family="Helvetica,sans-Serif" font-size="10.00">state.h</text>
</a>
</g>
</g>
<!-- Node4&#45;&gt;Node8 -->
<g id="edge9" class="edge">
<title>Node4&#45;&gt;Node8</title>
<path fill="none" stroke="midnightblue" d="M226.17,-177.71C264.14,-176.41 323.19,-168.13 356.47,-132 367.75,-119.75 370.1,-100.48 370.01,-86.1"/>
<polygon fill="midnightblue" stroke="midnightblue" points="373.5,-85.68 369.55,-75.85 366.5,-86 373.5,-85.68"/>
</g>
<!-- Node4&#45;&gt;Node9 -->
<g id="edge11" class="edge">
<title>Node4&#45;&gt;Node9</title>
<path fill="none" stroke="midnightblue" d="M209.64,-168.44C229.38,-159.64 260.35,-145.81 282.96,-135.72"/>
<polygon fill="midnightblue" stroke="midnightblue" points="284.68,-138.79 292.38,-131.52 281.83,-132.4 284.68,-138.79"/>
</g>
<!-- Node8&#45;&gt;Node5 -->
<g id="edge10" class="edge">
<title>Node8&#45;&gt;Node5</title>
<path fill="none" stroke="midnightblue" d="M359.72,-56.08C352,-48.22 340.56,-36.57 331.25,-27.08"/>
<polygon fill="midnightblue" stroke="midnightblue" points="333.56,-24.44 324.06,-19.75 328.56,-29.34 333.56,-24.44"/>
</g>
<!-- Node9&#45;&gt;Node3 -->
<g id="edge14" class="edge">
<title>Node9&#45;&gt;Node3</title>
<path fill="none" stroke="midnightblue" d="M287.07,-112.44C261.04,-103.32 219.67,-88.81 190.69,-78.65"/>
<polygon fill="midnightblue" stroke="midnightblue" points="191.59,-75.26 181,-75.25 189.28,-81.86 191.59,-75.26"/>
</g>
<!-- Node9&#45;&gt;Node5 -->
<g id="edge12" class="edge">
<title>Node9&#45;&gt;Node5</title>
<path fill="none" stroke="midnightblue" d="M311.78,-112.37C312.43,-94.62 313.92,-53.67 314.79,-29.6"/>
<polygon fill="midnightblue" stroke="midnightblue" points="318.29,-29.71 315.15,-19.59 311.29,-29.46 318.29,-29.71"/>
</g>
<!-- Node9&#45;&gt;Node6 -->
<g id="edge13" class="edge">
<title>Node9&#45;&gt;Node6</title>
<path fill="none" stroke="midnightblue" d="M303.38,-112.08C296.31,-104.3 285.88,-92.8 277.32,-83.37"/>
<polygon fill="midnightblue" stroke="midnightblue" points="279.72,-80.8 270.41,-75.75 274.54,-85.51 279.72,-80.8"/>
</g>
<!-- Node9&#45;&gt;Node8 -->
<g id="edge15" class="edge">
<title>Node9&#45;&gt;Node8</title>
<path fill="none" stroke="midnightblue" d="M320.63,-112.32C328.97,-104.42 341.5,-92.55 351.64,-82.94"/>
<polygon fill="midnightblue" stroke="midnightblue" points="354.29,-85.25 359.14,-75.83 349.48,-80.17 354.29,-85.25"/>
</g>
</g>
</svg>
