<?xml version="1.0" encoding="UTF-8" standalone="no"?>
<!DOCTYPE svg PUBLIC "-//W3C//DTD SVG 1.1//EN"
 "http://www.w3.org/Graphics/SVG/1.1/DTD/svg11.dtd">
<!-- Generated by graphviz version 2.43.0 (0)
 -->
<!-- Title: PQNode Pages: 1 -->
<svg width="104pt" height="95pt"
 viewBox="0.00 0.00 103.50 95.00" xmlns="http://www.w3.org/2000/svg" xmlns:xlink="http://www.w3.org/1999/xlink">
<g id="graph0" class="graph" transform="scale(1 1) rotate(0) translate(4 91)">
<title>PQNode</title>
<polygon fill="white" stroke="transparent" points="-4,4 -4,-91 99.5,-91 99.5,4 -4,4"/>
<!-- Node1 -->
<g id="node1" class="node">
<title>Node1</title>
<g id="a_node1"><a xlink:title="Is a node within the priority queue.">
<polygon fill="#bfbfbf" stroke="black" points="17.5,-0.5 17.5,-19.5 73.5,-19.5 73.5,-0.5 17.5,-0.5"/>
<text text-anchor="middle" x="45.5" y="-7.5" font-family="Helvetica,sans-Serif" font-size="10.00">PQNode</text>
</a>
</g>
</g>
<!-- Node2 -->
<g id="node2" class="node">
<title>Node2</title>
<g id="a_node2"><a xlink:href="structKey.html" target="_top" xlink:title="Lexicographic key used by D*Lite Priority Queue.">
<polygon fill="white" stroke="black" points="0,-67.5 0,-86.5 35,-86.5 35,-67.5 0,-67.5"/>
<text text-anchor="middle" x="17.5" y="-74.5" font-family="Helvetica,sans-Serif" font-size="10.00">Key</text>
</a>
</g>
</g>
<!-- Node2&#45;&gt;Node1 -->
<g id="edge1" class="edge">
<title>Node2&#45;&gt;Node1</title>
<path fill="none" stroke="#9a32cd" stroke-dasharray="5,2" d="M23.69,-57.77C25.98,-51.44 28.7,-44.35 31.5,-38 34.23,-31.82 37.73,-25.07 40.55,-19.86"/>
<polygon fill="#9a32cd" stroke="#9a32cd" points="20.31,-56.83 20.31,-67.43 26.92,-59.14 20.31,-56.83"/>
<text text-anchor="middle" x="42" y="-41" font-family="Helvetica,sans-Serif" font-size="10.00"> key</text>
</g>
<!-- Node3 -->
<g id="node3" class="node">
<title>Node3</title>
<g id="a_node3"><a xlink:href="structState.html" target="_top" xlink:title="State representation of D* Lite vertex, contains the x and y indices.">
<polygon fill="white" stroke="black" points="53.5,-67.5 53.5,-86.5 95.5,-86.5 95.5,-67.5 53.5,-67.5"/>
<text text-anchor="middle" x="74.5" y="-74.5" font-family="Helvetica,sans-Serif" font-size="10.00">State</text>
</a>
</g>
</g>
<!-- Node3&#45;&gt;Node1 -->
<g id="edge2" class="edge">
<title>Node3&#45;&gt;Node1</title>
<path fill="none" stroke="#9a32cd" stroke-dasharray="5,2" d="M66.38,-57.79C60.81,-45.31 53.67,-29.31 49.35,-19.63"/>
<polygon fill="#9a32cd" stroke="#9a32cd" points="63.32,-59.53 70.59,-67.23 69.71,-56.68 63.32,-59.53"/>
<text text-anchor="middle" x="75.5" y="-41" font-family="Helvetica,sans-Serif" font-size="10.00"> state</text>
</g>
</g>
</svg>
